G04*
G04 #@! TF.GenerationSoftware,Altium Limited,Altium Designer,23.8.1 (32)*
G04*
G04 Layer_Color=32768*
%FSLAX44Y44*%
%MOMM*%
G71*
G04*
G04 #@! TF.SameCoordinates,4E8033DB-9698-49A7-8747-1B8CF0FAEC2F*
G04*
G04*
G04 #@! TF.FilePolarity,Positive*
G04*
G01*
G75*
%ADD10C,0.1500*%
%ADD11C,0.1000*%
%ADD12C,0.2000*%
D10*
X99299Y461554D02*
X116958D01*
X118281Y462877D01*
X107112D02*
X118281D01*
D11*
X359750Y27250D02*
Y32750D01*
X370250Y27250D02*
Y32750D01*
X359750Y27250D02*
X370250D01*
X359750Y32750D02*
X370250D01*
X140250Y27250D02*
Y32750D01*
X129750Y27250D02*
Y32750D01*
X140250D01*
X129750Y27250D02*
X140250D01*
X325525Y100000D02*
X332025Y93500D01*
Y80000D02*
Y100000D01*
X319525Y80000D02*
X332025D01*
X319525D02*
Y100000D01*
X332025D01*
X270540Y178500D02*
X279540D01*
X270540Y161500D02*
X279540D01*
X270540D02*
Y178500D01*
X279540Y161500D02*
Y178500D01*
X219740D02*
X228740D01*
X219740Y161500D02*
X228740D01*
X219740D02*
Y178500D01*
X228740Y161500D02*
Y178500D01*
X194340D02*
X203340D01*
X194340Y161500D02*
X203340D01*
X194340D02*
Y178500D01*
X203340Y161500D02*
Y178500D01*
X295940Y411500D02*
X304940D01*
X295940Y428500D02*
X304940D01*
Y411500D02*
Y428500D01*
X295940Y411500D02*
Y428500D01*
X270540Y411500D02*
X279540D01*
X270540Y428500D02*
X279540D01*
Y411500D02*
Y428500D01*
X270540Y411500D02*
Y428500D01*
X219740Y411500D02*
X228740D01*
X219740Y428500D02*
X228740D01*
Y411500D02*
Y428500D01*
X219740Y411500D02*
Y428500D01*
X194340Y428500D02*
X203340D01*
X194340Y411500D02*
X203340D01*
X194340D02*
Y428500D01*
X203340Y411500D02*
Y428500D01*
D12*
X324998Y179687D02*
X334998D01*
X324998Y174687D02*
Y179687D01*
Y174687D02*
X334998D01*
Y179687D01*
X64750Y77250D02*
X75250D01*
Y82750D01*
X64750D02*
X75250D01*
X64750Y77250D02*
Y82750D01*
X415000Y99000D02*
X425000D01*
X415000Y94000D02*
Y99000D01*
Y94000D02*
X425000D01*
Y99000D01*
X290000D02*
X300000D01*
X290000Y94000D02*
Y99000D01*
Y94000D02*
X300000D01*
Y99000D01*
X460000Y304620D02*
Y309620D01*
X470000D01*
Y304620D02*
Y309620D01*
X460000Y304620D02*
X470000D01*
X133100Y424620D02*
X143100D01*
Y429620D01*
X133100D02*
X143100D01*
X133100Y424620D02*
Y429620D01*
Y304620D02*
Y309620D01*
X143100D01*
Y304620D02*
Y309620D01*
X133100Y304620D02*
X143100D01*
X422000Y168680D02*
Y173680D01*
X412000Y168680D02*
X422000D01*
X412000D02*
Y173680D01*
X422000D01*
X133100Y184620D02*
Y189620D01*
X143100D01*
Y184620D02*
Y189620D01*
X133100Y184620D02*
X143100D01*
X460000Y424620D02*
Y429620D01*
X470000D01*
Y424620D02*
Y429620D01*
X460000Y424620D02*
X470000D01*
M02*
