G04*
G04 #@! TF.GenerationSoftware,Altium Limited,Altium Designer,23.8.1 (32)*
G04*
G04 Layer_Color=16711935*
%FSLAX44Y44*%
%MOMM*%
G71*
G04*
G04 #@! TF.SameCoordinates,4E8033DB-9698-49A7-8747-1B8CF0FAEC2F*
G04*
G04*
G04 #@! TF.FilePolarity,Positive*
G04*
G01*
G75*
%ADD12C,0.2000*%
D12*
X322635Y180937D02*
X337360D01*
X322635Y173437D02*
Y180937D01*
Y173437D02*
X337360D01*
Y180937D01*
X62000Y76000D02*
X78000D01*
Y84000D01*
X62000D02*
X78000D01*
X62000Y76000D02*
Y84000D01*
X412638Y100250D02*
X427362D01*
X412638Y92750D02*
Y100250D01*
Y92750D02*
X427362D01*
Y100250D01*
X287638D02*
X302362D01*
X287638Y92750D02*
Y100250D01*
Y92750D02*
X302362D01*
Y100250D01*
X457638Y303370D02*
Y310870D01*
X472362D01*
Y303370D02*
Y310870D01*
X457638Y303370D02*
X472362D01*
X130738Y423370D02*
X145462D01*
Y430870D01*
X130738D02*
X145462D01*
X130738Y423370D02*
Y430870D01*
Y303370D02*
Y310870D01*
X145462D01*
Y303370D02*
Y310870D01*
X130738Y303370D02*
X145462D01*
X424362Y167430D02*
Y174930D01*
X409638Y167430D02*
X424362D01*
X409638D02*
Y174930D01*
X424362D01*
X130738Y183370D02*
Y190870D01*
X145462D01*
Y183370D02*
Y190870D01*
X130738Y183370D02*
X145462D01*
X457638Y423370D02*
Y430870D01*
X472362D01*
Y423370D02*
Y430870D01*
X457638Y423370D02*
X472362D01*
M02*
