G04*
G04 #@! TF.GenerationSoftware,Altium Limited,Altium Designer,23.8.1 (32)*
G04*
G04 Layer_Physical_Order=2*
G04 Layer_Color=16440176*
%FSLAX44Y44*%
%MOMM*%
G71*
G04*
G04 #@! TF.SameCoordinates,4E8033DB-9698-49A7-8747-1B8CF0FAEC2F*
G04*
G04*
G04 #@! TF.FilePolarity,Positive*
G04*
G01*
G75*
%ADD18C,1.0000*%
%ADD19R,1.0000X1.0000*%
%ADD20C,1.5000*%
%ADD21C,0.5000*%
%ADD22C,1.2700*%
G36*
X459107Y489998D02*
X460005Y489100D01*
X459988Y474982D01*
X460060Y473518D01*
X460631Y470647D01*
X461751Y467943D01*
X463377Y465509D01*
X465447Y463439D01*
X467881Y461813D01*
X470586Y460692D01*
X473456Y460121D01*
X474920Y460050D01*
X474980D01*
X489984Y460008D01*
X489953Y40911D01*
X489054Y40014D01*
X474971Y40039D01*
Y39994D01*
X473505Y39922D01*
X470628Y39350D01*
X467919Y38227D01*
X465480Y36598D01*
X463406Y34524D01*
X461777Y32085D01*
X460655Y29376D01*
X460083Y26500D01*
X460010Y25033D01*
X460012Y10890D01*
X459114Y9992D01*
X40026Y10050D01*
X40012Y24984D01*
Y25037D01*
X39940Y26506D01*
X39367Y29388D01*
X38242Y32104D01*
X36609Y34547D01*
X34532Y36625D01*
X32088Y38258D01*
X29373Y39382D01*
X26491Y39955D01*
X25022Y40028D01*
X10901Y40024D01*
X10003Y40922D01*
X10004Y273855D01*
X11274Y274107D01*
X11784Y272876D01*
X13202Y271458D01*
X15055Y270691D01*
X16769D01*
Y270011D01*
X17454Y268357D01*
X18720Y267091D01*
X20374Y266406D01*
X22164D01*
X23818Y267091D01*
X25084Y268357D01*
X25769Y270011D01*
Y271801D01*
X25084Y273455D01*
X23818Y274721D01*
X22164Y275406D01*
X21097D01*
Y276733D01*
X20330Y278586D01*
X18912Y280004D01*
X17327Y280660D01*
Y275731D01*
X14787D01*
Y280660D01*
X13202Y280004D01*
X11784Y278586D01*
X11274Y277355D01*
X10004Y277607D01*
X10006Y459975D01*
X24998Y460052D01*
X26467Y460125D01*
X29348Y460698D01*
X32062Y461822D01*
X34505Y463454D01*
X36582Y465531D01*
X38214Y467974D01*
X39338Y470687D01*
X39911Y473569D01*
X39983Y475037D01*
X39991D01*
X40062Y490007D01*
X40063D01*
X459107Y489998D01*
D02*
G37*
%LPC*%
G36*
X366444Y470789D02*
X364859Y470133D01*
X363441Y468715D01*
X362785Y467130D01*
X366444D01*
Y470789D01*
D02*
G37*
G36*
X368984D02*
Y465860D01*
X367714D01*
Y464590D01*
X362785D01*
X363441Y463005D01*
X364859Y461588D01*
X366712Y460820D01*
X367676D01*
Y459365D01*
X368361Y457711D01*
X369627Y456445D01*
X371281Y455760D01*
X373071D01*
X374725Y456445D01*
X375991Y457711D01*
X376676Y459365D01*
Y461155D01*
X375991Y462809D01*
X374725Y464075D01*
X373071Y464760D01*
X373008D01*
X372754Y464858D01*
Y466863D01*
X371987Y468715D01*
X370569Y470133D01*
X368984Y470789D01*
D02*
G37*
G36*
X204824Y449639D02*
X203239Y448983D01*
X202149Y447892D01*
X201389Y448652D01*
X199735Y449337D01*
X197945D01*
X196291Y448652D01*
X195025Y447386D01*
X194340Y445732D01*
Y443942D01*
X195025Y442288D01*
X196291Y441022D01*
X197945Y440337D01*
X199735D01*
X201389Y441022D01*
X202021Y441655D01*
X203239Y440437D01*
X204824Y439781D01*
Y444710D01*
Y449639D01*
D02*
G37*
G36*
X207364D02*
Y445980D01*
X211023D01*
X210366Y447565D01*
X208949Y448983D01*
X207364Y449639D01*
D02*
G37*
G36*
X371177Y448417D02*
X369592Y447761D01*
X368174Y446343D01*
X367517Y444758D01*
X371177D01*
Y448417D01*
D02*
G37*
G36*
X211023Y443440D02*
X207364D01*
Y439781D01*
X208949Y440437D01*
X210366Y441855D01*
X211023Y443440D01*
D02*
G37*
G36*
X466999Y447587D02*
X465209D01*
X463555Y446902D01*
X462289Y445636D01*
X461604Y443982D01*
Y442192D01*
X462289Y440538D01*
X463555Y439272D01*
X465209Y438587D01*
X466999D01*
X468653Y439272D01*
X469919Y440538D01*
X470604Y442192D01*
Y443982D01*
X469919Y445636D01*
X468653Y446902D01*
X466999Y447587D01*
D02*
G37*
G36*
X371177Y442218D02*
X367517D01*
X368174Y440633D01*
X369592Y439215D01*
X371177Y438559D01*
Y442218D01*
D02*
G37*
G36*
X373717Y448417D02*
Y443488D01*
Y438559D01*
X374541Y438900D01*
X375449Y439131D01*
X376442Y438559D01*
X377051Y437950D01*
X378705Y437265D01*
X380495D01*
X382149Y437950D01*
X383415Y439216D01*
X384100Y440870D01*
Y442660D01*
X383415Y444314D01*
X382149Y445580D01*
X380495Y446265D01*
X378705D01*
X377051Y445580D01*
X377034Y445583D01*
X376719Y446343D01*
X375302Y447761D01*
X373717Y448417D01*
D02*
G37*
G36*
X140344Y445696D02*
X138554D01*
X136900Y445011D01*
X135634Y443745D01*
X134949Y442091D01*
Y440301D01*
X135634Y438647D01*
X136900Y437381D01*
X138554Y436696D01*
X140344D01*
X141998Y437381D01*
X143264Y438647D01*
X143949Y440301D01*
Y442091D01*
X143264Y443745D01*
X141998Y445011D01*
X140344Y445696D01*
D02*
G37*
G36*
X482184Y432049D02*
Y428390D01*
X485843D01*
X485187Y429975D01*
X483769Y431393D01*
X482184Y432049D01*
D02*
G37*
G36*
X479644D02*
X478059Y431393D01*
X476641Y429975D01*
X475985Y428390D01*
X479644D01*
Y432049D01*
D02*
G37*
G36*
X155125D02*
Y428390D01*
X158784D01*
X158127Y429975D01*
X156710Y431393D01*
X155125Y432049D01*
D02*
G37*
G36*
X152585D02*
X151000Y431393D01*
X149582Y429975D01*
X148926Y428390D01*
X152585D01*
Y432049D01*
D02*
G37*
G36*
X485843Y425850D02*
X482184D01*
Y422191D01*
X483769Y422847D01*
X485187Y424265D01*
X485843Y425850D01*
D02*
G37*
G36*
X479644D02*
X475985D01*
X476641Y424265D01*
X478059Y422847D01*
X479644Y422191D01*
Y425850D01*
D02*
G37*
G36*
X158784D02*
X155125D01*
Y422191D01*
X156710Y422847D01*
X158127Y424265D01*
X158784Y425850D01*
D02*
G37*
G36*
X152585D02*
X148926D01*
X149582Y424265D01*
X151000Y422847D01*
X152585Y422191D01*
Y425850D01*
D02*
G37*
G36*
X133197Y420064D02*
Y416404D01*
X136856D01*
X136200Y417989D01*
X134782Y419407D01*
X133197Y420064D01*
D02*
G37*
G36*
X130657D02*
X129072Y419407D01*
X127655Y417989D01*
X126998Y416404D01*
X130657D01*
Y420064D01*
D02*
G37*
G36*
X49862Y414890D02*
Y411231D01*
X53521D01*
X52865Y412816D01*
X51447Y414233D01*
X49862Y414890D01*
D02*
G37*
G36*
X67951Y416918D02*
X66161D01*
X64507Y416233D01*
X63241Y414967D01*
X62556Y413313D01*
Y411523D01*
X62424Y411325D01*
X62078D01*
X60225Y410558D01*
X58808Y409140D01*
X58151Y407555D01*
X68349D01*
X69046Y408371D01*
X69605Y408603D01*
X70871Y409869D01*
X71556Y411523D01*
Y413313D01*
X70871Y414967D01*
X69605Y416233D01*
X67951Y416918D01*
D02*
G37*
G36*
X53521Y408691D02*
X49862D01*
Y405032D01*
X51447Y405688D01*
X52865Y407106D01*
X53521Y408691D01*
D02*
G37*
G36*
X42795Y417290D02*
X41005D01*
X39351Y416605D01*
X38085Y415340D01*
X37400Y413686D01*
Y411895D01*
X38085Y410242D01*
X39351Y408976D01*
X41005Y408290D01*
X42795D01*
X43677Y408656D01*
X44320Y407106D01*
X45737Y405688D01*
X47322Y405032D01*
Y409961D01*
Y414890D01*
X46109Y414388D01*
X45715Y415340D01*
X44449Y416605D01*
X42795Y417290D01*
D02*
G37*
G36*
X136856Y413865D02*
X126998D01*
X127606Y412398D01*
X126900Y412106D01*
X125634Y410840D01*
X124949Y409186D01*
Y407396D01*
X125634Y405742D01*
X126900Y404476D01*
X128554Y403791D01*
X130344D01*
X131998Y404476D01*
X133264Y405742D01*
X133949Y407396D01*
Y409186D01*
X133478Y410322D01*
X134782Y410862D01*
X136200Y412280D01*
X136856Y413865D01*
D02*
G37*
G36*
X68010Y405015D02*
X64350D01*
Y401356D01*
X65935Y402013D01*
X67353Y403430D01*
X68010Y405015D01*
D02*
G37*
G36*
X61810D02*
X58151D01*
X58808Y403430D01*
X60225Y402013D01*
X61810Y401356D01*
Y405015D01*
D02*
G37*
G36*
X151252Y403371D02*
Y399712D01*
X154911D01*
X154255Y401297D01*
X152837Y402714D01*
X151252Y403371D01*
D02*
G37*
G36*
X148712D02*
X147127Y402714D01*
X145709Y401297D01*
X145053Y399712D01*
X148712D01*
Y403371D01*
D02*
G37*
G36*
X439993Y399488D02*
X438203D01*
X436549Y398802D01*
X435283Y397537D01*
X434598Y395883D01*
Y394092D01*
X435283Y392439D01*
X435954Y391768D01*
X434953Y390767D01*
X434297Y389182D01*
X444155D01*
X443499Y390767D01*
X442370Y391895D01*
X442913Y392439D01*
X443598Y394092D01*
Y395883D01*
X442913Y397537D01*
X441647Y398802D01*
X439993Y399488D01*
D02*
G37*
G36*
X154911Y397172D02*
X145053D01*
X145709Y395587D01*
X147127Y394169D01*
X147313Y393231D01*
X146700Y392618D01*
X146015Y390964D01*
Y389174D01*
X146700Y387520D01*
X147966Y386254D01*
X149620Y385569D01*
X151410D01*
X153064Y386254D01*
X154330Y387520D01*
X155015Y389174D01*
Y390964D01*
X154330Y392618D01*
X153638Y393310D01*
X153078Y393910D01*
X153638Y394970D01*
X154255Y395587D01*
X154911Y397172D01*
D02*
G37*
G36*
X74917Y396750D02*
Y391820D01*
Y386572D01*
X75803Y385884D01*
X76132Y385089D01*
X77398Y383824D01*
X79052Y383139D01*
X80842D01*
X82496Y383824D01*
X83762Y385089D01*
X84447Y386743D01*
Y388534D01*
X83762Y390188D01*
X82496Y391453D01*
X80842Y392138D01*
X79052D01*
X78687Y392382D01*
Y392823D01*
X77920Y394675D01*
X76502Y396093D01*
X74917Y396750D01*
D02*
G37*
G36*
X444155Y386642D02*
X440496D01*
Y382983D01*
X442081Y383639D01*
X443499Y385057D01*
X444155Y386642D01*
D02*
G37*
G36*
X437956D02*
X434297D01*
X434953Y385057D01*
X436371Y383639D01*
X437956Y382983D01*
Y386642D01*
D02*
G37*
G36*
X72377Y396750D02*
X70792Y396093D01*
X69374Y394675D01*
X68607Y392823D01*
Y392199D01*
X68195Y391924D01*
X66405D01*
X64751Y391239D01*
X63485Y389973D01*
X62800Y388319D01*
Y386529D01*
X63485Y384875D01*
X64751Y383609D01*
X66405Y382924D01*
X68195D01*
X69849Y383609D01*
X71115Y384875D01*
X71527Y385869D01*
X72377Y386562D01*
Y391820D01*
Y396750D01*
D02*
G37*
G36*
X250910Y378106D02*
Y371910D01*
X257106D01*
X256666Y373550D01*
X255674Y375270D01*
X254270Y376674D01*
X252550Y377666D01*
X250910Y378106D01*
D02*
G37*
G36*
X248370D02*
X246730Y377666D01*
X245010Y376674D01*
X243606Y375270D01*
X242614Y373550D01*
X242174Y371910D01*
X248370D01*
Y378106D01*
D02*
G37*
G36*
X301362Y377640D02*
X299519D01*
X297738Y377163D01*
X296142Y376241D01*
X294839Y374938D01*
X293917Y373342D01*
X293440Y371562D01*
Y369719D01*
X293917Y367938D01*
X294839Y366342D01*
X296142Y365039D01*
X297738Y364117D01*
X299519Y363640D01*
X301362D01*
X303142Y364117D01*
X304738Y365039D01*
X306041Y366342D01*
X306963Y367938D01*
X307440Y369719D01*
Y371562D01*
X306963Y373342D01*
X306041Y374938D01*
X304738Y376241D01*
X303142Y377163D01*
X301362Y377640D01*
D02*
G37*
G36*
X275962D02*
X274118D01*
X272338Y377163D01*
X270742Y376241D01*
X269439Y374938D01*
X268517Y373342D01*
X268040Y371562D01*
Y369719D01*
X268517Y367938D01*
X269439Y366342D01*
X270742Y365039D01*
X272338Y364117D01*
X274118Y363640D01*
X275962D01*
X277742Y364117D01*
X279338Y365039D01*
X280641Y366342D01*
X281563Y367938D01*
X282040Y369719D01*
Y371562D01*
X281563Y373342D01*
X280641Y374938D01*
X279338Y376241D01*
X277742Y377163D01*
X275962Y377640D01*
D02*
G37*
G36*
X225162D02*
X223319D01*
X221538Y377163D01*
X219942Y376241D01*
X218639Y374938D01*
X217717Y373342D01*
X217240Y371562D01*
Y369719D01*
X217717Y367938D01*
X218639Y366342D01*
X219942Y365039D01*
X221538Y364117D01*
X223319Y363640D01*
X225162D01*
X226942Y364117D01*
X228538Y365039D01*
X229841Y366342D01*
X230763Y367938D01*
X231240Y369719D01*
Y371562D01*
X230763Y373342D01*
X229841Y374938D01*
X228538Y376241D01*
X226942Y377163D01*
X225162Y377640D01*
D02*
G37*
G36*
X199762D02*
X197918D01*
X196138Y377163D01*
X194542Y376241D01*
X193239Y374938D01*
X192317Y373342D01*
X191840Y371562D01*
Y369719D01*
X192317Y367938D01*
X193239Y366342D01*
X194542Y365039D01*
X196138Y364117D01*
X197918Y363640D01*
X199762D01*
X201542Y364117D01*
X203138Y365039D01*
X204441Y366342D01*
X205363Y367938D01*
X205840Y369719D01*
Y371562D01*
X205363Y373342D01*
X204441Y374938D01*
X203138Y376241D01*
X201542Y377163D01*
X199762Y377640D01*
D02*
G37*
G36*
X257106Y369370D02*
X250910D01*
Y363174D01*
X252550Y363614D01*
X254270Y364607D01*
X255674Y366010D01*
X256666Y367730D01*
X257106Y369370D01*
D02*
G37*
G36*
X248370D02*
X242174D01*
X242614Y367730D01*
X243606Y366010D01*
X245010Y364607D01*
X246730Y363614D01*
X248370Y363174D01*
Y369370D01*
D02*
G37*
G36*
X380495Y363782D02*
X378705D01*
X377051Y363097D01*
X376599Y362645D01*
X374838Y362610D01*
X374408Y363040D01*
X372823Y363697D01*
Y358768D01*
Y353838D01*
X374408Y354495D01*
X375826Y355913D01*
X376476Y356042D01*
X377051Y355467D01*
X378705Y354782D01*
X380495D01*
X382149Y355467D01*
X383415Y356732D01*
X384100Y358386D01*
Y360177D01*
X383415Y361831D01*
X382149Y363097D01*
X380495Y363782D01*
D02*
G37*
G36*
X38551Y363928D02*
Y360269D01*
X42211D01*
X41554Y361853D01*
X40136Y363271D01*
X38551Y363928D01*
D02*
G37*
G36*
X370283Y363697D02*
X368698Y363040D01*
X367280Y361622D01*
X366624Y360037D01*
X370283D01*
Y363697D01*
D02*
G37*
G36*
X355734Y367095D02*
X353944D01*
X352290Y366410D01*
X351024Y365144D01*
X350339Y363490D01*
Y361700D01*
X351024Y360046D01*
X352290Y358780D01*
X352796Y358570D01*
X352149Y357007D01*
X362007D01*
X361351Y358591D01*
X359933Y360009D01*
X358829Y360467D01*
X359339Y361700D01*
Y363490D01*
X358654Y365144D01*
X357388Y366410D01*
X355734Y367095D01*
D02*
G37*
G36*
X42211Y357729D02*
X38551D01*
Y354069D01*
X40136Y354726D01*
X41554Y356144D01*
X42211Y357729D01*
D02*
G37*
G36*
X31256Y366519D02*
X29466D01*
X27812Y365834D01*
X26546Y364568D01*
X25861Y362914D01*
Y361124D01*
X26546Y359470D01*
X27812Y358204D01*
X29466Y357519D01*
X31256D01*
X32266Y357937D01*
X33009Y356144D01*
X34427Y354726D01*
X36011Y354069D01*
Y358999D01*
Y363928D01*
X34671Y363373D01*
X34176Y364568D01*
X32910Y365834D01*
X31256Y366519D01*
D02*
G37*
G36*
X370283Y357497D02*
X366624D01*
X367280Y355913D01*
X368698Y354495D01*
X370283Y353838D01*
Y357497D01*
D02*
G37*
G36*
X362007Y354467D02*
X358348D01*
Y350807D01*
X359933Y351464D01*
X361351Y352882D01*
X362007Y354467D01*
D02*
G37*
G36*
X355808D02*
X352149D01*
X352805Y352882D01*
X354223Y351464D01*
X355808Y350807D01*
Y354467D01*
D02*
G37*
G36*
X431295Y358999D02*
X429505D01*
X427851Y358314D01*
X426585Y357048D01*
X425900Y355394D01*
Y353604D01*
X426585Y351950D01*
X427851Y350684D01*
X429505Y349999D01*
X431295D01*
X432949Y350684D01*
X434215Y351950D01*
X434900Y353604D01*
Y355394D01*
X434215Y357048D01*
X432949Y358314D01*
X431295Y358999D01*
D02*
G37*
G36*
X405895Y358965D02*
X404105D01*
X402451Y358279D01*
X401185Y357014D01*
X400500Y355360D01*
Y353569D01*
X401185Y351916D01*
X402451Y350650D01*
X404105Y349965D01*
X405895D01*
X407549Y350650D01*
X408815Y351916D01*
X409500Y353569D01*
Y355360D01*
X408815Y357014D01*
X407549Y358279D01*
X405895Y358965D01*
D02*
G37*
G36*
X30606Y348672D02*
X28816D01*
X27162Y347986D01*
X25896Y346721D01*
X25211Y345067D01*
Y343543D01*
X23516D01*
X21862Y342858D01*
X20596Y341592D01*
X19911Y339938D01*
Y338148D01*
X20596Y336494D01*
X21862Y335228D01*
X23516Y334543D01*
X25306D01*
X26960Y335228D01*
X28226Y336494D01*
X28911Y338148D01*
Y339672D01*
X30606D01*
X32260Y340357D01*
X33526Y341623D01*
X34211Y343276D01*
Y345067D01*
X33526Y346721D01*
X32260Y347986D01*
X30606Y348672D01*
D02*
G37*
G36*
X195833Y338610D02*
X194042D01*
X192388Y337925D01*
X191122Y336659D01*
X190437Y335005D01*
Y333215D01*
X191122Y331561D01*
X192388Y330295D01*
X194042Y329610D01*
X195833D01*
X197486Y330295D01*
X198752Y331561D01*
X199437Y333215D01*
Y335005D01*
X198752Y336659D01*
X197486Y337925D01*
X195833Y338610D01*
D02*
G37*
G36*
X72810Y332906D02*
X71225Y332250D01*
X69807Y330832D01*
X69040Y328980D01*
X68827Y328837D01*
X68472Y328984D01*
X66682D01*
X65028Y328299D01*
X63762Y327033D01*
X63077Y325379D01*
Y323589D01*
X63762Y321935D01*
X65028Y320669D01*
X66682Y319984D01*
X68472D01*
X70126Y320669D01*
X71392Y321935D01*
X71993Y323386D01*
X72810Y323048D01*
Y327977D01*
Y332906D01*
D02*
G37*
G36*
X397294Y329286D02*
X395709Y328629D01*
X394291Y327211D01*
X393523Y325359D01*
X393396Y325273D01*
X393239Y325338D01*
X391449D01*
X389795Y324653D01*
X388529Y323387D01*
X387844Y321733D01*
Y319943D01*
X388529Y318289D01*
X389795Y317023D01*
X391449Y316338D01*
X393239D01*
X394893Y317023D01*
X396159Y318289D01*
X396728Y319662D01*
X397294Y319427D01*
Y324356D01*
Y329286D01*
D02*
G37*
G36*
X49210Y332806D02*
Y327877D01*
Y322948D01*
X50322Y323408D01*
X50785Y322290D01*
X52051Y321024D01*
X53705Y320339D01*
X55495D01*
X57149Y321024D01*
X58415Y322290D01*
X59100Y323944D01*
Y325734D01*
X58415Y327388D01*
X57149Y328654D01*
X55495Y329339D01*
X53705D01*
X52924Y329015D01*
X52213Y330732D01*
X50795Y332150D01*
X49210Y332806D01*
D02*
G37*
G36*
X75350Y332906D02*
Y327977D01*
Y323048D01*
X75502Y323111D01*
X76185Y321461D01*
X77451Y320195D01*
X79105Y319510D01*
X80895D01*
X82549Y320195D01*
X83815Y321461D01*
X84500Y323115D01*
Y324905D01*
X83815Y326559D01*
X82549Y327825D01*
X80895Y328510D01*
X79120D01*
Y328980D01*
X78353Y330832D01*
X76935Y332250D01*
X75350Y332906D01*
D02*
G37*
G36*
X46670Y332806D02*
X45085Y332150D01*
X43667Y330732D01*
X42900Y328880D01*
Y328484D01*
X42795Y328414D01*
X41005D01*
X39351Y327729D01*
X38085Y326463D01*
X37400Y324809D01*
Y323019D01*
X38085Y321365D01*
X39351Y320099D01*
X41005Y319414D01*
X42795D01*
X44449Y320099D01*
X45715Y321365D01*
X45929Y321880D01*
X46670Y322584D01*
Y327877D01*
Y332806D01*
D02*
G37*
G36*
X399833Y329286D02*
Y324356D01*
Y319427D01*
X400832Y319841D01*
X401185Y318988D01*
X402451Y317722D01*
X404105Y317037D01*
X405895D01*
X407549Y317722D01*
X408815Y318988D01*
X409500Y320641D01*
Y322432D01*
X408815Y324086D01*
X407549Y325351D01*
X405895Y326036D01*
X404105D01*
X403437Y325760D01*
X402836Y327211D01*
X401418Y328629D01*
X399833Y329286D01*
D02*
G37*
G36*
X139981Y325443D02*
X138191D01*
X136537Y324758D01*
X135271Y323493D01*
X134586Y321838D01*
Y320048D01*
X135271Y318394D01*
X136537Y317129D01*
X138191Y316443D01*
X139981D01*
X141635Y317129D01*
X142901Y318394D01*
X143586Y320048D01*
Y321838D01*
X142901Y323493D01*
X141635Y324758D01*
X139981Y325443D01*
D02*
G37*
G36*
X464857Y324746D02*
X463067D01*
X461413Y324061D01*
X460147Y322795D01*
X459462Y321141D01*
Y319350D01*
X460147Y317697D01*
X461413Y316431D01*
X463067Y315746D01*
X464857D01*
X466511Y316431D01*
X467777Y317697D01*
X468462Y319350D01*
Y321141D01*
X467777Y322795D01*
X466511Y324061D01*
X464857Y324746D01*
D02*
G37*
G36*
X324865Y313019D02*
Y309360D01*
X328525D01*
X327868Y310945D01*
X326451Y312362D01*
X324865Y313019D01*
D02*
G37*
G36*
X322326D02*
X320741Y312362D01*
X319323Y310945D01*
X318666Y309360D01*
X322326D01*
Y313019D01*
D02*
G37*
G36*
X153005Y312049D02*
Y308390D01*
X156664D01*
X156008Y309975D01*
X154590Y311393D01*
X153005Y312049D01*
D02*
G37*
G36*
X150465D02*
X148880Y311393D01*
X147463Y309975D01*
X146806Y308390D01*
X150465D01*
Y312049D01*
D02*
G37*
G36*
X180624Y310689D02*
X179039Y310033D01*
X177621Y308615D01*
X176964Y307030D01*
X180624D01*
Y310689D01*
D02*
G37*
G36*
X156664Y305850D02*
X153005D01*
Y302191D01*
X154590Y302847D01*
X156008Y304265D01*
X156664Y305850D01*
D02*
G37*
G36*
X150465D02*
X146806D01*
X147463Y304265D01*
X148880Y302847D01*
X150465Y302191D01*
Y305850D01*
D02*
G37*
G36*
X183164Y310689D02*
Y305760D01*
Y300831D01*
X184748Y301487D01*
X185949Y302687D01*
X186451Y302185D01*
X188105Y301500D01*
X189895D01*
X191549Y302185D01*
X192815Y303451D01*
X193500Y305105D01*
Y306895D01*
X192815Y308549D01*
X191549Y309815D01*
X189895Y310500D01*
X188105D01*
X186451Y309815D01*
X185709Y309073D01*
X184748Y310033D01*
X183164Y310689D01*
D02*
G37*
G36*
X180624Y304490D02*
X176964D01*
X177621Y302905D01*
X179039Y301487D01*
X180624Y300831D01*
Y304490D01*
D02*
G37*
G36*
X469993Y300381D02*
Y296722D01*
X473652D01*
X472996Y298307D01*
X471578Y299724D01*
X469993Y300381D01*
D02*
G37*
G36*
X467453D02*
X465868Y299724D01*
X464450Y298307D01*
X463794Y296722D01*
X467453D01*
Y300381D01*
D02*
G37*
G36*
X328525Y306820D02*
X318666D01*
X319323Y305235D01*
X320298Y304260D01*
X319643Y303605D01*
X318958Y301951D01*
Y300160D01*
X319643Y298507D01*
X320909Y297241D01*
X322563Y296556D01*
X324353D01*
X326007Y297241D01*
X327272Y298507D01*
X327958Y300160D01*
Y301951D01*
X327272Y303605D01*
X326755Y304122D01*
X327868Y305235D01*
X328525Y306820D01*
D02*
G37*
G36*
X46214Y295880D02*
X44629Y295223D01*
X43211Y293806D01*
X42555Y292221D01*
X46214D01*
Y295880D01*
D02*
G37*
G36*
X473652Y294182D02*
X469993D01*
Y290522D01*
X471578Y291179D01*
X472996Y292597D01*
X473652Y294182D01*
D02*
G37*
G36*
X467453D02*
X463794D01*
X464450Y292597D01*
X465868Y291179D01*
X467453Y290522D01*
Y294182D01*
D02*
G37*
G36*
X424826Y293611D02*
Y289952D01*
X428485D01*
X427829Y291537D01*
X426411Y292955D01*
X424826Y293611D01*
D02*
G37*
G36*
X422286D02*
X420701Y292955D01*
X419284Y291537D01*
X418627Y289952D01*
X422286D01*
Y293611D01*
D02*
G37*
G36*
X484930Y297634D02*
X483140D01*
X481486Y296949D01*
X480220Y295683D01*
X479535Y294029D01*
Y292239D01*
X480220Y290585D01*
X481486Y289319D01*
X483140Y288634D01*
X484930D01*
X486584Y289319D01*
X487850Y290585D01*
X488535Y292239D01*
Y294029D01*
X487850Y295683D01*
X486584Y296949D01*
X484930Y297634D01*
D02*
G37*
G36*
X119286Y292198D02*
Y288539D01*
X122945D01*
X122289Y290124D01*
X120871Y291542D01*
X119286Y292198D01*
D02*
G37*
G36*
X116746D02*
X115161Y291542D01*
X113743Y290124D01*
X113087Y288539D01*
X116746D01*
Y292198D01*
D02*
G37*
G36*
X48754Y295880D02*
Y290951D01*
Y286021D01*
X50339Y286678D01*
X51600Y287939D01*
X52051Y287488D01*
X53705Y286803D01*
X55495D01*
X57149Y287488D01*
X58415Y288754D01*
X59100Y290408D01*
Y292198D01*
X58415Y293852D01*
X57149Y295118D01*
X55495Y295803D01*
X53705D01*
X52051Y295118D01*
X51248Y294315D01*
X50339Y295223D01*
X48754Y295880D01*
D02*
G37*
G36*
X46214Y289681D02*
X42555D01*
X43211Y288096D01*
X44629Y286678D01*
X46214Y286021D01*
Y289681D01*
D02*
G37*
G36*
X71422Y284910D02*
X69837Y284254D01*
X68419Y282836D01*
X67762Y281251D01*
X71422D01*
Y284910D01*
D02*
G37*
G36*
X428485Y287412D02*
X418627D01*
X418876Y286810D01*
X417668Y286309D01*
X416402Y285044D01*
X415717Y283390D01*
Y281599D01*
X416402Y279945D01*
X417668Y278680D01*
X419322Y277994D01*
X421112D01*
X422766Y278680D01*
X424032Y279945D01*
X424717Y281599D01*
Y283390D01*
X424604Y283661D01*
X426411Y284409D01*
X427829Y285827D01*
X428485Y287412D01*
D02*
G37*
G36*
X161459Y287204D02*
X159669D01*
X158015Y286518D01*
X156749Y285252D01*
X156064Y283599D01*
Y281808D01*
X156391Y281019D01*
X156190Y280719D01*
X154338Y279952D01*
X152920Y278534D01*
X152264Y276949D01*
X162122D01*
X161581Y278254D01*
X163113Y278889D01*
X164379Y280154D01*
X165064Y281808D01*
Y283599D01*
X164379Y285252D01*
X163113Y286518D01*
X161459Y287204D01*
D02*
G37*
G36*
X122945Y285999D02*
X113087D01*
X113743Y284414D01*
X114963Y283195D01*
X114525Y282757D01*
X113840Y281103D01*
Y279313D01*
X114525Y277659D01*
X115791Y276393D01*
X117445Y275708D01*
X119235D01*
X120889Y276393D01*
X122155Y277659D01*
X122840Y279313D01*
Y281103D01*
X122155Y282757D01*
X121393Y283519D01*
X122289Y284414D01*
X122945Y285999D01*
D02*
G37*
G36*
X73962Y284910D02*
Y279981D01*
Y275052D01*
X75546Y275708D01*
X76621Y276783D01*
X77413Y275991D01*
X79067Y275306D01*
X80858D01*
X82512Y275991D01*
X83777Y277257D01*
X84462Y278911D01*
Y280701D01*
X83777Y282355D01*
X82512Y283621D01*
X80858Y284306D01*
X79067D01*
X77413Y283621D01*
X76796Y283004D01*
X75546Y284254D01*
X73962Y284910D01*
D02*
G37*
G36*
X71422Y278711D02*
X67762D01*
X68419Y277126D01*
X69837Y275708D01*
X71422Y275052D01*
Y278711D01*
D02*
G37*
G36*
X475689Y278679D02*
X474104Y278022D01*
X472686Y276604D01*
X472029Y275019D01*
X475689D01*
Y278679D01*
D02*
G37*
G36*
X387204Y276034D02*
Y272375D01*
X390863D01*
X390207Y273960D01*
X388789Y275378D01*
X387204Y276034D01*
D02*
G37*
G36*
X384664D02*
X383079Y275378D01*
X381661Y273960D01*
X380894Y272107D01*
X380824Y272061D01*
X380495Y272197D01*
X378705D01*
X377051Y271512D01*
X375785Y270246D01*
X375100Y268592D01*
Y266802D01*
X375785Y265148D01*
X377051Y263882D01*
X378705Y263197D01*
X380495D01*
X382149Y263882D01*
X383415Y265148D01*
X383961Y266467D01*
X384664Y266176D01*
Y271105D01*
Y276034D01*
D02*
G37*
G36*
X46330Y273240D02*
X44745Y272583D01*
X43328Y271165D01*
X42671Y269580D01*
X46330D01*
Y273240D01*
D02*
G37*
G36*
X478229Y278679D02*
Y273750D01*
Y268820D01*
X479814Y269477D01*
X480986Y270650D01*
X481451Y270185D01*
X483105Y269500D01*
X484895D01*
X486549Y270185D01*
X487815Y271451D01*
X488500Y273105D01*
Y274895D01*
X487815Y276549D01*
X486549Y277815D01*
X484895Y278500D01*
X483105D01*
X481451Y277815D01*
X480736Y277100D01*
X479814Y278022D01*
X478229Y278679D01*
D02*
G37*
G36*
X475689Y272479D02*
X472029D01*
X472686Y270895D01*
X474104Y269477D01*
X475689Y268820D01*
Y272479D01*
D02*
G37*
G36*
X390863Y269835D02*
X387204D01*
Y266176D01*
X388789Y266832D01*
X390207Y268250D01*
X390863Y269835D01*
D02*
G37*
G36*
X48870Y273240D02*
Y268311D01*
Y263381D01*
X50455Y264038D01*
X51513Y265096D01*
X52170Y264439D01*
X53824Y263754D01*
X55614D01*
X57268Y264439D01*
X58534Y265705D01*
X59219Y267359D01*
Y269149D01*
X58534Y270803D01*
X57268Y272069D01*
X55614Y272754D01*
X53824D01*
X52170Y272069D01*
X51570Y271469D01*
X50455Y272583D01*
X48870Y273240D01*
D02*
G37*
G36*
X162122Y274409D02*
X152264D01*
X152920Y272824D01*
X154338Y271406D01*
X154441Y270889D01*
X154338Y270786D01*
X153653Y269132D01*
Y267342D01*
X154338Y265688D01*
X155604Y264422D01*
X157258Y263737D01*
X159048D01*
X160702Y264422D01*
X161968Y265688D01*
X162653Y267342D01*
Y269132D01*
X161968Y270786D01*
X161547Y271207D01*
X161466Y272824D01*
X161502Y272912D01*
X162122Y274409D01*
D02*
G37*
G36*
X46330Y267041D02*
X42671D01*
X43328Y265455D01*
X44745Y264038D01*
X46330Y263381D01*
Y267041D01*
D02*
G37*
G36*
X470855Y252685D02*
X469065D01*
X467411Y252000D01*
X466145Y250734D01*
X464600Y250323D01*
X463786Y250660D01*
Y245730D01*
Y240801D01*
X465371Y241458D01*
X466789Y242876D01*
X467408Y244370D01*
X467411Y244370D01*
X469065Y243685D01*
X470855D01*
X472509Y244370D01*
X473775Y245636D01*
X474460Y247290D01*
Y249081D01*
X473775Y250734D01*
X472509Y252000D01*
X470855Y252685D01*
D02*
G37*
G36*
X461246Y250660D02*
X459661Y250003D01*
X458243Y248585D01*
X457587Y247001D01*
X461246D01*
Y250660D01*
D02*
G37*
G36*
Y244461D02*
X457587D01*
X458243Y242876D01*
X459661Y241458D01*
X461246Y240801D01*
Y244461D01*
D02*
G37*
G36*
X368027Y244145D02*
Y240486D01*
X371686D01*
X371030Y242071D01*
X369612Y243488D01*
X368027Y244145D01*
D02*
G37*
G36*
X365487D02*
X363902Y243488D01*
X362484Y242071D01*
X361828Y240486D01*
X365487D01*
Y244145D01*
D02*
G37*
G36*
X42997Y241557D02*
Y237898D01*
X46656D01*
X46000Y239483D01*
X44582Y240900D01*
X42997Y241557D01*
D02*
G37*
G36*
X40457D02*
X38872Y240900D01*
X37455Y239483D01*
X36798Y237898D01*
X40457D01*
Y241557D01*
D02*
G37*
G36*
X371686Y237946D02*
X368027D01*
Y234286D01*
X369612Y234943D01*
X371030Y236361D01*
X371686Y237946D01*
D02*
G37*
G36*
X365487D02*
X361828D01*
X362484Y236361D01*
X363902Y234943D01*
X365487Y234286D01*
Y237946D01*
D02*
G37*
G36*
X46656Y235358D02*
X42997D01*
Y231698D01*
X44582Y232355D01*
X46000Y233773D01*
X46656Y235358D01*
D02*
G37*
G36*
X40457D02*
X36798D01*
X37455Y233773D01*
X38872Y232355D01*
X40457Y231698D01*
Y235358D01*
D02*
G37*
G36*
X106295Y237453D02*
X104505D01*
X102851Y236768D01*
X101585Y235502D01*
X100900Y233848D01*
Y232058D01*
X100514Y231480D01*
X100427D01*
X98574Y230713D01*
X97156Y229295D01*
X96500Y227710D01*
X106619D01*
X107260Y228853D01*
X107949Y229138D01*
X109215Y230404D01*
X109900Y232058D01*
Y233848D01*
X109215Y235502D01*
X107949Y236768D01*
X106295Y237453D01*
D02*
G37*
G36*
X68345Y237897D02*
X66555D01*
X64901Y237212D01*
X63636Y235947D01*
X62950Y234293D01*
Y232502D01*
X63501Y231173D01*
X62318Y230683D01*
X60900Y229265D01*
X60244Y227680D01*
X70102D01*
X69900Y228167D01*
X69999Y229583D01*
X71265Y230849D01*
X71950Y232502D01*
Y234293D01*
X71265Y235947D01*
X69999Y237212D01*
X68345Y237897D01*
D02*
G37*
G36*
X301710Y228106D02*
Y221910D01*
X307906D01*
X307466Y223550D01*
X306474Y225270D01*
X305070Y226674D01*
X303350Y227666D01*
X301710Y228106D01*
D02*
G37*
G36*
X299170D02*
X297530Y227666D01*
X295810Y226674D01*
X294407Y225270D01*
X293414Y223550D01*
X292974Y221910D01*
X299170D01*
Y228106D01*
D02*
G37*
G36*
X250910D02*
Y221910D01*
X257106D01*
X256666Y223550D01*
X255674Y225270D01*
X254270Y226674D01*
X252550Y227666D01*
X250910Y228106D01*
D02*
G37*
G36*
X248370D02*
X246730Y227666D01*
X245010Y226674D01*
X243606Y225270D01*
X242614Y223550D01*
X242174Y221910D01*
X248370D01*
Y228106D01*
D02*
G37*
G36*
X106358Y225170D02*
X102699D01*
Y221511D01*
X104284Y222167D01*
X105702Y223585D01*
X106358Y225170D01*
D02*
G37*
G36*
X100159D02*
X96500D01*
X97156Y223585D01*
X98574Y222167D01*
X100159Y221511D01*
Y225170D01*
D02*
G37*
G36*
X70102Y225140D02*
X66443D01*
Y221481D01*
X68028Y222137D01*
X69445Y223555D01*
X70102Y225140D01*
D02*
G37*
G36*
X63903D02*
X60244D01*
X60900Y223555D01*
X62318Y222137D01*
X63903Y221481D01*
Y225140D01*
D02*
G37*
G36*
X432066Y219604D02*
X430481Y218948D01*
X429063Y217530D01*
X428407Y215945D01*
X432066D01*
Y219604D01*
D02*
G37*
G36*
X275962Y227640D02*
X274118D01*
X272338Y227163D01*
X270742Y226241D01*
X269439Y224938D01*
X268517Y223342D01*
X268040Y221562D01*
Y219718D01*
X268517Y217938D01*
X269439Y216342D01*
X270742Y215039D01*
X272338Y214117D01*
X274118Y213640D01*
X275962D01*
X277742Y214117D01*
X279338Y215039D01*
X280641Y216342D01*
X281563Y217938D01*
X282040Y219718D01*
Y221562D01*
X281563Y223342D01*
X280641Y224938D01*
X279338Y226241D01*
X277742Y227163D01*
X275962Y227640D01*
D02*
G37*
G36*
X225162D02*
X223319D01*
X221538Y227163D01*
X219942Y226241D01*
X218639Y224938D01*
X217717Y223342D01*
X217240Y221562D01*
Y219718D01*
X217717Y217938D01*
X218639Y216342D01*
X219942Y215039D01*
X221538Y214117D01*
X223319Y213640D01*
X225162D01*
X226942Y214117D01*
X228538Y215039D01*
X229841Y216342D01*
X230763Y217938D01*
X231240Y219718D01*
Y221562D01*
X230763Y223342D01*
X229841Y224938D01*
X228538Y226241D01*
X226942Y227163D01*
X225162Y227640D01*
D02*
G37*
G36*
X205840D02*
X191840D01*
Y213640D01*
X205840D01*
Y227640D01*
D02*
G37*
G36*
X307906Y219370D02*
X301710D01*
Y213174D01*
X303350Y213614D01*
X305070Y214606D01*
X306474Y216010D01*
X307466Y217730D01*
X307906Y219370D01*
D02*
G37*
G36*
X299170D02*
X292974D01*
X293414Y217730D01*
X294407Y216010D01*
X295810Y214606D01*
X297530Y213614D01*
X299170Y213174D01*
Y219370D01*
D02*
G37*
G36*
X257106D02*
X250910D01*
Y213174D01*
X252550Y213614D01*
X254270Y214606D01*
X255674Y216010D01*
X256666Y217730D01*
X257106Y219370D01*
D02*
G37*
G36*
X248370D02*
X242174D01*
X242614Y217730D01*
X243606Y216010D01*
X245010Y214606D01*
X246730Y213614D01*
X248370Y213174D01*
Y219370D01*
D02*
G37*
G36*
X350406Y219800D02*
X348616D01*
X346962Y219115D01*
X345696Y217849D01*
X345011Y216195D01*
Y214405D01*
X345696Y212751D01*
X346962Y211485D01*
X348616Y210800D01*
X350406D01*
X352061Y211485D01*
X353326Y212751D01*
X354011Y214405D01*
Y216195D01*
X353326Y217849D01*
X352061Y219115D01*
X350406Y219800D01*
D02*
G37*
G36*
X434606Y219604D02*
Y214675D01*
Y209746D01*
X436191Y210402D01*
X437417Y211629D01*
X438274Y210772D01*
X439928Y210087D01*
X441718D01*
X443372Y210772D01*
X444638Y212038D01*
X445323Y213692D01*
Y215482D01*
X444638Y217136D01*
X443372Y218402D01*
X441718Y219087D01*
X439928D01*
X438274Y218402D01*
X437505Y217633D01*
X436191Y218948D01*
X434606Y219604D01*
D02*
G37*
G36*
X432066Y213405D02*
X428407D01*
X429063Y211820D01*
X430481Y210402D01*
X432066Y209746D01*
Y213405D01*
D02*
G37*
G36*
X93399Y211185D02*
X91608D01*
X89954Y210500D01*
X88892Y209438D01*
X88311Y210018D01*
X86726Y210675D01*
Y205746D01*
Y200816D01*
X88311Y201473D01*
X88962Y202124D01*
X89954Y202871D01*
X91608Y202185D01*
X93399D01*
X95052Y202871D01*
X96318Y204136D01*
X97003Y205790D01*
Y207581D01*
X96318Y209235D01*
X95052Y210500D01*
X93399Y211185D01*
D02*
G37*
G36*
X123338Y211506D02*
X121753Y210849D01*
X120335Y209431D01*
X119763Y208050D01*
X118782Y208456D01*
X116991D01*
X115337Y207771D01*
X114072Y206505D01*
X113386Y204851D01*
Y203061D01*
X114072Y201407D01*
X115337Y200141D01*
X116991Y199456D01*
X118782D01*
X120435Y200141D01*
X121701Y201407D01*
X122026Y202191D01*
X123338Y201647D01*
Y206576D01*
Y211506D01*
D02*
G37*
G36*
X125878D02*
Y207846D01*
X129537D01*
X128880Y209431D01*
X127463Y210849D01*
X125878Y211506D01*
D02*
G37*
G36*
X47338Y211364D02*
X45753Y210707D01*
X44335Y209289D01*
X43679Y207705D01*
X47338D01*
Y211364D01*
D02*
G37*
G36*
X84186Y210675D02*
X82601Y210018D01*
X81184Y208600D01*
X80527Y207015D01*
X84186D01*
Y210675D01*
D02*
G37*
G36*
X243039Y207425D02*
X241455Y206769D01*
X240483Y205797D01*
X238931Y205748D01*
X238758Y205921D01*
X237104Y206607D01*
X235314D01*
X233660Y205921D01*
X232394Y204656D01*
X231709Y203002D01*
Y201211D01*
X232394Y199557D01*
X233660Y198292D01*
X235314Y197607D01*
X237104D01*
X238758Y198292D01*
X240024Y199557D01*
X240104Y199574D01*
X241455Y198223D01*
X243039Y197567D01*
Y202496D01*
Y207425D01*
D02*
G37*
G36*
X245579D02*
Y203766D01*
X249239D01*
X248582Y205351D01*
X247164Y206769D01*
X245579Y207425D01*
D02*
G37*
G36*
X129537Y205306D02*
X125878D01*
Y201647D01*
X127463Y202304D01*
X128880Y203722D01*
X129537Y205306D01*
D02*
G37*
G36*
X47338Y205165D02*
X43679D01*
X44335Y203580D01*
X45753Y202162D01*
X47338Y201505D01*
Y205165D01*
D02*
G37*
G36*
X84186Y204475D02*
X80527D01*
X81184Y202891D01*
X82601Y201473D01*
X84186Y200816D01*
Y204475D01*
D02*
G37*
G36*
X49878Y211364D02*
Y206435D01*
Y201505D01*
X50101Y201598D01*
X50785Y199946D01*
X52051Y198680D01*
X53705Y197995D01*
X55495D01*
X57149Y198680D01*
X58415Y199946D01*
X59100Y201600D01*
Y203390D01*
X58415Y205044D01*
X57149Y206310D01*
X55495Y206995D01*
X53705D01*
X53648Y207033D01*
Y207437D01*
X52881Y209289D01*
X51463Y210707D01*
X49878Y211364D01*
D02*
G37*
G36*
X249239Y201226D02*
X245579D01*
Y197567D01*
X247164Y198223D01*
X248582Y199641D01*
X249239Y201226D01*
D02*
G37*
G36*
X139664Y205285D02*
X137873D01*
X136219Y204600D01*
X134954Y203335D01*
X134269Y201681D01*
Y199890D01*
X134954Y198236D01*
X136219Y196971D01*
X137873Y196285D01*
X139664D01*
X141318Y196971D01*
X142583Y198236D01*
X143268Y199890D01*
Y201681D01*
X142583Y203335D01*
X141318Y204600D01*
X139664Y205285D01*
D02*
G37*
G36*
X154302Y192049D02*
Y188390D01*
X157962D01*
X157305Y189975D01*
X155887Y191393D01*
X154302Y192049D01*
D02*
G37*
G36*
X151762D02*
X150177Y191393D01*
X148760Y189975D01*
X148103Y188390D01*
X151762D01*
Y192049D01*
D02*
G37*
G36*
X441482Y197520D02*
X439691D01*
X438037Y196835D01*
X436772Y195569D01*
X436087Y193915D01*
Y192510D01*
X434303D01*
X432451Y191742D01*
X431033Y190324D01*
X430290Y188530D01*
X430230Y188493D01*
X430006Y188409D01*
X428996Y188165D01*
X428004Y189157D01*
X426350Y189842D01*
X424560D01*
X422906Y189157D01*
X421640Y187891D01*
X420955Y186237D01*
Y184447D01*
X421640Y182793D01*
X422906Y181527D01*
X424560Y180842D01*
X426350D01*
X428004Y181527D01*
X429270Y182793D01*
X429841Y184173D01*
X430449Y184398D01*
X430668Y184437D01*
X431218Y184430D01*
X432451Y183197D01*
X434036Y182540D01*
Y187470D01*
X436576D01*
Y182540D01*
X438161Y183197D01*
X439578Y184615D01*
X440346Y186467D01*
Y188472D01*
X441232Y188520D01*
X441482D01*
X443135Y189205D01*
X444401Y190471D01*
X445087Y192125D01*
Y193915D01*
X444401Y195569D01*
X443135Y196835D01*
X441482Y197520D01*
D02*
G37*
G36*
X339083Y194481D02*
X337293D01*
X335639Y193796D01*
X334373Y192530D01*
X333688Y190876D01*
Y189086D01*
X334373Y187432D01*
X335639Y186166D01*
X337293Y185481D01*
X339083D01*
X340737Y186166D01*
X342003Y187432D01*
X342688Y189086D01*
Y190876D01*
X342003Y192530D01*
X340737Y193796D01*
X339083Y194481D01*
D02*
G37*
G36*
X385375Y192003D02*
X383585D01*
X381931Y191317D01*
X380665Y190051D01*
X379980Y188398D01*
Y186607D01*
X380665Y184953D01*
X381931Y183688D01*
X383585Y183002D01*
X385375D01*
X387029Y183688D01*
X388295Y184953D01*
X388980Y186607D01*
Y188398D01*
X388295Y190051D01*
X387029Y191317D01*
X385375Y192003D01*
D02*
G37*
G36*
X316141Y186220D02*
X312482D01*
Y182561D01*
X314067Y183218D01*
X315485Y184635D01*
X316141Y186220D01*
D02*
G37*
G36*
X157962Y185850D02*
X154302D01*
Y182191D01*
X155887Y182847D01*
X157305Y184265D01*
X157962Y185850D01*
D02*
G37*
G36*
X151762D02*
X148103D01*
X148760Y184265D01*
X150177Y182847D01*
X151762Y182191D01*
Y185850D01*
D02*
G37*
G36*
X315602Y198581D02*
X313811D01*
X312157Y197896D01*
X310892Y196630D01*
X310207Y194977D01*
Y193186D01*
X310375Y192779D01*
X310209Y192530D01*
X308357Y191763D01*
X306939Y190345D01*
X306172Y188493D01*
Y187563D01*
X305876Y187365D01*
X304086D01*
X302432Y186680D01*
X301166Y185414D01*
X300481Y183760D01*
Y181970D01*
X301166Y180316D01*
X302432Y179050D01*
X304086Y178365D01*
X305876D01*
X307530Y179050D01*
X308796Y180316D01*
X309271Y181464D01*
X309942Y182169D01*
Y187490D01*
X311212D01*
Y188760D01*
X316141D01*
X315772Y189652D01*
X317256Y190266D01*
X318521Y191532D01*
X319207Y193186D01*
Y194977D01*
X318521Y196630D01*
X317256Y197896D01*
X315602Y198581D01*
D02*
G37*
G36*
X321336Y176185D02*
Y172526D01*
X324995D01*
X324339Y174111D01*
X322921Y175529D01*
X321336Y176185D01*
D02*
G37*
G36*
X318796D02*
X317211Y175529D01*
X315793Y174111D01*
X315137Y172526D01*
X318796D01*
Y176185D01*
D02*
G37*
G36*
X472270Y176109D02*
Y172450D01*
X475929D01*
X475273Y174035D01*
X473855Y175453D01*
X472270Y176109D01*
D02*
G37*
G36*
X469730D02*
X468145Y175453D01*
X466727Y174035D01*
X466071Y172450D01*
X469730D01*
Y176109D01*
D02*
G37*
G36*
X405167D02*
Y172450D01*
X408826D01*
X408170Y174035D01*
X406752Y175453D01*
X405167Y176109D01*
D02*
G37*
G36*
X402627D02*
X401042Y175453D01*
X399624Y174035D01*
X398968Y172450D01*
X402627D01*
Y176109D01*
D02*
G37*
G36*
X72759Y172245D02*
X71174Y171588D01*
X69756Y170171D01*
X69100Y168586D01*
X72759D01*
Y172245D01*
D02*
G37*
G36*
X324995Y169986D02*
X321336D01*
Y166327D01*
X322921Y166983D01*
X324339Y168401D01*
X324995Y169986D01*
D02*
G37*
G36*
X318796D02*
X315137D01*
X315793Y168401D01*
X317211Y166983D01*
X318796Y166327D01*
Y169986D01*
D02*
G37*
G36*
X408826Y169910D02*
X405167D01*
Y166251D01*
X406752Y166907D01*
X408170Y168325D01*
X408826Y169910D01*
D02*
G37*
G36*
X402627D02*
X398968D01*
X399624Y168325D01*
X401042Y166907D01*
X402627Y166251D01*
Y169910D01*
D02*
G37*
G36*
X80895Y176515D02*
X79105D01*
X77451Y175830D01*
X76185Y174564D01*
X75721Y173444D01*
X75299Y172778D01*
Y167316D01*
Y162386D01*
X76884Y163043D01*
X78302Y164461D01*
X79069Y166313D01*
Y167491D01*
X79105Y167515D01*
X80895D01*
X82549Y168200D01*
X83815Y169466D01*
X84500Y171120D01*
Y172910D01*
X83815Y174564D01*
X82549Y175830D01*
X80895Y176515D01*
D02*
G37*
G36*
X72759Y166046D02*
X69100D01*
X69756Y164461D01*
X71174Y163043D01*
X72759Y162386D01*
Y166046D01*
D02*
G37*
G36*
X475929Y169910D02*
X466071D01*
X466727Y168325D01*
X468145Y166907D01*
X469830Y166209D01*
X469567Y165575D01*
Y163785D01*
X470252Y162131D01*
X471518Y160865D01*
X473172Y160180D01*
X474962D01*
X476616Y160865D01*
X477882Y162131D01*
X478567Y163785D01*
Y165575D01*
X477882Y167229D01*
X476616Y168495D01*
X475530Y168945D01*
X475929Y169910D01*
D02*
G37*
G36*
X388053Y163242D02*
X384393D01*
X385050Y161658D01*
X386468Y160240D01*
X388053Y159583D01*
Y163242D01*
D02*
G37*
G36*
X431465Y161906D02*
Y158247D01*
X435125D01*
X434468Y159832D01*
X433050Y161250D01*
X431465Y161906D01*
D02*
G37*
G36*
X384871Y175186D02*
X383080D01*
X381427Y174501D01*
X380161Y173235D01*
X379476Y171581D01*
Y169791D01*
X380161Y168137D01*
X381427Y166871D01*
X383080Y166186D01*
X383834D01*
X384104Y165782D01*
X389323D01*
Y164512D01*
X390593D01*
Y159583D01*
X391984Y160160D01*
X392626Y158609D01*
X393892Y157343D01*
X395546Y156657D01*
X397337D01*
X398990Y157343D01*
X400256Y158609D01*
X400941Y160262D01*
Y162053D01*
X400256Y163707D01*
X398990Y164972D01*
X397337Y165658D01*
X395546D01*
X394684Y165300D01*
X394363Y165515D01*
X393595Y167367D01*
X392178Y168785D01*
X390325Y169552D01*
X388635D01*
X388476Y169791D01*
Y171581D01*
X387790Y173235D01*
X386525Y174501D01*
X384871Y175186D01*
D02*
G37*
G36*
X102728Y158764D02*
Y155105D01*
X106387D01*
X105730Y156690D01*
X104313Y158107D01*
X102728Y158764D01*
D02*
G37*
G36*
X100188D02*
X98603Y158107D01*
X97185Y156690D01*
X96529Y155105D01*
X100188D01*
Y158764D01*
D02*
G37*
G36*
X87731Y157870D02*
Y154211D01*
X91390D01*
X90734Y155796D01*
X89316Y157214D01*
X87731Y157870D01*
D02*
G37*
G36*
X288895Y164500D02*
X287105D01*
X285451Y163815D01*
X284185Y162549D01*
X283500Y160895D01*
Y159105D01*
X284185Y157451D01*
X284121Y157126D01*
X283930Y157047D01*
X282512Y155629D01*
X281856Y154045D01*
X291714D01*
X291232Y155209D01*
X291057Y155629D01*
X291423Y157059D01*
X291815Y157451D01*
X292500Y159105D01*
Y160895D01*
X291815Y162549D01*
X290549Y163815D01*
X288895Y164500D01*
D02*
G37*
G36*
X275935Y154538D02*
X274145D01*
X272491Y153853D01*
X271225Y152587D01*
X270856Y152773D01*
X270744Y152885D01*
X269159Y153542D01*
Y148612D01*
Y143683D01*
X270744Y144340D01*
X272162Y145758D01*
X272342Y146194D01*
X272491Y146223D01*
X274145Y145538D01*
X275935D01*
X277589Y146223D01*
X278855Y147489D01*
X279540Y149143D01*
Y150933D01*
X278855Y152587D01*
X277589Y153853D01*
X275935Y154538D01*
D02*
G37*
G36*
X435125Y155707D02*
X431465D01*
Y152048D01*
X433050Y152704D01*
X434468Y154122D01*
X435125Y155707D01*
D02*
G37*
G36*
X424581Y164552D02*
X422791D01*
X421137Y163867D01*
X419871Y162601D01*
X419186Y160947D01*
Y159157D01*
X419871Y157503D01*
X421137Y156237D01*
X422791Y155552D01*
X424581D01*
X425220Y155817D01*
X425923Y154122D01*
X427340Y152704D01*
X428925Y152048D01*
Y156977D01*
Y161906D01*
X427956Y161504D01*
X427501Y162601D01*
X426236Y163867D01*
X424581Y164552D01*
D02*
G37*
G36*
X305837Y153828D02*
X304047D01*
X302393Y153143D01*
X301127Y151877D01*
X300451Y150245D01*
X300259Y150324D01*
Y145395D01*
Y140466D01*
X301844Y141123D01*
X303262Y142540D01*
X304029Y144393D01*
Y144816D01*
X304047Y144828D01*
X305837D01*
X307491Y145513D01*
X308757Y146779D01*
X309442Y148433D01*
Y150223D01*
X308757Y151877D01*
X307491Y153143D01*
X305837Y153828D01*
D02*
G37*
G36*
X266619Y153542D02*
X265034Y152885D01*
X263616Y151468D01*
X262960Y149882D01*
X266619D01*
Y153542D01*
D02*
G37*
G36*
X91390Y151671D02*
X87731D01*
Y148012D01*
X89316Y148668D01*
X90734Y150086D01*
X91390Y151671D01*
D02*
G37*
G36*
X291714Y151504D02*
X288055D01*
Y147845D01*
X289640Y148502D01*
X291057Y149920D01*
X291714Y151504D01*
D02*
G37*
G36*
X285515D02*
X281856D01*
X282512Y149920D01*
X283930Y148502D01*
X285515Y147845D01*
Y151504D01*
D02*
G37*
G36*
X297719Y150324D02*
X296134Y149668D01*
X294716Y148250D01*
X294060Y146665D01*
X297719D01*
Y150324D01*
D02*
G37*
G36*
X85191Y157870D02*
X83606Y157214D01*
X82188Y155796D01*
X81421Y153944D01*
Y153329D01*
X80895Y152977D01*
X79105D01*
X77451Y152292D01*
X76185Y151026D01*
X75500Y149372D01*
Y147582D01*
X76185Y145928D01*
X77451Y144662D01*
X79105Y143977D01*
X80895D01*
X82549Y144662D01*
X83815Y145928D01*
X84267Y147020D01*
X85191Y147703D01*
Y152941D01*
Y157870D01*
D02*
G37*
G36*
X266619Y147343D02*
X262960D01*
X263616Y145758D01*
X265034Y144340D01*
X266619Y143683D01*
Y147343D01*
D02*
G37*
G36*
X106818Y152564D02*
X96529D01*
X97185Y150980D01*
X98603Y149562D01*
X100455Y148794D01*
X100979D01*
Y147058D01*
X101664Y145403D01*
X102930Y144138D01*
X104584Y143453D01*
X106374D01*
X108028Y144138D01*
X109294Y145403D01*
X109979Y147058D01*
Y148848D01*
X109294Y150502D01*
X108028Y151768D01*
X107519Y151978D01*
X106818Y152564D01*
D02*
G37*
G36*
X134032Y145070D02*
Y141411D01*
X137691D01*
X137034Y142996D01*
X135617Y144414D01*
X134032Y145070D01*
D02*
G37*
G36*
X131492D02*
X129907Y144414D01*
X128489Y142996D01*
X127832Y141411D01*
X131492D01*
Y145070D01*
D02*
G37*
G36*
X297719Y144125D02*
X294060D01*
X294716Y142540D01*
X296134Y141123D01*
X297719Y140466D01*
Y144125D01*
D02*
G37*
G36*
X325880Y138378D02*
X324090D01*
X322436Y137693D01*
X321170Y136427D01*
X320485Y134774D01*
Y132983D01*
X320489Y132973D01*
X320353Y132769D01*
X318501Y132002D01*
X317083Y130584D01*
X316426Y128999D01*
X326285D01*
X326091Y129466D01*
X327534Y130063D01*
X328800Y131329D01*
X329485Y132983D01*
Y134774D01*
X328800Y136427D01*
X327534Y137693D01*
X325880Y138378D01*
D02*
G37*
G36*
X137691Y138871D02*
X127832D01*
X128489Y137286D01*
X129369Y136407D01*
X128391Y135429D01*
X127706Y133775D01*
Y131985D01*
X128391Y130331D01*
X129657Y129065D01*
X131311Y128380D01*
X133101D01*
X134755Y129065D01*
X136021Y130331D01*
X136706Y131985D01*
Y133775D01*
X136021Y135429D01*
X135611Y135839D01*
X135617Y135869D01*
X137034Y137286D01*
X137691Y138871D01*
D02*
G37*
G36*
X365967Y138378D02*
X364176D01*
X362523Y137693D01*
X361257Y136427D01*
X360572Y134774D01*
Y132983D01*
X361257Y131329D01*
X362523Y130063D01*
X362224Y128813D01*
X362022Y128325D01*
X371880D01*
X371224Y129910D01*
X369806Y131328D01*
X369021Y131653D01*
X369572Y132983D01*
Y134774D01*
X368886Y136427D01*
X367621Y137693D01*
X365967Y138378D01*
D02*
G37*
G36*
X180895Y137380D02*
X179105D01*
X177451Y136695D01*
X176185Y135429D01*
X175500Y133775D01*
Y131985D01*
X176185Y130331D01*
X177451Y129065D01*
X177087Y127841D01*
X176770Y127074D01*
X186628D01*
X185971Y128659D01*
X184554Y130076D01*
X183833Y130375D01*
X184500Y131985D01*
Y133775D01*
X183815Y135429D01*
X182549Y136695D01*
X180895Y137380D01*
D02*
G37*
G36*
X326285Y126459D02*
X322626D01*
Y122800D01*
X324211Y123457D01*
X325628Y124874D01*
X326285Y126459D01*
D02*
G37*
G36*
X320086D02*
X316426D01*
X317083Y124874D01*
X318501Y123457D01*
X320086Y122800D01*
Y126459D01*
D02*
G37*
G36*
X371880Y125785D02*
X368221D01*
Y122126D01*
X369806Y122782D01*
X371224Y124200D01*
X371880Y125785D01*
D02*
G37*
G36*
X365681D02*
X362022D01*
X362678Y124200D01*
X364096Y122782D01*
X365681Y122126D01*
Y125785D01*
D02*
G37*
G36*
X186628Y124534D02*
X182969D01*
Y120875D01*
X184554Y121531D01*
X185971Y122949D01*
X186628Y124534D01*
D02*
G37*
G36*
X180429D02*
X176770D01*
X177426Y122949D01*
X178844Y121531D01*
X180429Y120875D01*
Y124534D01*
D02*
G37*
G36*
X43170Y121316D02*
Y117656D01*
X46829D01*
X46173Y119241D01*
X44755Y120659D01*
X43170Y121316D01*
D02*
G37*
G36*
X40630D02*
X39045Y120659D01*
X37627Y119241D01*
X36971Y117656D01*
X40630D01*
Y121316D01*
D02*
G37*
G36*
X46829Y115117D02*
X43170D01*
Y111457D01*
X44755Y112114D01*
X46173Y113532D01*
X46829Y115117D01*
D02*
G37*
G36*
X40630D02*
X36971D01*
X37627Y113532D01*
X39045Y112114D01*
X40630Y111457D01*
Y115117D01*
D02*
G37*
G36*
X164557Y118215D02*
X162766D01*
X161112Y117530D01*
X159846Y116264D01*
X159162Y114610D01*
Y112820D01*
X159846Y111166D01*
X161105Y109908D01*
X160719Y109522D01*
X160062Y107937D01*
X169921D01*
X169264Y109522D01*
X168417Y110370D01*
X167847Y110940D01*
X167904Y112197D01*
X168161Y112820D01*
Y114610D01*
X167476Y116264D01*
X166210Y117530D01*
X164557Y118215D01*
D02*
G37*
G36*
X134315D02*
X132525D01*
X130871Y117530D01*
X129605Y116264D01*
X128920Y114610D01*
Y112820D01*
X129602Y111172D01*
X128899Y110881D01*
X127482Y109463D01*
X126825Y107878D01*
X136684D01*
X136350Y108683D01*
X135969Y109900D01*
X137235Y111166D01*
X137920Y112820D01*
Y114610D01*
X137235Y116264D01*
X135969Y117530D01*
X134315Y118215D01*
D02*
G37*
G36*
X304345Y115551D02*
X302554D01*
X300900Y114866D01*
X299635Y113601D01*
X298950Y111946D01*
Y110156D01*
X299635Y108502D01*
X300900Y107236D01*
X302554Y106551D01*
X304345D01*
X305998Y107236D01*
X307264Y108502D01*
X307949Y110156D01*
Y111946D01*
X307264Y113601D01*
X305998Y114866D01*
X304345Y115551D01*
D02*
G37*
G36*
X428693Y114757D02*
X426903D01*
X425249Y114072D01*
X423983Y112806D01*
X423298Y111152D01*
Y109362D01*
X423983Y107708D01*
X425249Y106442D01*
X426903Y105757D01*
X428693D01*
X430347Y106442D01*
X431613Y107708D01*
X432298Y109362D01*
Y111152D01*
X431613Y112806D01*
X430347Y114072D01*
X428693Y114757D01*
D02*
G37*
G36*
X169921Y105397D02*
X166262D01*
Y101738D01*
X167847Y102395D01*
X169264Y103812D01*
X169921Y105397D01*
D02*
G37*
G36*
X163722D02*
X160062D01*
X160719Y103812D01*
X162137Y102395D01*
X163722Y101738D01*
Y105397D01*
D02*
G37*
G36*
X136684Y105338D02*
X133024D01*
Y101679D01*
X134609Y102335D01*
X136027Y103753D01*
X136684Y105338D01*
D02*
G37*
G36*
X130484D02*
X126825D01*
X127482Y103753D01*
X128899Y102335D01*
X130484Y101679D01*
Y105338D01*
D02*
G37*
G36*
X280529Y101485D02*
Y97825D01*
X284188D01*
X283532Y99410D01*
X282114Y100828D01*
X280529Y101485D01*
D02*
G37*
G36*
X277989D02*
X276404Y100828D01*
X274986Y99410D01*
X274330Y97825D01*
X277989D01*
Y101485D01*
D02*
G37*
G36*
X405449Y101429D02*
Y97770D01*
X409109D01*
X408452Y99355D01*
X407034Y100773D01*
X405449Y101429D01*
D02*
G37*
G36*
X402910D02*
X401325Y100773D01*
X399907Y99355D01*
X399250Y97770D01*
X402910D01*
Y101429D01*
D02*
G37*
G36*
X284188Y95285D02*
X280529D01*
Y91626D01*
X282114Y92283D01*
X283532Y93700D01*
X284188Y95285D01*
D02*
G37*
G36*
X277989D02*
X274330D01*
X274986Y93700D01*
X276404Y92283D01*
X277989Y91626D01*
Y95285D01*
D02*
G37*
G36*
X409109Y95230D02*
X405449D01*
Y91571D01*
X407034Y92227D01*
X408452Y93645D01*
X409109Y95230D01*
D02*
G37*
G36*
X402910D02*
X399250D01*
X399907Y93645D01*
X401325Y92227D01*
X402910Y91571D01*
Y95230D01*
D02*
G37*
G36*
X349562Y94372D02*
X347772D01*
X346118Y93687D01*
X344852Y92421D01*
X344167Y90767D01*
Y88977D01*
X344852Y87323D01*
X346118Y86057D01*
X347239Y85593D01*
X346892Y84756D01*
X356751D01*
X356094Y86341D01*
X354677Y87759D01*
X352958Y88471D01*
X353167Y88977D01*
Y90767D01*
X352482Y92421D01*
X351216Y93687D01*
X349562Y94372D01*
D02*
G37*
G36*
X83144Y84929D02*
Y81270D01*
X86803D01*
X86146Y82855D01*
X84729Y84273D01*
X83144Y84929D01*
D02*
G37*
G36*
X80604D02*
X79019Y84273D01*
X77601Y82855D01*
X76944Y81270D01*
X80604D01*
Y84929D01*
D02*
G37*
G36*
X481450Y94500D02*
X479660D01*
X478006Y93815D01*
X476740Y92549D01*
X476055Y90895D01*
Y89665D01*
X474230D01*
X472377Y88897D01*
X470959Y87480D01*
X470303Y85895D01*
X475232D01*
Y84625D01*
X476502D01*
Y79695D01*
X478087Y80352D01*
X479505Y81770D01*
X480272Y83622D01*
Y85500D01*
X481450D01*
X483104Y86185D01*
X484370Y87451D01*
X485055Y89105D01*
Y90895D01*
X484370Y92549D01*
X483104Y93815D01*
X481450Y94500D01*
D02*
G37*
G36*
X473962Y83355D02*
X470303D01*
X470959Y81770D01*
X472377Y80352D01*
X473962Y79695D01*
Y83355D01*
D02*
G37*
G36*
X356751Y82216D02*
X353092D01*
Y78557D01*
X354677Y79214D01*
X356094Y80631D01*
X356751Y82216D01*
D02*
G37*
G36*
X350551D02*
X346892D01*
X347549Y80631D01*
X348967Y79214D01*
X350551Y78557D01*
Y82216D01*
D02*
G37*
G36*
X427169Y88000D02*
X425379D01*
X423725Y87315D01*
X422459Y86049D01*
X421774Y84395D01*
Y82605D01*
X422459Y80951D01*
X423179Y80231D01*
X421971Y79023D01*
X421315Y77438D01*
X431173D01*
X430517Y79023D01*
X429339Y80201D01*
X430089Y80951D01*
X430774Y82605D01*
Y84395D01*
X430089Y86049D01*
X428823Y87315D01*
X427169Y88000D01*
D02*
G37*
G36*
X255883Y80211D02*
Y76551D01*
X259543D01*
X258886Y78136D01*
X257468Y79554D01*
X255883Y80211D01*
D02*
G37*
G36*
X59290Y84500D02*
X57500D01*
X55846Y83815D01*
X54580Y82549D01*
X53895Y80895D01*
Y79105D01*
X54580Y77451D01*
X55846Y76185D01*
X57500Y75500D01*
X59290D01*
X60944Y76185D01*
X62210Y77451D01*
X62895Y79105D01*
Y80895D01*
X62210Y82549D01*
X60944Y83815D01*
X59290Y84500D01*
D02*
G37*
G36*
X86803Y78730D02*
X83144D01*
Y75071D01*
X84729Y75727D01*
X86146Y77145D01*
X86803Y78730D01*
D02*
G37*
G36*
X80604D02*
X76944D01*
X77601Y77145D01*
X79019Y75727D01*
X80604Y75071D01*
Y78730D01*
D02*
G37*
G36*
X431173Y74898D02*
X427514D01*
Y71239D01*
X429099Y71895D01*
X430517Y73313D01*
X431173Y74898D01*
D02*
G37*
G36*
X424974D02*
X421315D01*
X421971Y73313D01*
X423389Y71895D01*
X424974Y71239D01*
Y74898D01*
D02*
G37*
G36*
X226110Y72912D02*
X224525Y72255D01*
X223370Y71101D01*
X222549Y71921D01*
X220895Y72607D01*
X219105D01*
X217451Y71921D01*
X216185Y70656D01*
X215500Y69002D01*
Y67211D01*
X216185Y65557D01*
X217451Y64292D01*
X219105Y63607D01*
X220895D01*
X222549Y64292D01*
X223246Y64988D01*
X224525Y63710D01*
X226110Y63053D01*
Y67983D01*
Y72912D01*
D02*
G37*
G36*
X228650D02*
Y69253D01*
X232309D01*
X231652Y70837D01*
X230235Y72255D01*
X228650Y72912D01*
D02*
G37*
G36*
X280917Y71000D02*
X279127D01*
X277473Y70315D01*
X276207Y69049D01*
X275804Y68077D01*
X274837Y68477D01*
Y63548D01*
Y58619D01*
X276422Y59275D01*
X277840Y60693D01*
X278490Y62264D01*
X279127Y62000D01*
X280917D01*
X282571Y62685D01*
X283837Y63951D01*
X284522Y65605D01*
Y67396D01*
X283837Y69049D01*
X282571Y70315D01*
X280917Y71000D01*
D02*
G37*
G36*
X253343Y80211D02*
X251758Y79554D01*
X250341Y78136D01*
X249573Y76284D01*
Y74333D01*
X249105D01*
X247451Y73648D01*
X246185Y72382D01*
X245500Y70728D01*
Y68938D01*
X246185Y67284D01*
X247451Y66018D01*
X249105Y65333D01*
X250895D01*
X252549Y66018D01*
X253815Y67284D01*
X254500Y68938D01*
Y70241D01*
X255616D01*
X257468Y71009D01*
X258886Y72427D01*
X259543Y74012D01*
X254613D01*
Y75282D01*
X253343D01*
Y80211D01*
D02*
G37*
G36*
X272297Y68477D02*
X270712Y67821D01*
X269294Y66403D01*
X268638Y64818D01*
X272297D01*
Y68477D01*
D02*
G37*
G36*
X232309Y66712D02*
X228650D01*
Y63053D01*
X230235Y63710D01*
X231652Y65128D01*
X232309Y66712D01*
D02*
G37*
G36*
X272297Y62278D02*
X268638D01*
X269294Y60693D01*
X270712Y59275D01*
X272297Y58619D01*
Y62278D01*
D02*
G37*
G36*
X191270Y58863D02*
Y51270D01*
X198863D01*
X198284Y53431D01*
X197114Y55459D01*
X195459Y57114D01*
X193431Y58284D01*
X191270Y58863D01*
D02*
G37*
G36*
X188730D02*
X186569Y58284D01*
X184541Y57114D01*
X182886Y55459D01*
X181716Y53431D01*
X181137Y51270D01*
X188730D01*
Y58863D01*
D02*
G37*
G36*
X431099Y58350D02*
X428901D01*
X426777Y57781D01*
X424873Y56682D01*
X423318Y55127D01*
X422219Y53223D01*
X421650Y51099D01*
Y48901D01*
X422219Y46777D01*
X423318Y44873D01*
X424873Y43318D01*
X426777Y42219D01*
X428901Y41650D01*
X431099D01*
X433223Y42219D01*
X435127Y43318D01*
X436682Y44873D01*
X437781Y46777D01*
X438350Y48901D01*
Y51099D01*
X437781Y53223D01*
X436682Y55127D01*
X435127Y56682D01*
X433223Y57781D01*
X431099Y58350D01*
D02*
G37*
G36*
X341099D02*
X338901D01*
X336777Y57781D01*
X334873Y56682D01*
X333318Y55127D01*
X332219Y53223D01*
X331650Y51099D01*
Y48901D01*
X332219Y46777D01*
X333318Y44873D01*
X334873Y43318D01*
X336777Y42219D01*
X338901Y41650D01*
X341099D01*
X343223Y42219D01*
X345127Y43318D01*
X346682Y44873D01*
X347781Y46777D01*
X348350Y48901D01*
Y51099D01*
X347781Y53223D01*
X346682Y55127D01*
X345127Y56682D01*
X343223Y57781D01*
X341099Y58350D01*
D02*
G37*
G36*
X311099D02*
X308901D01*
X306777Y57781D01*
X304873Y56682D01*
X303318Y55127D01*
X302219Y53223D01*
X301650Y51099D01*
Y48901D01*
X302219Y46777D01*
X303318Y44873D01*
X304873Y43318D01*
X306777Y42219D01*
X308901Y41650D01*
X311099D01*
X313223Y42219D01*
X315127Y43318D01*
X316682Y44873D01*
X317781Y46777D01*
X318350Y48901D01*
Y51099D01*
X317781Y53223D01*
X316682Y55127D01*
X315127Y56682D01*
X313223Y57781D01*
X311099Y58350D01*
D02*
G37*
G36*
X281099D02*
X278901D01*
X276777Y57781D01*
X274873Y56682D01*
X273318Y55127D01*
X272219Y53223D01*
X271650Y51099D01*
Y48901D01*
X272219Y46777D01*
X273318Y44873D01*
X274873Y43318D01*
X276777Y42219D01*
X278901Y41650D01*
X281099D01*
X283223Y42219D01*
X285127Y43318D01*
X286682Y44873D01*
X287781Y46777D01*
X288350Y48901D01*
Y51099D01*
X287781Y53223D01*
X286682Y55127D01*
X285127Y56682D01*
X283223Y57781D01*
X281099Y58350D01*
D02*
G37*
G36*
X251099D02*
X248901D01*
X246777Y57781D01*
X244873Y56682D01*
X243318Y55127D01*
X242219Y53223D01*
X241650Y51099D01*
Y48901D01*
X242219Y46777D01*
X243318Y44873D01*
X244873Y43318D01*
X246777Y42219D01*
X248901Y41650D01*
X251099D01*
X253223Y42219D01*
X255127Y43318D01*
X256682Y44873D01*
X257781Y46777D01*
X258350Y48901D01*
Y51099D01*
X257781Y53223D01*
X256682Y55127D01*
X255127Y56682D01*
X253223Y57781D01*
X251099Y58350D01*
D02*
G37*
G36*
X221099D02*
X218901D01*
X216777Y57781D01*
X214873Y56682D01*
X213318Y55127D01*
X212219Y53223D01*
X211650Y51099D01*
Y48901D01*
X212219Y46777D01*
X213318Y44873D01*
X214873Y43318D01*
X216777Y42219D01*
X218901Y41650D01*
X221099D01*
X223223Y42219D01*
X225127Y43318D01*
X226682Y44873D01*
X227781Y46777D01*
X228350Y48901D01*
Y51099D01*
X227781Y53223D01*
X226682Y55127D01*
X225127Y56682D01*
X223223Y57781D01*
X221099Y58350D01*
D02*
G37*
G36*
X161099D02*
X158901D01*
X156777Y57781D01*
X154873Y56682D01*
X153318Y55127D01*
X152219Y53223D01*
X151650Y51099D01*
Y48901D01*
X152219Y46777D01*
X153318Y44873D01*
X154873Y43318D01*
X156777Y42219D01*
X158901Y41650D01*
X161099D01*
X163223Y42219D01*
X165127Y43318D01*
X166682Y44873D01*
X167781Y46777D01*
X168350Y48901D01*
Y51099D01*
X167781Y53223D01*
X166682Y55127D01*
X165127Y56682D01*
X163223Y57781D01*
X161099Y58350D01*
D02*
G37*
G36*
X71099D02*
X68901D01*
X66777Y57781D01*
X64873Y56682D01*
X63318Y55127D01*
X62219Y53223D01*
X61650Y51099D01*
Y48901D01*
X62219Y46777D01*
X63318Y44873D01*
X64873Y43318D01*
X66777Y42219D01*
X68901Y41650D01*
X71099D01*
X73223Y42219D01*
X75127Y43318D01*
X76682Y44873D01*
X77781Y46777D01*
X78350Y48901D01*
Y51099D01*
X77781Y53223D01*
X76682Y55127D01*
X75127Y56682D01*
X73223Y57781D01*
X71099Y58350D01*
D02*
G37*
G36*
X198863Y48730D02*
X191270D01*
Y41137D01*
X193431Y41716D01*
X195459Y42886D01*
X197114Y44541D01*
X198284Y46569D01*
X198863Y48730D01*
D02*
G37*
G36*
X188730D02*
X181137D01*
X181716Y46569D01*
X182886Y44541D01*
X184541Y42886D01*
X186569Y41716D01*
X188730Y41137D01*
Y48730D01*
D02*
G37*
G36*
X411099Y38350D02*
X408901D01*
X406777Y37781D01*
X404873Y36682D01*
X403318Y35127D01*
X402219Y33223D01*
X401650Y31099D01*
Y28901D01*
X402219Y26777D01*
X403318Y24873D01*
X404873Y23318D01*
X406777Y22219D01*
X408901Y21650D01*
X411099D01*
X413223Y22219D01*
X415127Y23318D01*
X416682Y24873D01*
X417781Y26777D01*
X418350Y28901D01*
Y31099D01*
X417781Y33223D01*
X416682Y35127D01*
X415127Y36682D01*
X413223Y37781D01*
X411099Y38350D01*
D02*
G37*
G36*
X91099D02*
X88901D01*
X86777Y37781D01*
X84873Y36682D01*
X83318Y35127D01*
X82219Y33223D01*
X81650Y31099D01*
Y28901D01*
X82219Y26777D01*
X83318Y24873D01*
X84873Y23318D01*
X86777Y22219D01*
X88901Y21650D01*
X91099D01*
X93223Y22219D01*
X95127Y23318D01*
X96682Y24873D01*
X97781Y26777D01*
X98350Y28901D01*
Y31099D01*
X97781Y33223D01*
X96682Y35127D01*
X95127Y36682D01*
X93223Y37781D01*
X91099Y38350D01*
D02*
G37*
%LPD*%
D18*
X198840Y370640D02*
D03*
X224240D02*
D03*
X249640D02*
D03*
X275040D02*
D03*
X300440D02*
D03*
Y220640D02*
D03*
X275040D02*
D03*
X249640D02*
D03*
X224240D02*
D03*
D19*
X198840D02*
D03*
D20*
X25000Y475000D02*
D03*
X475000Y25000D02*
D03*
X25000D02*
D03*
X475000Y475000D02*
D03*
D21*
X150515Y390069D02*
D03*
X149982Y398442D02*
D03*
X439226Y387912D02*
D03*
X372176Y460260D02*
D03*
X367714Y465860D02*
D03*
X372447Y443488D02*
D03*
X357078Y355737D02*
D03*
X371553Y358768D02*
D03*
X398563Y324356D02*
D03*
X385934Y271105D02*
D03*
X423556Y288682D02*
D03*
X476959Y273750D02*
D03*
X462516Y245730D02*
D03*
X433336Y214675D02*
D03*
X435306Y187470D02*
D03*
X471000Y171180D02*
D03*
X474067Y164680D02*
D03*
X430195Y156977D02*
D03*
X323596Y308090D02*
D03*
X206094Y444710D02*
D03*
X286785Y152774D02*
D03*
X288000Y160000D02*
D03*
X311212Y187490D02*
D03*
X267889Y148612D02*
D03*
X298989Y145395D02*
D03*
X321356Y127729D02*
D03*
X366951Y127055D02*
D03*
X475232Y84625D02*
D03*
X480555Y90000D02*
D03*
X426244Y76168D02*
D03*
X273567Y63548D02*
D03*
X254613Y75282D02*
D03*
X227380Y67983D02*
D03*
X244309Y202496D02*
D03*
X236209Y202107D02*
D03*
X101429Y226440D02*
D03*
X124608Y206576D02*
D03*
X181699Y125804D02*
D03*
X164991Y106667D02*
D03*
X131754Y106608D02*
D03*
X132762Y140141D02*
D03*
X101458Y153834D02*
D03*
X86461Y152941D02*
D03*
X74029Y167316D02*
D03*
X48608Y206435D02*
D03*
X85456Y205746D02*
D03*
X65173Y226410D02*
D03*
X181894Y305760D02*
D03*
X160564Y282703D02*
D03*
X157193Y275679D02*
D03*
X189000Y306000D02*
D03*
X131927Y415135D02*
D03*
X63080Y406285D02*
D03*
X48592Y409961D02*
D03*
X73647Y391820D02*
D03*
X80000Y324010D02*
D03*
X24411Y339043D02*
D03*
X37281Y358999D02*
D03*
X74080Y327977D02*
D03*
X47940Y327877D02*
D03*
X118016Y287269D02*
D03*
X72692Y279981D02*
D03*
X47600Y268311D02*
D03*
X47484Y290951D02*
D03*
X16057Y275731D02*
D03*
X139449Y441196D02*
D03*
X129449Y408291D02*
D03*
X153855Y427120D02*
D03*
X139086Y320943D02*
D03*
X138769Y200785D02*
D03*
X320066Y171256D02*
D03*
X323458Y301056D02*
D03*
X118340Y280208D02*
D03*
X158153Y268237D02*
D03*
X389323Y164512D02*
D03*
X484035Y293134D02*
D03*
X468723Y295452D02*
D03*
X439098Y394988D02*
D03*
X30361Y362019D02*
D03*
X349511Y215300D02*
D03*
X440823Y214587D02*
D03*
X79963Y279806D02*
D03*
X58395Y80000D02*
D03*
X81874D02*
D03*
X250000Y69833D02*
D03*
X280022Y66500D02*
D03*
X220000Y68106D02*
D03*
X426274Y83500D02*
D03*
X403897Y171180D02*
D03*
X194937Y334110D02*
D03*
X198840Y444837D02*
D03*
X304942Y149328D02*
D03*
X366757Y239216D02*
D03*
X423686Y160052D02*
D03*
X484000Y274000D02*
D03*
X463962Y320246D02*
D03*
X365072Y133878D02*
D03*
X324985D02*
D03*
X396441Y161157D02*
D03*
X348667Y89872D02*
D03*
X351822Y83486D02*
D03*
X314706Y194081D02*
D03*
X384480Y187502D02*
D03*
X304981Y182865D02*
D03*
X469960Y248185D02*
D03*
X440587Y193020D02*
D03*
X383976Y170686D02*
D03*
X338188Y189981D02*
D03*
X379600Y267697D02*
D03*
X392344Y320838D02*
D03*
X420217Y282495D02*
D03*
X405000Y321536D02*
D03*
X430400Y354499D02*
D03*
X405000Y354464D02*
D03*
X275040Y150038D02*
D03*
X379600Y359282D02*
D03*
Y441765D02*
D03*
X354839Y362595D02*
D03*
X21269Y270906D02*
D03*
X105400Y232953D02*
D03*
X67450Y233398D02*
D03*
X92503Y206685D02*
D03*
X29711Y344172D02*
D03*
X41900Y323914D02*
D03*
X54600Y202495D02*
D03*
X67056Y412418D02*
D03*
X79947Y387639D02*
D03*
X180000Y132880D02*
D03*
X163661Y113715D02*
D03*
X133420D02*
D03*
X132206Y132880D02*
D03*
X54719Y268254D02*
D03*
X67577Y324484D02*
D03*
X117886Y203956D02*
D03*
X105479Y147953D02*
D03*
X80000Y148477D02*
D03*
Y172015D02*
D03*
X67300Y387424D02*
D03*
X41900Y412790D02*
D03*
X54600Y324839D02*
D03*
X41727Y236628D02*
D03*
X54600Y291303D02*
D03*
X480914Y427120D02*
D03*
X466104Y443087D02*
D03*
X425455Y185342D02*
D03*
X279259Y96555D02*
D03*
X303449Y111051D02*
D03*
X404179Y96500D02*
D03*
X427798Y110257D02*
D03*
X153032Y187120D02*
D03*
X151735Y307120D02*
D03*
X41900Y116386D02*
D03*
D22*
X90000Y30000D02*
D03*
X430000Y50000D02*
D03*
X410000Y30000D02*
D03*
X70000Y50000D02*
D03*
X220000D02*
D03*
X340000D02*
D03*
X160000D02*
D03*
X310000D02*
D03*
X190000D02*
D03*
X250000D02*
D03*
X280000D02*
D03*
M02*
