G04*
G04 #@! TF.GenerationSoftware,Altium Limited,Altium Designer,23.8.1 (32)*
G04*
G04 Layer_Physical_Order=6*
G04 Layer_Color=16711680*
%FSLAX44Y44*%
%MOMM*%
G71*
G04*
G04 #@! TF.SameCoordinates,4E8033DB-9698-49A7-8747-1B8CF0FAEC2F*
G04*
G04*
G04 #@! TF.FilePolarity,Positive*
G04*
G01*
G75*
%ADD17C,0.1553*%
%ADD18C,1.0000*%
%ADD19R,1.0000X1.0000*%
%ADD20C,1.5000*%
%ADD21C,0.5000*%
%ADD22C,1.2700*%
%ADD24R,0.4000X0.4000*%
%ADD25R,0.5153X0.4725*%
%ADD26R,1.2000X0.4000*%
%ADD27R,1.2000X0.3000*%
%ADD28R,0.5200X0.5200*%
%ADD29R,0.6500X1.5250*%
%ADD30R,1.0000X0.8000*%
%ADD31C,0.3000*%
%ADD32C,0.4000*%
%ADD33C,0.5000*%
D17*
X150515Y390069D02*
X170266D01*
X172687Y387649D01*
X372176Y460260D02*
X372179Y460257D01*
X418158D01*
X387844Y291520D02*
X416790D01*
X417700Y292430D02*
Y307120D01*
X416790Y291520D02*
X417700Y292430D01*
X381104Y284780D02*
X387844Y291520D01*
X483965Y93410D02*
Y274000D01*
X459500Y164680D02*
X474067D01*
X288000Y160000D02*
Y222190D01*
X296479Y230669D01*
X459110Y90000D02*
X480555D01*
X169838Y291978D02*
X378690D01*
X160564Y282703D02*
X169838Y291978D01*
X189000Y306000D02*
Y314744D01*
X166429Y337315D02*
X189000Y314744D01*
X135536Y337315D02*
X166429D01*
X163179Y268237D02*
X179721Y284780D01*
X381104D01*
X379600Y292888D02*
Y307120D01*
X378690Y291978D02*
X379600Y292888D01*
X158153Y268237D02*
X163179D01*
X67577Y331235D02*
X70261Y333919D01*
X67577Y324484D02*
Y331235D01*
X70261Y333919D02*
X89490D01*
X92700Y307120D02*
Y330709D01*
X89490Y333919D02*
X92700Y330709D01*
X129449Y408291D02*
X172991D01*
X440823Y231949D02*
X443100Y234226D01*
X440823Y214587D02*
Y231949D01*
X443100Y234226D02*
Y252880D01*
X217488Y301056D02*
X323458D01*
X210105Y308439D02*
X217488Y301056D01*
X392300Y252880D02*
Y270500D01*
X404295Y282495D02*
X420217D01*
X392300Y270500D02*
X404295Y282495D01*
X118220Y253000D02*
Y280088D01*
X118340Y280208D01*
X403719Y221942D02*
X417700Y235924D01*
X297200Y202210D02*
X316933Y221942D01*
X403719D01*
X401749Y230669D02*
X405000Y233920D01*
X296479Y230669D02*
X401749D01*
X210105Y308439D02*
Y318943D01*
X272270Y83944D02*
X280022Y76192D01*
X170347Y83944D02*
X272270D01*
X155680Y98611D02*
X170347Y83944D01*
X271694Y93222D02*
X281605Y83311D01*
X316086D01*
X271694Y93222D02*
Y116381D01*
X164290Y71484D02*
X216623D01*
X220000Y68106D01*
X149381Y95925D02*
X167599Y77707D01*
X242126D01*
X250000Y69833D01*
X143227Y92547D02*
X164290Y71484D01*
X291850Y136537D02*
X297994D01*
X271694Y116381D02*
X291850Y136537D01*
X205481Y140312D02*
X285198D01*
X297200Y152314D01*
Y202210D01*
X304559Y143103D02*
Y148946D01*
X297994Y136537D02*
X304559Y143103D01*
X198049Y132880D02*
X205481Y140312D01*
X155680Y98611D02*
Y151319D01*
X149381Y95925D02*
Y147677D01*
X143227Y92547D02*
Y145128D01*
X105400Y173700D02*
Y187120D01*
Y215261D01*
X106310Y172790D02*
X134209D01*
X105400Y173700D02*
X106310Y172790D01*
X134209D02*
X155680Y151319D01*
X96304Y166368D02*
X130689D01*
X71576Y160196D02*
X128159D01*
X67300Y164472D02*
X71576Y160196D01*
X128159D02*
X143227Y145128D01*
X92700Y169972D02*
X96304Y166368D01*
X130689D02*
X149381Y147677D01*
X92700Y169972D02*
Y187120D01*
X67300Y164472D02*
Y187120D01*
X354399Y149986D02*
X357998Y153585D01*
X388869D02*
X396441Y161157D01*
X357998Y153585D02*
X388869D01*
X474231Y96500D02*
X477668Y99937D01*
Y132969D01*
X365072Y133878D02*
X476758D01*
X477668Y132969D01*
X480555Y90000D02*
X483965Y93410D01*
X469079Y402324D02*
X476109Y395294D01*
X469962Y284832D02*
X476109Y290979D01*
Y395294D01*
X469962Y248188D02*
Y284832D01*
X484035Y293134D02*
Y398528D01*
X472414Y410148D02*
X484035Y398528D01*
X420076Y410148D02*
X472414D01*
X417700Y412524D02*
X420076Y410148D01*
X417700Y412524D02*
Y427120D01*
X415145Y402324D02*
X469079D01*
X405000Y412469D02*
X415145Y402324D01*
X423511Y394988D02*
X439098D01*
X417700Y389176D02*
X423511Y394988D01*
X196401Y349218D02*
X341463D01*
X354839Y362595D01*
X172687Y364230D02*
X193852Y343064D01*
X338777Y355371D02*
X347718Y364312D01*
X178840Y366778D02*
X196401Y349218D01*
X188572Y365748D02*
X198949Y355371D01*
X193852Y343064D02*
X382775D01*
X198949Y355371D02*
X338777D01*
X382775Y343064D02*
X392300Y352590D01*
X178840Y366778D02*
Y402442D01*
X172991Y408291D02*
X178840Y402442D01*
X172687Y364230D02*
Y387649D01*
X287687Y367956D02*
X292779Y362863D01*
X336845D01*
X287687Y367956D02*
Y425599D01*
X285785Y427500D02*
X287687Y425599D01*
X336845Y362863D02*
X341121Y367139D01*
X174301Y476755D02*
X188572Y462483D01*
X341121Y367139D02*
Y444154D01*
X188572Y365748D02*
Y462483D01*
X42380Y489166D02*
X282633D01*
X300440Y471359D01*
X40818Y440750D02*
X47782Y447714D01*
X84036D02*
X92700Y439051D01*
X47782Y447714D02*
X84036D01*
X54600Y437711D02*
X58027Y441137D01*
X76429D01*
X80000Y437566D01*
X31480Y440750D02*
X40818D01*
X30361Y362019D02*
Y439631D01*
X31480Y440750D01*
X54962Y465241D02*
Y475640D01*
X56077Y476755D02*
X174301D01*
X54962Y475640D02*
X56077Y476755D01*
X49713Y483012D02*
X214333D01*
X48803Y482102D02*
X49713Y483012D01*
X214333D02*
X224240Y473106D01*
X40668Y487453D02*
X42380Y489166D01*
X23828Y447051D02*
X36772D01*
X54962Y465241D01*
X40668Y468366D02*
Y487453D01*
X34258Y453255D02*
X48803Y467800D01*
Y482102D01*
X31710Y459408D02*
X40668Y468366D01*
X17710Y453255D02*
X34258D01*
X12158Y459408D02*
X31710D01*
X22731Y351152D02*
Y445955D01*
X23828Y447051D01*
X10425Y457675D02*
X12158Y459408D01*
X16578Y452123D02*
X17710Y453255D01*
X22731Y351152D02*
X29711Y344172D01*
X10425Y165372D02*
X19859Y155937D01*
X16578Y299011D02*
Y452123D01*
Y299011D02*
X30443Y285145D01*
X10425Y165372D02*
Y457675D01*
X30542Y295179D02*
Y334262D01*
Y295179D02*
X45320Y280402D01*
X30542Y334262D02*
X54600Y358320D01*
X418158Y460257D02*
X430400Y448016D01*
Y427120D02*
Y448016D01*
X21269Y167377D02*
Y270906D01*
Y167377D02*
X26466Y162180D01*
X30443Y205467D02*
X32201Y203710D01*
X40143D01*
X30443Y205467D02*
Y285145D01*
X26466Y162180D02*
X53699D01*
X417700Y372880D02*
Y389176D01*
X379600Y359282D02*
Y372880D01*
X430400Y354499D02*
Y372880D01*
X405000Y354464D02*
Y372880D01*
X369252Y333961D02*
X434122D01*
X443100Y342939D01*
X366900Y331609D02*
X369252Y333961D01*
X366900Y307120D02*
Y331609D01*
X443100Y342939D02*
Y372880D01*
X469960Y248185D02*
X469962Y248188D01*
X405000Y412469D02*
Y427120D01*
X420217Y276686D02*
Y282495D01*
Y276686D02*
X430400Y266503D01*
X405000Y233920D02*
Y252880D01*
X79981Y252899D02*
Y279787D01*
X80000Y172015D02*
Y187120D01*
X92602Y187218D02*
Y206587D01*
X92503Y206685D02*
X92602Y206587D01*
Y187218D02*
X92700Y187120D01*
X250000Y50000D02*
Y69833D01*
X280022Y66500D02*
Y76192D01*
X280000Y50000D02*
X280011Y50011D01*
Y66489D01*
X280022Y66500D01*
X220000Y50000D02*
Y68106D01*
X426274Y83500D02*
X440110D01*
X194937Y334110D02*
X210105Y318943D01*
X198840Y427500D02*
Y444837D01*
X316086Y83311D02*
X316275Y83500D01*
X304559Y148946D02*
X304942Y149328D01*
X423686Y160052D02*
X428314Y164680D01*
X440500D01*
X459110Y96500D02*
X474231D01*
X335275D02*
Y123588D01*
X324985Y133878D02*
X335275Y123588D01*
X348667Y89872D02*
X354399Y95604D01*
Y149986D01*
X335403Y89872D02*
X348603D01*
X314706Y194081D02*
Y194623D01*
Y194081D02*
X321568Y200942D01*
X454260D01*
X380032Y177186D02*
X384480Y181635D01*
Y187502D02*
X389821Y192843D01*
X384480Y181635D02*
Y187502D01*
X389821Y192843D02*
X440410D01*
X309607Y164186D02*
X350002D01*
X304981Y168812D02*
X309607Y164186D01*
X304981Y168812D02*
Y182865D01*
X440587Y177766D02*
Y193020D01*
X440410Y192843D02*
X440587Y193020D01*
X454260Y200942D02*
X459500Y195702D01*
X369002Y177186D02*
X380032D01*
X369002Y170686D02*
X383976D01*
X430400Y252880D02*
Y266503D01*
Y277605D02*
X442996Y265009D01*
X430400Y277605D02*
Y307120D01*
X442996Y252984D02*
Y265009D01*
Y252984D02*
X443100Y252880D01*
X341121Y444154D02*
X347428Y450461D01*
X347718Y440204D02*
X351378Y443864D01*
X347718Y364312D02*
Y440204D01*
X351378Y443864D02*
X362727D01*
X392300Y427120D02*
Y441541D01*
X383380Y450461D02*
X392300Y441541D01*
X347428Y450461D02*
X383380D01*
X362727Y443864D02*
X366900Y439691D01*
X275040Y427500D02*
X285785D01*
X459500Y177680D02*
Y195702D01*
X366900Y427120D02*
Y439691D01*
X392300Y352590D02*
Y372880D01*
X118100Y227961D02*
Y252880D01*
X105400Y215261D02*
X118100Y227961D01*
X117886Y203956D02*
Y213027D01*
X132005Y227145D02*
Y279969D01*
X117886Y213027D02*
X132005Y227145D01*
X105400Y232953D02*
Y252880D01*
X130139Y342712D02*
X135536Y337315D01*
X130139Y342712D02*
Y396315D01*
X125982Y400473D02*
X130139Y396315D01*
X109570Y400473D02*
X125982D01*
X105400Y404642D02*
Y427120D01*
Y404642D02*
X109570Y400473D01*
X164518Y299529D02*
Y317239D01*
X123811Y330456D02*
X151301D01*
X164518Y317239D01*
X67375Y233473D02*
X67450Y233398D01*
X67375Y233473D02*
Y252805D01*
X67300Y252880D02*
X67375Y252805D01*
X41900Y307120D02*
Y323914D01*
X54600Y187120D02*
Y202495D01*
X83762Y399627D02*
X88629D01*
X92700Y395555D01*
X80000Y403389D02*
X83762Y399627D01*
X92700Y372880D02*
Y395555D01*
X80000Y403389D02*
Y427120D01*
Y437566D01*
X67178Y412540D02*
Y426998D01*
X417700Y235924D02*
Y252880D01*
X180000Y132880D02*
X198049D01*
X167756Y139643D02*
X171459Y143346D01*
X167756Y117809D02*
Y139643D01*
X171459Y143346D02*
X191672D01*
X163661Y113715D02*
X167756Y117809D01*
X191672Y143346D02*
X198840Y150515D01*
Y162500D01*
X97073Y113715D02*
X133420D01*
X92700Y118088D02*
X97073Y113715D01*
X92700Y118088D02*
Y132880D01*
X54660Y252939D02*
Y268194D01*
X118100Y252880D02*
X118220Y253000D01*
X45320Y280402D02*
X60289D01*
X224240Y427500D02*
Y473106D01*
X300440Y427500D02*
Y471359D01*
X41900Y187120D02*
Y201952D01*
X40143Y203710D02*
X41900Y201952D01*
X67300Y132880D02*
Y148579D01*
X53699Y162180D02*
X67300Y148579D01*
X19859Y155937D02*
X45737D01*
X54600Y147075D01*
Y132880D02*
Y147075D01*
X118100Y336167D02*
Y372880D01*
Y336167D02*
X123811Y330456D01*
X156323Y291335D02*
X164518Y299529D01*
X143371Y291335D02*
X156323D01*
X132005Y279969D02*
X143371Y291335D01*
X105440Y132920D02*
Y147913D01*
X80000Y132880D02*
Y148477D01*
X105400Y350229D02*
Y372880D01*
Y307120D02*
Y350229D01*
X72626Y354751D02*
X100878D01*
X105400Y350229D01*
X67300Y360076D02*
X72626Y354751D01*
X67300Y360076D02*
Y372880D01*
Y387424D01*
X41900Y412790D02*
Y427120D01*
X54600D02*
Y437711D01*
Y372880D02*
Y427120D01*
X92700D02*
Y439051D01*
X54600Y307120D02*
Y324839D01*
X67300Y252880D02*
Y273391D01*
X60289Y280402D02*
X67300Y273391D01*
X54600Y358320D02*
Y372880D01*
Y291303D02*
Y307120D01*
X92700Y252880D02*
Y272543D01*
X105400Y285243D01*
Y307120D01*
X92700Y234483D02*
Y252880D01*
X67300Y209083D02*
X92700Y234483D01*
X67300Y187120D02*
Y209083D01*
D18*
X198840Y370640D02*
D03*
X224240D02*
D03*
X249640D02*
D03*
X275040D02*
D03*
X300440D02*
D03*
Y220640D02*
D03*
X275040D02*
D03*
X249640D02*
D03*
X224240D02*
D03*
D19*
X198840D02*
D03*
D20*
X25000Y475000D02*
D03*
X475000Y25000D02*
D03*
X25000D02*
D03*
X475000Y475000D02*
D03*
D21*
X150515Y390069D02*
D03*
X149982Y398442D02*
D03*
X439226Y387912D02*
D03*
X372176Y460260D02*
D03*
X367714Y465860D02*
D03*
X372447Y443488D02*
D03*
X357078Y355737D02*
D03*
X371553Y358768D02*
D03*
X398563Y324356D02*
D03*
X385934Y271105D02*
D03*
X423556Y288682D02*
D03*
X476959Y273750D02*
D03*
X462516Y245730D02*
D03*
X433336Y214675D02*
D03*
X435306Y187470D02*
D03*
X471000Y171180D02*
D03*
X474067Y164680D02*
D03*
X430195Y156977D02*
D03*
X323596Y308090D02*
D03*
X206094Y444710D02*
D03*
X286785Y152774D02*
D03*
X288000Y160000D02*
D03*
X311212Y187490D02*
D03*
X267889Y148612D02*
D03*
X298989Y145395D02*
D03*
X321356Y127729D02*
D03*
X366951Y127055D02*
D03*
X475232Y84625D02*
D03*
X480555Y90000D02*
D03*
X426244Y76168D02*
D03*
X273567Y63548D02*
D03*
X254613Y75282D02*
D03*
X227380Y67983D02*
D03*
X244309Y202496D02*
D03*
X236209Y202107D02*
D03*
X101429Y226440D02*
D03*
X124608Y206576D02*
D03*
X181699Y125804D02*
D03*
X164991Y106667D02*
D03*
X131754Y106608D02*
D03*
X132762Y140141D02*
D03*
X101458Y153834D02*
D03*
X86461Y152941D02*
D03*
X74029Y167316D02*
D03*
X48608Y206435D02*
D03*
X85456Y205746D02*
D03*
X65173Y226410D02*
D03*
X181894Y305760D02*
D03*
X160564Y282703D02*
D03*
X157193Y275679D02*
D03*
X189000Y306000D02*
D03*
X131927Y415135D02*
D03*
X63080Y406285D02*
D03*
X48592Y409961D02*
D03*
X73647Y391820D02*
D03*
X80000Y324010D02*
D03*
X24411Y339043D02*
D03*
X37281Y358999D02*
D03*
X74080Y327977D02*
D03*
X47940Y327877D02*
D03*
X118016Y287269D02*
D03*
X72692Y279981D02*
D03*
X47600Y268311D02*
D03*
X47484Y290951D02*
D03*
X16057Y275731D02*
D03*
X139449Y441196D02*
D03*
X129449Y408291D02*
D03*
X153855Y427120D02*
D03*
X139086Y320943D02*
D03*
X138769Y200785D02*
D03*
X320066Y171256D02*
D03*
X323458Y301056D02*
D03*
X118340Y280208D02*
D03*
X158153Y268237D02*
D03*
X389323Y164512D02*
D03*
X484035Y293134D02*
D03*
X468723Y295452D02*
D03*
X439098Y394988D02*
D03*
X30361Y362019D02*
D03*
X349511Y215300D02*
D03*
X440823Y214587D02*
D03*
X79963Y279806D02*
D03*
X58395Y80000D02*
D03*
X81874D02*
D03*
X250000Y69833D02*
D03*
X280022Y66500D02*
D03*
X220000Y68106D02*
D03*
X426274Y83500D02*
D03*
X403897Y171180D02*
D03*
X194937Y334110D02*
D03*
X198840Y444837D02*
D03*
X304942Y149328D02*
D03*
X366757Y239216D02*
D03*
X423686Y160052D02*
D03*
X484000Y274000D02*
D03*
X463962Y320246D02*
D03*
X365072Y133878D02*
D03*
X324985D02*
D03*
X396441Y161157D02*
D03*
X348667Y89872D02*
D03*
X351822Y83486D02*
D03*
X314706Y194081D02*
D03*
X384480Y187502D02*
D03*
X304981Y182865D02*
D03*
X469960Y248185D02*
D03*
X440587Y193020D02*
D03*
X383976Y170686D02*
D03*
X338188Y189981D02*
D03*
X379600Y267697D02*
D03*
X392344Y320838D02*
D03*
X420217Y282495D02*
D03*
X405000Y321536D02*
D03*
X430400Y354499D02*
D03*
X405000Y354464D02*
D03*
X275040Y150038D02*
D03*
X379600Y359282D02*
D03*
Y441765D02*
D03*
X354839Y362595D02*
D03*
X21269Y270906D02*
D03*
X105400Y232953D02*
D03*
X67450Y233398D02*
D03*
X92503Y206685D02*
D03*
X29711Y344172D02*
D03*
X41900Y323914D02*
D03*
X54600Y202495D02*
D03*
X67056Y412418D02*
D03*
X79947Y387639D02*
D03*
X180000Y132880D02*
D03*
X163661Y113715D02*
D03*
X133420D02*
D03*
X132206Y132880D02*
D03*
X54719Y268254D02*
D03*
X67577Y324484D02*
D03*
X117886Y203956D02*
D03*
X105479Y147953D02*
D03*
X80000Y148477D02*
D03*
Y172015D02*
D03*
X67300Y387424D02*
D03*
X41900Y412790D02*
D03*
X54600Y324839D02*
D03*
X41727Y236628D02*
D03*
X54600Y291303D02*
D03*
X480914Y427120D02*
D03*
X466104Y443087D02*
D03*
X425455Y185342D02*
D03*
X279259Y96555D02*
D03*
X303449Y111051D02*
D03*
X404179Y96500D02*
D03*
X427798Y110257D02*
D03*
X153032Y187120D02*
D03*
X151735Y307120D02*
D03*
X41900Y116386D02*
D03*
D22*
X90000Y30000D02*
D03*
X430000Y50000D02*
D03*
X410000Y30000D02*
D03*
X70000Y50000D02*
D03*
X220000D02*
D03*
X340000D02*
D03*
X160000D02*
D03*
X310000D02*
D03*
X190000D02*
D03*
X250000D02*
D03*
X280000D02*
D03*
D24*
X138750Y30000D02*
D03*
X131250D02*
D03*
X368750D02*
D03*
X361250D02*
D03*
D25*
X333783Y177187D02*
D03*
X326212D02*
D03*
X423786Y96500D02*
D03*
X416214D02*
D03*
X298786D02*
D03*
X291214D02*
D03*
X468786Y307120D02*
D03*
X461214D02*
D03*
X134314Y427120D02*
D03*
X141886D02*
D03*
Y307120D02*
D03*
X134314D02*
D03*
X413214Y171180D02*
D03*
X420786D02*
D03*
X141886Y187120D02*
D03*
X134314D02*
D03*
X468786Y427120D02*
D03*
X461214D02*
D03*
D26*
X350002Y177186D02*
D03*
Y164186D02*
D03*
X316275Y83500D02*
D03*
Y96500D02*
D03*
X440110D02*
D03*
Y83500D02*
D03*
D27*
X369002Y164186D02*
D03*
Y170686D02*
D03*
Y177186D02*
D03*
X440500Y171180D02*
D03*
X459500Y177680D02*
D03*
Y171180D02*
D03*
X440500Y177680D02*
D03*
Y164680D02*
D03*
X459500D02*
D03*
X335275Y83500D02*
D03*
Y90000D02*
D03*
Y96500D02*
D03*
X459110Y83500D02*
D03*
Y90000D02*
D03*
Y96500D02*
D03*
D28*
X66000Y80000D02*
D03*
X74000D02*
D03*
D29*
X366900Y252880D02*
D03*
X443100D02*
D03*
X430400D02*
D03*
X417700D02*
D03*
X405000D02*
D03*
X392300D02*
D03*
X379600D02*
D03*
X430400Y307120D02*
D03*
X417700D02*
D03*
X405000D02*
D03*
X392300D02*
D03*
X379600D02*
D03*
X366900D02*
D03*
X443100D02*
D03*
X366900Y427120D02*
D03*
X379600D02*
D03*
X392300D02*
D03*
X405000D02*
D03*
X417700D02*
D03*
X430400D02*
D03*
X443100Y372880D02*
D03*
X430400D02*
D03*
X417700D02*
D03*
X405000D02*
D03*
X392300D02*
D03*
X379600D02*
D03*
X366900D02*
D03*
X443100Y427120D02*
D03*
X118100Y187120D02*
D03*
X41900Y132880D02*
D03*
X54600D02*
D03*
X67300D02*
D03*
X80000D02*
D03*
X92700D02*
D03*
X105400D02*
D03*
X118100D02*
D03*
X105400Y187120D02*
D03*
X92700D02*
D03*
X80000D02*
D03*
X67300D02*
D03*
X54600D02*
D03*
X41900D02*
D03*
X105400Y307120D02*
D03*
X92700D02*
D03*
X80000D02*
D03*
X67300D02*
D03*
X54600D02*
D03*
X41900D02*
D03*
Y252880D02*
D03*
X54600D02*
D03*
X67300D02*
D03*
X80000D02*
D03*
X92700D02*
D03*
X105400D02*
D03*
X118100D02*
D03*
Y307120D02*
D03*
X41900Y372880D02*
D03*
X54600D02*
D03*
X67300D02*
D03*
X80000D02*
D03*
X92700D02*
D03*
X105400D02*
D03*
X118100D02*
D03*
X105400Y427120D02*
D03*
X92700D02*
D03*
X80000D02*
D03*
X67300D02*
D03*
X54600D02*
D03*
X41900D02*
D03*
X118100D02*
D03*
D30*
X275040Y177500D02*
D03*
Y162500D02*
D03*
X224240Y177500D02*
D03*
Y162500D02*
D03*
X198840Y177500D02*
D03*
Y162500D02*
D03*
X300440Y412500D02*
D03*
Y427500D02*
D03*
X275040Y412500D02*
D03*
Y427500D02*
D03*
X224240Y412500D02*
D03*
Y427500D02*
D03*
X198840Y427500D02*
D03*
Y412500D02*
D03*
D31*
X366900Y361367D02*
X369499Y358768D01*
X366900Y361367D02*
Y372880D01*
X369499Y358768D02*
X371553D01*
X369002Y164186D02*
X389323D01*
X459500Y171180D02*
X471000D01*
X474067Y164680D02*
X474401Y164346D01*
X473566Y83500D02*
X474691Y84625D01*
X475232D01*
X459110Y83500D02*
X473566D01*
X351808D02*
X351822Y83486D01*
X335275Y83500D02*
X351808D01*
X240049Y156423D02*
Y198267D01*
X236209Y202107D02*
X240049Y198267D01*
X325998Y177187D02*
X326212D01*
X320066Y171256D02*
X325998Y177187D01*
X468754Y295483D02*
Y307089D01*
X468723Y295452D02*
X468754Y295483D01*
Y307089D02*
X468786Y307120D01*
X79963Y279806D02*
X79981Y279787D01*
Y252899D02*
X80000Y252880D01*
X368750Y30000D02*
X410000D01*
X344721D02*
X361250D01*
X340000Y34721D02*
X344721Y30000D01*
X340000Y34721D02*
Y50000D01*
X138750Y30000D02*
X152876D01*
X160000Y37124D02*
Y50000D01*
X152876Y30000D02*
X160000Y37124D01*
X58395Y80000D02*
X66000D01*
X74000D02*
X81874D01*
X403897Y171180D02*
X413214D01*
X366828Y252808D02*
X366900Y252880D01*
X366828Y239287D02*
Y252808D01*
X366757Y239216D02*
X366828Y239287D01*
X379600Y252880D02*
Y267697D01*
X392300Y307120D02*
X392322Y307142D01*
Y320816D01*
X392344Y320838D01*
X405000Y307120D02*
Y321536D01*
X275040Y150038D02*
Y162500D01*
X236722Y153096D02*
X240049Y156423D01*
X224240Y154853D02*
Y162500D01*
Y154853D02*
X225997Y153096D01*
X236722D01*
X224240Y177500D02*
Y220640D01*
X198840Y177500D02*
Y220640D01*
X379600Y427120D02*
Y441765D01*
X275040Y177500D02*
Y220640D01*
X224240Y177500D02*
X224240Y177500D01*
X198840Y220640D02*
X198840Y220640D01*
X300440Y370640D02*
Y412500D01*
X300440Y412500D02*
X300440Y412500D01*
X275040Y370640D02*
Y412500D01*
X275040Y412500D02*
X275040Y412500D01*
X224240Y370640D02*
Y412500D01*
X224240Y412500D02*
X224240Y412500D01*
X198840Y370640D02*
Y412500D01*
X198840Y412500D02*
X198840Y412500D01*
X67178Y426998D02*
X67300Y427120D01*
X67056Y412418D02*
X67178Y412540D01*
X79974Y372906D02*
X80000Y372880D01*
X79974Y372906D02*
Y387612D01*
X79947Y387639D02*
X79974Y387612D01*
X118100Y132880D02*
X132206D01*
X54600Y252880D02*
X54660Y252939D01*
Y268194D02*
X54719Y268254D01*
X105400Y132880D02*
X105440Y132920D01*
Y147913D02*
X105479Y147953D01*
X41727Y236628D02*
X41814Y236714D01*
X468786Y427120D02*
X480914D01*
X279259Y96555D02*
X279315Y96500D01*
X291214D01*
X404179D02*
X416214D01*
X141886Y187120D02*
X153032D01*
X141886Y307120D02*
X151735D01*
X41900Y116386D02*
Y132880D01*
X41814Y252794D02*
X41900Y252880D01*
D32*
X80000Y307120D02*
Y324010D01*
X41912Y363629D02*
Y372868D01*
X37281Y358999D02*
X41912Y363629D01*
X41900Y372880D02*
X41912Y372868D01*
X134314Y436062D02*
X139449Y441196D01*
X134314Y427120D02*
Y436062D01*
X443100Y307120D02*
X461214D01*
X141886Y427120D02*
X153855D01*
X134314Y316172D02*
X139086Y320943D01*
X134314Y196331D02*
X138769Y200785D01*
X118100Y307120D02*
X134314D01*
X90000Y30000D02*
X131250D01*
X461214Y317227D02*
X463962Y319975D01*
Y320246D01*
X461214Y307120D02*
Y317227D01*
X333783Y177187D02*
X333785Y177186D01*
X350002D01*
X333783Y177187D02*
Y185576D01*
X338188Y189981D01*
X41814Y236714D02*
Y252794D01*
X134314Y187120D02*
Y196331D01*
Y307120D02*
Y316172D01*
X118100Y427120D02*
X134314D01*
X461214Y438197D02*
X466104Y443087D01*
X461214Y427120D02*
Y438197D01*
X443100Y427120D02*
X461214D01*
X420786Y180673D02*
X425455Y185342D01*
X420786Y171180D02*
Y180673D01*
Y171180D02*
X440500D01*
X298786Y106388D02*
X303449Y111051D01*
X298786Y96500D02*
Y106388D01*
Y96500D02*
X316275D01*
X423786Y106245D02*
X427798Y110257D01*
X423786Y96500D02*
Y106245D01*
Y96500D02*
X440110D01*
X118100Y187120D02*
X134314D01*
X118100Y187120D02*
X118100Y187120D01*
D33*
X275040Y220640D02*
X275040Y220640D01*
M02*
