G04*
G04 #@! TF.GenerationSoftware,Altium Limited,Altium Designer,23.8.1 (32)*
G04*
G04 Layer_Physical_Order=1*
G04 Layer_Color=255*
%FSLAX44Y44*%
%MOMM*%
G71*
G04*
G04 #@! TF.SameCoordinates,4E8033DB-9698-49A7-8747-1B8CF0FAEC2F*
G04*
G04*
G04 #@! TF.FilePolarity,Positive*
G04*
G01*
G75*
%ADD17C,0.1553*%
%ADD18C,1.0000*%
%ADD19R,1.0000X1.0000*%
%ADD20C,1.5000*%
%ADD21C,0.5000*%
%ADD22C,1.2700*%
D17*
X334889Y446995D02*
X359962Y472068D01*
X373716D02*
X379600Y466184D01*
X359962Y472068D02*
X373716D01*
X252255Y133061D02*
Y206375D01*
X163727Y208107D02*
X250524D01*
X252255Y206375D01*
X253165Y132151D02*
X271861D01*
X252255Y133061D02*
X253165Y132151D01*
X167029Y247871D02*
X177879D01*
X161970Y242812D02*
X167029Y247871D01*
X177879D02*
X200524Y270516D01*
X161970Y209864D02*
Y242812D01*
X200524Y270516D02*
Y316990D01*
X439098Y394988D02*
X450013D01*
X466414Y225060D02*
X469960Y228606D01*
X304981Y202607D02*
X327434Y225060D01*
X466414D01*
X474479Y262910D02*
X477460Y259929D01*
X453805Y215279D02*
X467240D01*
X477460Y225499D02*
Y259929D01*
X467240Y215279D02*
X477460Y225499D01*
X469960Y228606D02*
Y248185D01*
X450149Y154092D02*
Y211623D01*
X353055Y211756D02*
X411726D01*
X349511Y215300D02*
X353055Y211756D01*
X450149Y211623D02*
X453805Y215279D01*
X440587Y193020D02*
Y214351D01*
X440823Y214587D01*
X394140Y87954D02*
Y101529D01*
X413483Y120872D01*
Y209998D01*
X411726Y211756D02*
X413483Y209998D01*
X394140Y87954D02*
X398593Y83500D01*
X426274D01*
X423686Y154436D02*
Y160052D01*
X427831Y150291D02*
X446348D01*
X423686Y154436D02*
X427831Y150291D01*
X446348D02*
X450149Y154092D01*
X459620Y262910D02*
X474479D01*
X454143Y268386D02*
X459620Y262910D01*
X454143Y268386D02*
Y390857D01*
X450013Y394988D02*
X454143Y390857D01*
X304981Y182865D02*
Y202607D01*
X360306Y274117D02*
X376785D01*
X357655Y276768D02*
X360306Y274117D01*
X357655Y276768D02*
Y327477D01*
X379217Y268080D02*
Y271684D01*
X376785Y274117D02*
X379217Y271684D01*
Y268080D02*
X379600Y267697D01*
X357655Y327477D02*
X359413Y329234D01*
X397770Y330992D02*
Y340335D01*
X359413Y329234D02*
X396013D01*
X397770Y330992D01*
Y340335D02*
X404900Y347465D01*
Y354365D02*
X405000Y354464D01*
X404900Y347465D02*
Y354365D01*
X271861Y132151D02*
X275040Y135330D01*
Y150038D01*
X161970Y209864D02*
X163727Y208107D01*
X200524Y316990D02*
X215383Y331849D01*
X318988D02*
X322255Y335116D01*
Y365487D01*
X215383Y331849D02*
X318988D01*
X322255Y365487D02*
X325399Y368631D01*
X331760D01*
X334889Y371759D01*
Y446995D01*
X379600Y441765D02*
Y466184D01*
D18*
X198840Y370640D02*
D03*
X224240D02*
D03*
X249640D02*
D03*
X275040D02*
D03*
X300440D02*
D03*
Y220640D02*
D03*
X275040D02*
D03*
X249640D02*
D03*
X224240D02*
D03*
D19*
X198840D02*
D03*
D20*
X25000Y475000D02*
D03*
X475000Y25000D02*
D03*
X25000D02*
D03*
X475000Y475000D02*
D03*
D21*
X150515Y390069D02*
D03*
X149982Y398442D02*
D03*
X439226Y387912D02*
D03*
X372176Y460260D02*
D03*
X367714Y465860D02*
D03*
X372447Y443488D02*
D03*
X357078Y355737D02*
D03*
X371553Y358768D02*
D03*
X398563Y324356D02*
D03*
X385934Y271105D02*
D03*
X423556Y288682D02*
D03*
X476959Y273750D02*
D03*
X462516Y245730D02*
D03*
X433336Y214675D02*
D03*
X435306Y187470D02*
D03*
X471000Y171180D02*
D03*
X474067Y164680D02*
D03*
X430195Y156977D02*
D03*
X323596Y308090D02*
D03*
X206094Y444710D02*
D03*
X286785Y152774D02*
D03*
X288000Y160000D02*
D03*
X311212Y187490D02*
D03*
X267889Y148612D02*
D03*
X298989Y145395D02*
D03*
X321356Y127729D02*
D03*
X366951Y127055D02*
D03*
X475232Y84625D02*
D03*
X480555Y90000D02*
D03*
X426244Y76168D02*
D03*
X273567Y63548D02*
D03*
X254613Y75282D02*
D03*
X227380Y67983D02*
D03*
X244309Y202496D02*
D03*
X236209Y202107D02*
D03*
X101429Y226440D02*
D03*
X124608Y206576D02*
D03*
X181699Y125804D02*
D03*
X164991Y106667D02*
D03*
X131754Y106608D02*
D03*
X132762Y140141D02*
D03*
X101458Y153834D02*
D03*
X86461Y152941D02*
D03*
X74029Y167316D02*
D03*
X48608Y206435D02*
D03*
X85456Y205746D02*
D03*
X65173Y226410D02*
D03*
X181894Y305760D02*
D03*
X160564Y282703D02*
D03*
X157193Y275679D02*
D03*
X189000Y306000D02*
D03*
X131927Y415135D02*
D03*
X63080Y406285D02*
D03*
X48592Y409961D02*
D03*
X73647Y391820D02*
D03*
X80000Y324010D02*
D03*
X24411Y339043D02*
D03*
X37281Y358999D02*
D03*
X74080Y327977D02*
D03*
X47940Y327877D02*
D03*
X118016Y287269D02*
D03*
X72692Y279981D02*
D03*
X47600Y268311D02*
D03*
X47484Y290951D02*
D03*
X16057Y275731D02*
D03*
X139449Y441196D02*
D03*
X129449Y408291D02*
D03*
X153855Y427120D02*
D03*
X139086Y320943D02*
D03*
X138769Y200785D02*
D03*
X320066Y171256D02*
D03*
X323458Y301056D02*
D03*
X118340Y280208D02*
D03*
X158153Y268237D02*
D03*
X389323Y164512D02*
D03*
X484035Y293134D02*
D03*
X468723Y295452D02*
D03*
X439098Y394988D02*
D03*
X30361Y362019D02*
D03*
X349511Y215300D02*
D03*
X440823Y214587D02*
D03*
X79963Y279806D02*
D03*
X58395Y80000D02*
D03*
X81874D02*
D03*
X250000Y69833D02*
D03*
X280022Y66500D02*
D03*
X220000Y68106D02*
D03*
X426274Y83500D02*
D03*
X403897Y171180D02*
D03*
X194937Y334110D02*
D03*
X198840Y444837D02*
D03*
X304942Y149328D02*
D03*
X366757Y239216D02*
D03*
X423686Y160052D02*
D03*
X484000Y274000D02*
D03*
X463962Y320246D02*
D03*
X365072Y133878D02*
D03*
X324985D02*
D03*
X396441Y161157D02*
D03*
X348667Y89872D02*
D03*
X351822Y83486D02*
D03*
X314706Y194081D02*
D03*
X384480Y187502D02*
D03*
X304981Y182865D02*
D03*
X469960Y248185D02*
D03*
X440587Y193020D02*
D03*
X383976Y170686D02*
D03*
X338188Y189981D02*
D03*
X379600Y267697D02*
D03*
X392344Y320838D02*
D03*
X420217Y282495D02*
D03*
X405000Y321536D02*
D03*
X430400Y354499D02*
D03*
X405000Y354464D02*
D03*
X275040Y150038D02*
D03*
X379600Y359282D02*
D03*
Y441765D02*
D03*
X354839Y362595D02*
D03*
X21269Y270906D02*
D03*
X105400Y232953D02*
D03*
X67450Y233398D02*
D03*
X92503Y206685D02*
D03*
X29711Y344172D02*
D03*
X41900Y323914D02*
D03*
X54600Y202495D02*
D03*
X67056Y412418D02*
D03*
X79947Y387639D02*
D03*
X180000Y132880D02*
D03*
X163661Y113715D02*
D03*
X133420D02*
D03*
X132206Y132880D02*
D03*
X54719Y268254D02*
D03*
X67577Y324484D02*
D03*
X117886Y203956D02*
D03*
X105479Y147953D02*
D03*
X80000Y148477D02*
D03*
Y172015D02*
D03*
X67300Y387424D02*
D03*
X41900Y412790D02*
D03*
X54600Y324839D02*
D03*
X41727Y236628D02*
D03*
X54600Y291303D02*
D03*
X480914Y427120D02*
D03*
X466104Y443087D02*
D03*
X425455Y185342D02*
D03*
X279259Y96555D02*
D03*
X303449Y111051D02*
D03*
X404179Y96500D02*
D03*
X427798Y110257D02*
D03*
X153032Y187120D02*
D03*
X151735Y307120D02*
D03*
X41900Y116386D02*
D03*
D22*
X90000Y30000D02*
D03*
X430000Y50000D02*
D03*
X410000Y30000D02*
D03*
X70000Y50000D02*
D03*
X220000D02*
D03*
X340000D02*
D03*
X160000D02*
D03*
X310000D02*
D03*
X190000D02*
D03*
X250000D02*
D03*
X280000D02*
D03*
M02*
