G04*
G04 #@! TF.GenerationSoftware,Altium Limited,Altium Designer,23.8.1 (32)*
G04*
G04 Layer_Color=2752767*
%FSLAX44Y44*%
%MOMM*%
G71*
G04*
G04 #@! TF.SameCoordinates,4E8033DB-9698-49A7-8747-1B8CF0FAEC2F*
G04*
G04*
G04 #@! TF.FilePolarity,Positive*
G04*
G01*
G75*
%ADD40C,0.1270*%
%ADD41C,0.1693*%
D40*
X193760Y365560D02*
Y375720D01*
X203920D01*
Y365560D01*
X193760D01*
X219160D02*
Y375720D01*
X229320D01*
Y365560D01*
X219160D01*
X244560D02*
Y375720D01*
X254720D01*
Y365560D01*
X244560D01*
X269960D02*
Y375720D01*
X280120D01*
Y365560D01*
X269960D01*
X295360D02*
Y375720D01*
X305520D01*
Y365560D01*
X295360D01*
Y215560D02*
Y225720D01*
X305520D01*
Y215560D01*
X295360D01*
X269960D02*
Y225720D01*
X280120D01*
Y215560D01*
X269960D01*
X244560D02*
Y225720D01*
X254720D01*
Y215560D01*
X244560D01*
X219160D02*
Y225720D01*
X229320D01*
Y215560D01*
X219160D01*
X193760D02*
Y225720D01*
X203920D01*
Y215560D01*
X193760D01*
X25000Y469920D02*
X27540Y472460D01*
X30080D01*
X27540Y475000D01*
X30080Y477540D01*
X27540D01*
X25000Y480080D01*
X22460Y477540D01*
X19920D01*
X22460Y475000D01*
X19920Y472460D01*
X22460D01*
X25000Y469920D01*
X475000Y19920D02*
X477540Y22460D01*
X480080D01*
X477540Y25000D01*
X480080Y27540D01*
X477540D01*
X475000Y30080D01*
X472460Y27540D01*
X469920D01*
X472460Y25000D01*
X469920Y22460D01*
X472460D01*
X475000Y19920D01*
X25000D02*
X27540Y22460D01*
X30080D01*
X27540Y25000D01*
X30080Y27540D01*
X27540D01*
X25000Y30080D01*
X22460Y27540D01*
X19920D01*
X22460Y25000D01*
X19920Y22460D01*
X22460D01*
X25000Y19920D01*
X475000Y469920D02*
X477540Y472460D01*
X480080D01*
X477540Y475000D01*
X480080Y477540D01*
X477540D01*
X475000Y480080D01*
X472460Y477540D01*
X469920D01*
X472460Y475000D01*
X469920Y472460D01*
X472460D01*
X475000Y469920D01*
X150515Y384989D02*
X145435Y395149D01*
X155595D01*
X150515Y384989D01*
X149982Y393362D02*
X144902Y403522D01*
X155062D01*
X149982Y393362D01*
X439226Y382832D02*
X434146Y392992D01*
X444306D01*
X439226Y382832D01*
X372176Y455180D02*
X367096Y465340D01*
X377256D01*
X372176Y455180D01*
X367714Y460780D02*
X362634Y470940D01*
X372794D01*
X367714Y460780D01*
X372447Y438408D02*
X367367Y448568D01*
X377527D01*
X372447Y438408D01*
X357078Y350657D02*
X351998Y360817D01*
X362158D01*
X357078Y350657D01*
X371553Y353688D02*
X366473Y363848D01*
X376633D01*
X371553Y353688D01*
X398563Y319276D02*
X393484Y329436D01*
X403643D01*
X398563Y319276D01*
X385934Y266025D02*
X380854Y276185D01*
X391014D01*
X385934Y266025D01*
X423556Y283602D02*
X418476Y293762D01*
X428636D01*
X423556Y283602D01*
X476959Y268669D02*
X471879Y278829D01*
X482039D01*
X476959Y268669D01*
X462516Y240651D02*
X457436Y250811D01*
X467596D01*
X462516Y240651D01*
X433336Y209595D02*
X428256Y219755D01*
X438416D01*
X433336Y209595D01*
X435306Y182390D02*
X430226Y192550D01*
X440386D01*
X435306Y182390D01*
X471000Y166100D02*
X465920Y176260D01*
X476080D01*
X471000Y166100D01*
X474067Y159600D02*
X468987Y169760D01*
X479147D01*
X474067Y159600D01*
X430195Y151897D02*
X425115Y162057D01*
X435275D01*
X430195Y151897D01*
X323596Y303010D02*
X318515Y313170D01*
X328675D01*
X323596Y303010D01*
X206094Y439630D02*
X201014Y449790D01*
X211174D01*
X206094Y439630D01*
X286785Y147695D02*
X281705Y157854D01*
X291865D01*
X286785Y147695D01*
X288000Y154920D02*
X282920Y165080D01*
X293080D01*
X288000Y154920D01*
X311212Y182410D02*
X306132Y192570D01*
X316292D01*
X311212Y182410D01*
X267889Y143532D02*
X262809Y153693D01*
X272969D01*
X267889Y143532D01*
X298989Y140315D02*
X293909Y150475D01*
X304069D01*
X298989Y140315D01*
X321356Y122649D02*
X316276Y132809D01*
X326436D01*
X321356Y122649D01*
X366951Y121975D02*
X361871Y132135D01*
X372031D01*
X366951Y121975D01*
X475232Y79545D02*
X470152Y89705D01*
X480312D01*
X475232Y79545D01*
X480555Y84920D02*
X475475Y95080D01*
X485635D01*
X480555Y84920D01*
X426244Y71088D02*
X421164Y81248D01*
X431324D01*
X426244Y71088D01*
X273567Y58468D02*
X268487Y68628D01*
X278647D01*
X273567Y58468D01*
X254613Y70202D02*
X249533Y80361D01*
X259693D01*
X254613Y70202D01*
X227380Y62902D02*
X222300Y73063D01*
X232460D01*
X227380Y62902D01*
X244309Y197416D02*
X239229Y207576D01*
X249389D01*
X244309Y197416D01*
X236209Y197027D02*
X231129Y207187D01*
X241289D01*
X236209Y197027D01*
X101429Y221360D02*
X96349Y231520D01*
X106509D01*
X101429Y221360D01*
X124608Y201496D02*
X119528Y211656D01*
X129688D01*
X124608Y201496D01*
X181699Y120724D02*
X176619Y130884D01*
X186779D01*
X181699Y120724D01*
X164991Y101587D02*
X159911Y111747D01*
X170072D01*
X164991Y101587D01*
X131754Y101528D02*
X126674Y111688D01*
X136834D01*
X131754Y101528D01*
X132762Y135061D02*
X127682Y145221D01*
X137842D01*
X132762Y135061D01*
X101458Y148755D02*
X96378Y158914D01*
X106538D01*
X101458Y148755D01*
X86461Y147861D02*
X81381Y158021D01*
X91541D01*
X86461Y147861D01*
X74029Y162236D02*
X68949Y172396D01*
X79109D01*
X74029Y162236D01*
X48608Y201355D02*
X43528Y211515D01*
X53688D01*
X48608Y201355D01*
X85456Y200665D02*
X80376Y210826D01*
X90536D01*
X85456Y200665D01*
X65173Y221330D02*
X60093Y231490D01*
X70253D01*
X65173Y221330D01*
X181894Y300680D02*
X176814Y310840D01*
X186974D01*
X181894Y300680D01*
X160564Y277624D02*
X155484Y287784D01*
X165644D01*
X160564Y277624D01*
X157193Y270599D02*
X152113Y280759D01*
X162273D01*
X157193Y270599D01*
X189000Y300920D02*
X183920Y311080D01*
X194080D01*
X189000Y300920D01*
X131927Y410055D02*
X126847Y420215D01*
X137007D01*
X131927Y410055D01*
X63080Y401205D02*
X58000Y411365D01*
X68160D01*
X63080Y401205D01*
X48592Y404881D02*
X43512Y415041D01*
X53672D01*
X48592Y404881D01*
X73647Y386740D02*
X68567Y396900D01*
X78727D01*
X73647Y386740D01*
X80000Y318930D02*
X74920Y329090D01*
X85080D01*
X80000Y318930D01*
X24411Y333963D02*
X19331Y344123D01*
X29491D01*
X24411Y333963D01*
X37281Y353919D02*
X32201Y364079D01*
X42361D01*
X37281Y353919D01*
X74080Y322897D02*
X69000Y333057D01*
X79160D01*
X74080Y322897D01*
X47940Y322797D02*
X42860Y332957D01*
X53020D01*
X47940Y322797D01*
X118016Y282189D02*
X112936Y292349D01*
X123096D01*
X118016Y282189D01*
X72692Y274901D02*
X67612Y285061D01*
X77772D01*
X72692Y274901D01*
X47600Y263230D02*
X42520Y273391D01*
X52680D01*
X47600Y263230D01*
X47484Y285871D02*
X42404Y296031D01*
X52564D01*
X47484Y285871D01*
X16057Y270651D02*
X10977Y280811D01*
X21137D01*
X16057Y270651D01*
X139449Y436116D02*
X134369Y446276D01*
X144529D01*
X139449Y436116D01*
X129449Y403211D02*
X124369Y413371D01*
X134529D01*
X129449Y403211D01*
X153855Y422040D02*
X148775Y432200D01*
X158935D01*
X153855Y422040D01*
X139086Y315863D02*
X134006Y326023D01*
X144166D01*
X139086Y315863D01*
X138769Y195705D02*
X133688Y205865D01*
X143848D01*
X138769Y195705D01*
X314986Y166176D02*
X317526Y171256D01*
X314986Y176336D01*
X320066Y173796D01*
X325146Y176336D01*
X322606Y171256D01*
X325146Y166176D01*
X320066Y168716D01*
X314986Y166176D01*
X323458Y295975D02*
X318378Y306136D01*
X328538D01*
X323458Y295975D01*
X118340Y275128D02*
X113260Y285288D01*
X123420D01*
X118340Y275128D01*
X158153Y263157D02*
X153073Y273317D01*
X163233D01*
X158153Y263157D01*
X389323Y159432D02*
X384243Y169592D01*
X394403D01*
X389323Y159432D01*
X484035Y288054D02*
X478955Y298214D01*
X489115D01*
X484035Y288054D01*
X468723Y290372D02*
X463643Y300532D01*
X473803D01*
X468723Y290372D01*
X439098Y389908D02*
X434018Y400068D01*
X444178D01*
X439098Y389908D01*
X30361Y356939D02*
X25281Y367099D01*
X35441D01*
X30361Y356939D01*
X349511Y210220D02*
X344431Y220380D01*
X354591D01*
X349511Y210220D01*
X440823Y209507D02*
X435743Y219667D01*
X445903D01*
X440823Y209507D01*
X79963Y274726D02*
X74882Y284886D01*
X85042D01*
X79963Y274726D01*
X58395Y74920D02*
X53315Y85080D01*
X63475D01*
X58395Y74920D01*
X81874D02*
X76794Y85080D01*
X86954D01*
X81874Y74920D01*
X250000Y64753D02*
X244920Y74913D01*
X255080D01*
X250000Y64753D01*
X280022Y61420D02*
X274942Y71580D01*
X285102D01*
X280022Y61420D01*
X220000Y63026D02*
X214920Y73186D01*
X225080D01*
X220000Y63026D01*
X426274Y78420D02*
X421194Y88580D01*
X431354D01*
X426274Y78420D01*
X403897Y166100D02*
X398817Y176260D01*
X408977D01*
X403897Y166100D01*
X194937Y329030D02*
X189857Y339190D01*
X200017D01*
X194937Y329030D01*
X198840Y439757D02*
X193760Y449917D01*
X203920D01*
X198840Y439757D01*
X304942Y144248D02*
X299862Y154408D01*
X310022D01*
X304942Y144248D01*
X366757Y234136D02*
X361677Y244296D01*
X371837D01*
X366757Y234136D01*
X423686Y154972D02*
X418606Y165132D01*
X428766D01*
X423686Y154972D01*
X484000Y268920D02*
X478920Y279080D01*
X489080D01*
X484000Y268920D01*
X463962Y315166D02*
X458882Y325326D01*
X469042D01*
X463962Y315166D01*
X365072Y128798D02*
X359992Y138958D01*
X370152D01*
X365072Y128798D01*
X324985D02*
X319905Y138958D01*
X330065D01*
X324985Y128798D01*
X396441Y156077D02*
X391361Y166238D01*
X401521D01*
X396441Y156077D01*
X348667Y84792D02*
X343587Y94952D01*
X353747D01*
X348667Y84792D01*
X351822Y78406D02*
X346741Y88566D01*
X356902D01*
X351822Y78406D01*
X314706Y189002D02*
X309627Y199161D01*
X319786D01*
X314706Y189002D01*
X384480Y182423D02*
X379400Y192582D01*
X389560D01*
X384480Y182423D01*
X304981Y177785D02*
X299901Y187945D01*
X310061D01*
X304981Y177785D01*
X469960Y243105D02*
X464880Y253265D01*
X475040D01*
X469960Y243105D01*
X440587Y187940D02*
X435507Y198100D01*
X445667D01*
X440587Y187940D01*
X383976Y165606D02*
X378896Y175766D01*
X389056D01*
X383976Y165606D01*
X338188Y184901D02*
X333108Y195061D01*
X343268D01*
X338188Y184901D01*
X379600Y262617D02*
X374520Y272777D01*
X384680D01*
X379600Y262617D01*
X392344Y315758D02*
X387264Y325918D01*
X397424D01*
X392344Y315758D01*
X420217Y277414D02*
X415137Y287575D01*
X425297D01*
X420217Y277414D01*
X405000Y316457D02*
X399920Y326617D01*
X410080D01*
X405000Y316457D01*
X430400Y349419D02*
X425320Y359579D01*
X435480D01*
X430400Y349419D01*
X405000Y349384D02*
X399920Y359544D01*
X410080D01*
X405000Y349384D01*
X275040Y144958D02*
X269960Y155118D01*
X280120D01*
X275040Y144958D01*
X379600Y354202D02*
X374520Y364362D01*
X384680D01*
X379600Y354202D01*
Y436685D02*
X374520Y446845D01*
X384680D01*
X379600Y436685D01*
X354839Y357515D02*
X349759Y367675D01*
X359919D01*
X354839Y357515D01*
X21269Y265826D02*
X16189Y275986D01*
X26349D01*
X21269Y265826D01*
X105400Y227873D02*
X100320Y238033D01*
X110480D01*
X105400Y227873D01*
X67450Y228318D02*
X62370Y238477D01*
X72530D01*
X67450Y228318D01*
X92503Y201605D02*
X87423Y211765D01*
X97583D01*
X92503Y201605D01*
X29711Y339092D02*
X24631Y349252D01*
X34791D01*
X29711Y339092D01*
X41900Y318834D02*
X36820Y328994D01*
X46980D01*
X41900Y318834D01*
X54600Y197415D02*
X49520Y207575D01*
X59680D01*
X54600Y197415D01*
X67056Y407338D02*
X61976Y417498D01*
X72136D01*
X67056Y407338D01*
X79947Y382559D02*
X74867Y392719D01*
X85027D01*
X79947Y382559D01*
X180000Y127800D02*
X174920Y137960D01*
X185080D01*
X180000Y127800D01*
X163661Y108635D02*
X158581Y118795D01*
X168741D01*
X163661Y108635D01*
X133420D02*
X128340Y118795D01*
X138500D01*
X133420Y108635D01*
X132206Y127800D02*
X127126Y137960D01*
X137286D01*
X132206Y127800D01*
X54719Y263174D02*
X49639Y273334D01*
X59799D01*
X54719Y263174D01*
X67577Y319404D02*
X62497Y329564D01*
X72657D01*
X67577Y319404D01*
X117886Y198876D02*
X112807Y209036D01*
X122966D01*
X117886Y198876D01*
X105479Y142873D02*
X100399Y153033D01*
X110559D01*
X105479Y142873D01*
X80000Y143397D02*
X74920Y153557D01*
X85080D01*
X80000Y143397D01*
Y166935D02*
X74920Y177095D01*
X85080D01*
X80000Y166935D01*
X67300Y382344D02*
X62220Y392504D01*
X72380D01*
X67300Y382344D01*
X41900Y407710D02*
X36820Y417870D01*
X46980D01*
X41900Y407710D01*
X54600Y319759D02*
X49520Y329919D01*
X59680D01*
X54600Y319759D01*
X41727Y231548D02*
X36647Y241708D01*
X46807D01*
X41727Y231548D01*
X54600Y286223D02*
X49520Y296383D01*
X59680D01*
X54600Y286223D01*
X480914Y422040D02*
X475834Y432200D01*
X485994D01*
X480914Y422040D01*
X466104Y438007D02*
X461024Y448167D01*
X471184D01*
X466104Y438007D01*
X425455Y180262D02*
X420375Y190422D01*
X430535D01*
X425455Y180262D01*
X279259Y91475D02*
X274179Y101635D01*
X284339D01*
X279259Y91475D01*
X303449Y105971D02*
X298370Y116131D01*
X308529D01*
X303449Y105971D01*
X404179Y91420D02*
X399100Y101580D01*
X409259D01*
X404179Y91420D01*
X427798Y105177D02*
X422718Y115337D01*
X432878D01*
X427798Y105177D01*
X153032Y182040D02*
X147952Y192200D01*
X158112D01*
X153032Y182040D01*
X151735Y302040D02*
X146655Y312200D01*
X156815D01*
X151735Y302040D01*
X41900Y111306D02*
X36820Y121467D01*
X46980D01*
X41900Y111306D01*
D41*
X95080Y30000D02*
G03*
X95080Y30000I-5080J0D01*
G01*
X435080Y50000D02*
G03*
X435080Y50000I-5080J0D01*
G01*
X415080Y30000D02*
G03*
X415080Y30000I-5080J0D01*
G01*
X75080Y50000D02*
G03*
X75080Y50000I-5080J0D01*
G01*
X225080D02*
G03*
X225080Y50000I-5080J0D01*
G01*
X345080D02*
G03*
X345080Y50000I-5080J0D01*
G01*
X165080D02*
G03*
X165080Y50000I-5080J0D01*
G01*
X315080D02*
G03*
X315080Y50000I-5080J0D01*
G01*
X195080D02*
G03*
X195080Y50000I-5080J0D01*
G01*
X255080D02*
G03*
X255080Y50000I-5080J0D01*
G01*
X285080D02*
G03*
X285080Y50000I-5080J0D01*
G01*
M02*
