G04*
G04 #@! TF.GenerationSoftware,Altium Limited,Altium Designer,23.8.1 (32)*
G04*
G04 Layer_Color=32896*
%FSLAX44Y44*%
%MOMM*%
G71*
G04*
G04 #@! TF.SameCoordinates,4E8033DB-9698-49A7-8747-1B8CF0FAEC2F*
G04*
G04*
G04 #@! TF.FilePolarity,Positive*
G04*
G01*
G75*
%ADD12C,0.2000*%
D12*
X323635Y170437D02*
X336360D01*
X323635Y183937D02*
X336360D01*
X363002Y181686D02*
X375002D01*
X65000Y73650D02*
X75000D01*
X65000Y86350D02*
X75000D01*
X453500Y183180D02*
X465500D01*
X413638Y89750D02*
X426362D01*
X413638Y103250D02*
X426362D01*
X288638Y89750D02*
X301362D01*
X288638Y103250D02*
X301362D01*
X329275Y101000D02*
X341275D01*
X458638Y300370D02*
X471362D01*
X458638Y313870D02*
X471362D01*
X453110Y101000D02*
X465110D01*
X449850Y245250D02*
Y260500D01*
X361750Y264000D02*
X448250D01*
X361750D02*
Y296000D01*
X448250D01*
Y264000D02*
Y296000D01*
Y384000D02*
Y416000D01*
X361750D02*
X448250D01*
X361750Y384000D02*
Y416000D01*
Y384000D02*
X448250D01*
X449850Y365250D02*
Y380500D01*
X124850Y125250D02*
Y140500D01*
X36750Y144000D02*
X123250D01*
X36750D02*
Y176000D01*
X123250D01*
Y144000D02*
Y176000D01*
X124850Y245250D02*
Y260500D01*
X36750Y264000D02*
X123250D01*
X36750D02*
Y296000D01*
X123250D01*
Y264000D02*
Y296000D01*
X124850Y365250D02*
Y380500D01*
X36750Y384000D02*
X123250D01*
X36750D02*
Y416000D01*
X123250D01*
Y384000D02*
Y416000D01*
X131738Y433870D02*
X144462D01*
X131738Y420370D02*
X144462D01*
X131738Y300370D02*
X144462D01*
X131738Y313870D02*
X144462D01*
X410638Y177930D02*
X423362D01*
X410638Y164430D02*
X423362D01*
X131738Y180370D02*
X144462D01*
X131738Y193870D02*
X144462D01*
X458638Y420370D02*
X471362D01*
X458638Y433870D02*
X471362D01*
X395974Y99565D02*
X396546Y100708D01*
X397688Y101850D01*
X398831Y102421D01*
X401116D01*
X402259Y101850D01*
X403401Y100708D01*
X403973Y99565D01*
X404544Y97851D01*
Y94994D01*
X403973Y93280D01*
X403401Y92138D01*
X402259Y90995D01*
X401116Y90424D01*
X398831D01*
X397688Y90995D01*
X396546Y92138D01*
X395974Y93280D01*
X392604Y100136D02*
X391461Y100708D01*
X389747Y102421D01*
Y90424D01*
X380378Y102421D02*
X382092Y101850D01*
X383234Y100136D01*
X383806Y97280D01*
Y95566D01*
X383234Y92709D01*
X382092Y90995D01*
X380378Y90424D01*
X379235D01*
X377521Y90995D01*
X376379Y92709D01*
X375807Y95566D01*
Y97280D01*
X376379Y100136D01*
X377521Y101850D01*
X379235Y102421D01*
X380378D01*
X271006Y99565D02*
X271578Y100708D01*
X272720Y101850D01*
X273863Y102421D01*
X276148D01*
X277291Y101850D01*
X278433Y100708D01*
X279005Y99565D01*
X279576Y97851D01*
Y94994D01*
X279005Y93280D01*
X278433Y92138D01*
X277291Y90995D01*
X276148Y90424D01*
X273863D01*
X272720Y90995D01*
X271578Y92138D01*
X271006Y93280D01*
X260209Y98422D02*
X260780Y96708D01*
X261923Y95566D01*
X263636Y94994D01*
X264208D01*
X265922Y95566D01*
X267064Y96708D01*
X267636Y98422D01*
Y98994D01*
X267064Y100708D01*
X265922Y101850D01*
X264208Y102421D01*
X263636D01*
X261923Y101850D01*
X260780Y100708D01*
X260209Y98422D01*
Y95566D01*
X260780Y92709D01*
X261923Y90995D01*
X263636Y90424D01*
X264779D01*
X266493Y90995D01*
X267064Y92138D01*
X418326Y153413D02*
X418898Y154556D01*
X420040Y155698D01*
X421183Y156269D01*
X423468D01*
X424611Y155698D01*
X425753Y154556D01*
X426325Y153413D01*
X426896Y151699D01*
Y148842D01*
X426325Y147128D01*
X425753Y145986D01*
X424611Y144843D01*
X423468Y144272D01*
X421183D01*
X420040Y144843D01*
X418898Y145986D01*
X418326Y147128D01*
X412099Y156269D02*
X413813Y155698D01*
X414384Y154556D01*
Y153413D01*
X413813Y152270D01*
X412671Y151699D01*
X410385Y151128D01*
X408671Y150556D01*
X407529Y149414D01*
X406957Y148271D01*
Y146557D01*
X407529Y145415D01*
X408100Y144843D01*
X409814Y144272D01*
X412099D01*
X413813Y144843D01*
X414384Y145415D01*
X414956Y146557D01*
Y148271D01*
X414384Y149414D01*
X413242Y150556D01*
X411528Y151128D01*
X409243Y151699D01*
X408100Y152270D01*
X407529Y153413D01*
Y154556D01*
X408100Y155698D01*
X409814Y156269D01*
X412099D01*
X331458Y159509D02*
X332030Y160651D01*
X333172Y161794D01*
X334315Y162365D01*
X336600D01*
X337743Y161794D01*
X338885Y160651D01*
X339457Y159509D01*
X340028Y157795D01*
Y154938D01*
X339457Y153224D01*
X338885Y152082D01*
X337743Y150939D01*
X336600Y150368D01*
X334315D01*
X333172Y150939D01*
X332030Y152082D01*
X331458Y153224D01*
X320089Y162365D02*
X325802Y150368D01*
X328088Y162365D02*
X320089D01*
X466078Y331213D02*
X466650Y332355D01*
X467792Y333498D01*
X468935Y334069D01*
X471220D01*
X472363Y333498D01*
X473505Y332355D01*
X474077Y331213D01*
X474648Y329499D01*
Y326642D01*
X474077Y324929D01*
X473505Y323786D01*
X472363Y322643D01*
X471220Y322072D01*
X468935D01*
X467792Y322643D01*
X466650Y323786D01*
X466078Y324929D01*
X455852Y332355D02*
X456423Y333498D01*
X458137Y334069D01*
X459280D01*
X460994Y333498D01*
X462136Y331784D01*
X462708Y328928D01*
Y326071D01*
X462136Y323786D01*
X460994Y322643D01*
X459280Y322072D01*
X458708D01*
X456995Y322643D01*
X455852Y323786D01*
X455281Y325500D01*
Y326071D01*
X455852Y327785D01*
X456995Y328928D01*
X458708Y329499D01*
X459280D01*
X460994Y328928D01*
X462136Y327785D01*
X462708Y326071D01*
X466332Y451101D02*
X466904Y452243D01*
X468046Y453386D01*
X469189Y453957D01*
X471474D01*
X472617Y453386D01*
X473759Y452243D01*
X474331Y451101D01*
X474902Y449387D01*
Y446530D01*
X474331Y444817D01*
X473759Y443674D01*
X472617Y442531D01*
X471474Y441960D01*
X469189D01*
X468046Y442531D01*
X466904Y443674D01*
X466332Y444817D01*
X456106Y453957D02*
X461819D01*
X462390Y448816D01*
X461819Y449387D01*
X460105Y449958D01*
X458391D01*
X456677Y449387D01*
X455535Y448244D01*
X454963Y446530D01*
Y445388D01*
X455535Y443674D01*
X456677Y442531D01*
X458391Y441960D01*
X460105D01*
X461819Y442531D01*
X462390Y443103D01*
X462962Y444245D01*
X139688Y211071D02*
X140260Y212213D01*
X141402Y213356D01*
X142545Y213927D01*
X144830D01*
X145973Y213356D01*
X147115Y212213D01*
X147687Y211071D01*
X148258Y209357D01*
Y206500D01*
X147687Y204786D01*
X147115Y203644D01*
X145973Y202501D01*
X144830Y201930D01*
X142545D01*
X141402Y202501D01*
X140260Y203644D01*
X139688Y204786D01*
X130605Y213927D02*
X136318Y205929D01*
X127748D01*
X130605Y213927D02*
Y201930D01*
X139434Y331213D02*
X140006Y332355D01*
X141148Y333498D01*
X142291Y334069D01*
X144576D01*
X145719Y333498D01*
X146861Y332355D01*
X147433Y331213D01*
X148004Y329499D01*
Y326642D01*
X147433Y324929D01*
X146861Y323786D01*
X145719Y322643D01*
X144576Y322072D01*
X142291D01*
X141148Y322643D01*
X140006Y323786D01*
X139434Y324929D01*
X134921Y334069D02*
X128637D01*
X132065Y329499D01*
X130351D01*
X129208Y328928D01*
X128637Y328356D01*
X128065Y326642D01*
Y325500D01*
X128637Y323786D01*
X129779Y322643D01*
X131493Y322072D01*
X133207D01*
X134921Y322643D01*
X135492Y323215D01*
X136064Y324357D01*
X68822Y103629D02*
X69394Y104771D01*
X70536Y105914D01*
X71679Y106485D01*
X73964D01*
X75107Y105914D01*
X76249Y104771D01*
X76821Y103629D01*
X77392Y101915D01*
Y99059D01*
X76821Y97345D01*
X76249Y96202D01*
X75107Y95059D01*
X73964Y94488D01*
X71679D01*
X70536Y95059D01*
X69394Y96202D01*
X68822Y97345D01*
X65452Y104200D02*
X64309Y104771D01*
X62595Y106485D01*
Y94488D01*
X420940Y455390D02*
Y443392D01*
X424939Y455390D02*
X416941D01*
X414370D02*
X408086D01*
X411514Y450819D01*
X409800D01*
X408657Y450248D01*
X408086Y449677D01*
X407515Y447963D01*
Y446820D01*
X408086Y445106D01*
X409229Y443963D01*
X410942Y443392D01*
X412656D01*
X414370Y443963D01*
X414941Y444535D01*
X415513Y445677D01*
X401402Y455390D02*
X402544Y454818D01*
X403687Y453676D01*
X404258Y452533D01*
X404829Y450819D01*
Y447963D01*
X404258Y446249D01*
X403687Y445106D01*
X402544Y443963D01*
X401402Y443392D01*
X399116D01*
X397974Y443963D01*
X396831Y445106D01*
X396260Y446249D01*
X395689Y447963D01*
Y450819D01*
X396260Y452533D01*
X396831Y453676D01*
X397974Y454818D01*
X399116Y455390D01*
X401402D01*
X392889D02*
Y443392D01*
Y455390D02*
X387747D01*
X386033Y454818D01*
X385462Y454247D01*
X384891Y453104D01*
Y451962D01*
X385462Y450819D01*
X386033Y450248D01*
X387747Y449677D01*
X392889D01*
X388890D02*
X384891Y443392D01*
X468428Y201546D02*
X469570Y202688D01*
X471284Y203259D01*
X473569D01*
X475283Y202688D01*
X476426Y201546D01*
Y200403D01*
X475855Y199260D01*
X475283Y198689D01*
X474141Y198118D01*
X470713Y196975D01*
X469570Y196404D01*
X468999Y195833D01*
X468428Y194690D01*
Y192976D01*
X469570Y191833D01*
X471284Y191262D01*
X473569D01*
X475283Y191833D01*
X476426Y192976D01*
X464600Y203259D02*
X458316D01*
X461743Y198689D01*
X460029D01*
X458887Y198118D01*
X458316Y197546D01*
X457744Y195833D01*
Y194690D01*
X458316Y192976D01*
X459458Y191833D01*
X461172Y191262D01*
X462886D01*
X464600Y191833D01*
X465171Y192405D01*
X465743Y193547D01*
X445918Y191262D02*
X450489Y203259D01*
X455059Y191262D01*
X453345Y195261D02*
X447632D01*
X443119Y203259D02*
Y191262D01*
Y203259D02*
X435121Y191262D01*
Y203259D02*
Y191262D01*
X431807Y203259D02*
Y191262D01*
Y203259D02*
X427808D01*
X426094Y202688D01*
X424951Y201546D01*
X424380Y200403D01*
X423809Y198689D01*
Y195833D01*
X424380Y194118D01*
X424951Y192976D01*
X426094Y191833D01*
X427808Y191262D01*
X431807D01*
X462332Y119249D02*
X463474Y120392D01*
X465188Y120963D01*
X467473D01*
X469187Y120392D01*
X470330Y119249D01*
Y118107D01*
X469759Y116964D01*
X469187Y116393D01*
X468045Y115822D01*
X464617Y114679D01*
X463474Y114108D01*
X462903Y113537D01*
X462332Y112394D01*
Y110680D01*
X463474Y109537D01*
X465188Y108966D01*
X467473D01*
X469187Y109537D01*
X470330Y110680D01*
X459075Y118107D02*
Y118678D01*
X458504Y119821D01*
X457933Y120392D01*
X456790Y120963D01*
X454505D01*
X453362Y120392D01*
X452791Y119821D01*
X452220Y118678D01*
Y117536D01*
X452791Y116393D01*
X453933Y114679D01*
X459647Y108966D01*
X451648D01*
X445535Y120963D02*
X446678Y120392D01*
X447821Y119249D01*
X448392Y118107D01*
X448963Y116393D01*
Y113537D01*
X448392Y111823D01*
X447821Y110680D01*
X446678Y109537D01*
X445535Y108966D01*
X443250D01*
X442108Y109537D01*
X440965Y110680D01*
X440394Y111823D01*
X439822Y113537D01*
Y116393D01*
X440394Y118107D01*
X440965Y119249D01*
X442108Y120392D01*
X443250Y120963D01*
X445535D01*
X437023D02*
Y108966D01*
Y120963D02*
X431881D01*
X430167Y120392D01*
X429596Y119821D01*
X429025Y118678D01*
Y117536D01*
X429596Y116393D01*
X430167Y115822D01*
X431881Y115250D01*
X437023D01*
X433024D02*
X429025Y108966D01*
X349810Y119249D02*
X350952Y120392D01*
X352666Y120963D01*
X354952D01*
X356665Y120392D01*
X357808Y119249D01*
Y118107D01*
X357237Y116964D01*
X356665Y116393D01*
X355523Y115822D01*
X352095Y114679D01*
X350952Y114108D01*
X350381Y113537D01*
X349810Y112394D01*
Y110680D01*
X350952Y109537D01*
X352666Y108966D01*
X354952D01*
X356665Y109537D01*
X357808Y110680D01*
X346553Y118107D02*
Y118678D01*
X345982Y119821D01*
X345411Y120392D01*
X344268Y120963D01*
X341983D01*
X340840Y120392D01*
X340269Y119821D01*
X339698Y118678D01*
Y117536D01*
X340269Y116393D01*
X341412Y114679D01*
X347125Y108966D01*
X339126D01*
X336441Y120963D02*
Y108966D01*
Y120963D02*
X328443Y108966D01*
Y120963D02*
Y108966D01*
X315988D02*
X320559Y120963D01*
X325129Y108966D01*
X323415Y112965D02*
X317702D01*
X313189Y120963D02*
Y108966D01*
Y120963D02*
X305191Y108966D01*
Y120963D02*
Y108966D01*
X301877Y120963D02*
Y108966D01*
Y120963D02*
X297878D01*
X296164Y120392D01*
X295021Y119249D01*
X294450Y118107D01*
X293879Y116393D01*
Y113537D01*
X294450Y111823D01*
X295021Y110680D01*
X296164Y109537D01*
X297878Y108966D01*
X301877D01*
X377750Y200021D02*
X378892Y201164D01*
X380606Y201735D01*
X382892D01*
X384605Y201164D01*
X385748Y200021D01*
Y198879D01*
X385177Y197736D01*
X384605Y197165D01*
X383463Y196594D01*
X380035Y195451D01*
X378892Y194880D01*
X378321Y194308D01*
X377750Y193166D01*
Y191452D01*
X378892Y190309D01*
X380606Y189738D01*
X382892D01*
X384605Y190309D01*
X385748Y191452D01*
X374493Y198879D02*
Y199450D01*
X373922Y200593D01*
X373351Y201164D01*
X372208Y201735D01*
X369923D01*
X368780Y201164D01*
X368209Y200593D01*
X367638Y199450D01*
Y198308D01*
X368209Y197165D01*
X369352Y195451D01*
X375065Y189738D01*
X367066D01*
X355240D02*
X359811Y201735D01*
X364381Y189738D01*
X362667Y193737D02*
X356954D01*
X352441Y201735D02*
Y189738D01*
Y201735D02*
X344443Y189738D01*
Y201735D02*
Y189738D01*
X341129Y201735D02*
Y189738D01*
Y201735D02*
X337130D01*
X335416Y201164D01*
X334273Y200021D01*
X333702Y198879D01*
X333131Y197165D01*
Y194308D01*
X333702Y192595D01*
X334273Y191452D01*
X335416Y190309D01*
X337130Y189738D01*
X341129D01*
X284148Y146109D02*
Y134112D01*
Y146109D02*
X279006D01*
X277292Y145538D01*
X276721Y144967D01*
X276150Y143824D01*
Y142682D01*
X276721Y141539D01*
X277292Y140968D01*
X279006Y140396D01*
X284148D01*
X280149D02*
X276150Y134112D01*
X266038Y142110D02*
X266609Y140396D01*
X267752Y139254D01*
X269465Y138682D01*
X270037D01*
X271751Y139254D01*
X272893Y140396D01*
X273465Y142110D01*
Y142682D01*
X272893Y144396D01*
X271751Y145538D01*
X270037Y146109D01*
X269465D01*
X267752Y145538D01*
X266609Y144396D01*
X266038Y142110D01*
Y139254D01*
X266609Y136397D01*
X267752Y134683D01*
X269465Y134112D01*
X270608D01*
X272322Y134683D01*
X272893Y135826D01*
X233602Y146109D02*
Y134112D01*
Y146109D02*
X228460D01*
X226746Y145538D01*
X226175Y144967D01*
X225604Y143824D01*
Y142682D01*
X226175Y141539D01*
X226746Y140968D01*
X228460Y140396D01*
X233602D01*
X229603D02*
X225604Y134112D01*
X220062Y146109D02*
X221776Y145538D01*
X222347Y144396D01*
Y143253D01*
X221776Y142110D01*
X220633Y141539D01*
X218348Y140968D01*
X216634Y140396D01*
X215492Y139254D01*
X214920Y138111D01*
Y136397D01*
X215492Y135255D01*
X216063Y134683D01*
X217777Y134112D01*
X220062D01*
X221776Y134683D01*
X222347Y135255D01*
X222919Y136397D01*
Y138111D01*
X222347Y139254D01*
X221205Y140396D01*
X219491Y140968D01*
X217206Y141539D01*
X216063Y142110D01*
X215492Y143253D01*
Y144396D01*
X216063Y145538D01*
X217777Y146109D01*
X220062D01*
X208202D02*
Y134112D01*
Y146109D02*
X203060D01*
X201346Y145538D01*
X200775Y144967D01*
X200204Y143824D01*
Y142682D01*
X200775Y141539D01*
X201346Y140968D01*
X203060Y140396D01*
X208202D01*
X204203D02*
X200204Y134112D01*
X189520Y146109D02*
X195233Y134112D01*
X197519Y146109D02*
X189520D01*
X284148Y455735D02*
Y443738D01*
Y455735D02*
X279006D01*
X277292Y455164D01*
X276721Y454593D01*
X276150Y453450D01*
Y452308D01*
X276721Y451165D01*
X277292Y450594D01*
X279006Y450022D01*
X284148D01*
X280149D02*
X276150Y443738D01*
X266609Y454021D02*
X267180Y455164D01*
X268894Y455735D01*
X270037D01*
X271751Y455164D01*
X272893Y453450D01*
X273465Y450594D01*
Y447737D01*
X272893Y445452D01*
X271751Y444309D01*
X270037Y443738D01*
X269465D01*
X267752Y444309D01*
X266609Y445452D01*
X266038Y447166D01*
Y447737D01*
X266609Y449451D01*
X267752Y450594D01*
X269465Y451165D01*
X270037D01*
X271751Y450594D01*
X272893Y449451D01*
X273465Y447737D01*
X309802Y455735D02*
Y443738D01*
Y455735D02*
X304660D01*
X302946Y455164D01*
X302375Y454593D01*
X301804Y453450D01*
Y452308D01*
X302375Y451165D01*
X302946Y450594D01*
X304660Y450022D01*
X309802D01*
X305803D02*
X301804Y443738D01*
X292263Y455735D02*
X297976D01*
X298547Y450594D01*
X297976Y451165D01*
X296262Y451736D01*
X294548D01*
X292834Y451165D01*
X291692Y450022D01*
X291120Y448308D01*
Y447166D01*
X291692Y445452D01*
X292834Y444309D01*
X294548Y443738D01*
X296262D01*
X297976Y444309D01*
X298547Y444881D01*
X299119Y446023D01*
X233856Y455735D02*
Y443738D01*
Y455735D02*
X228714D01*
X227000Y455164D01*
X226429Y454593D01*
X225858Y453450D01*
Y452308D01*
X226429Y451165D01*
X227000Y450594D01*
X228714Y450022D01*
X233856D01*
X229857D02*
X225858Y443738D01*
X217460Y455735D02*
X223173Y447737D01*
X214603D01*
X217460Y455735D02*
Y443738D01*
X208202Y455735D02*
Y443738D01*
Y455735D02*
X203060D01*
X201346Y455164D01*
X200775Y454593D01*
X200204Y453450D01*
Y452308D01*
X200775Y451165D01*
X201346Y450594D01*
X203060Y450022D01*
X208202D01*
X204203D02*
X200204Y443738D01*
X196376Y455735D02*
X190092D01*
X193519Y451165D01*
X191805D01*
X190663Y450594D01*
X190092Y450022D01*
X189520Y448308D01*
Y447166D01*
X190092Y445452D01*
X191234Y444309D01*
X192948Y443738D01*
X194662D01*
X196376Y444309D01*
X196947Y444881D01*
X197519Y446023D01*
X140638Y53399D02*
Y41402D01*
Y53399D02*
X135496D01*
X133782Y52828D01*
X133211Y52257D01*
X132640Y51114D01*
Y49972D01*
X133211Y48829D01*
X133782Y48258D01*
X135496Y47686D01*
X140638D01*
X136639D02*
X132640Y41402D01*
X129383Y50543D02*
Y51114D01*
X128812Y52257D01*
X128241Y52828D01*
X127098Y53399D01*
X124813D01*
X123670Y52828D01*
X123099Y52257D01*
X122528Y51114D01*
Y49972D01*
X123099Y48829D01*
X124242Y47115D01*
X129955Y41402D01*
X121956D01*
X371778Y53399D02*
Y41402D01*
Y53399D02*
X366636D01*
X364922Y52828D01*
X364351Y52257D01*
X363780Y51114D01*
Y49972D01*
X364351Y48829D01*
X364922Y48258D01*
X366636Y47686D01*
X371778D01*
X367779D02*
X363780Y41402D01*
X361095Y51114D02*
X359952Y51686D01*
X358238Y53399D01*
Y41402D01*
X97283Y215276D02*
X98426Y214704D01*
X99569Y213562D01*
X100140Y212419D01*
X100711Y210705D01*
Y207849D01*
X100140Y206135D01*
X99569Y204992D01*
X98426Y203850D01*
X97283Y203278D01*
X94998D01*
X93856Y203850D01*
X92713Y204992D01*
X92142Y206135D01*
X91570Y207849D01*
Y210705D01*
X92142Y212419D01*
X92713Y213562D01*
X93856Y214704D01*
X94998Y215276D01*
X97283D01*
X95570Y205563D02*
X92142Y202136D01*
X88200Y212419D02*
Y212990D01*
X87628Y214133D01*
X87057Y214704D01*
X85914Y215276D01*
X83629D01*
X82487Y214704D01*
X81915Y214133D01*
X81344Y212990D01*
Y211848D01*
X81915Y210705D01*
X83058Y208991D01*
X88771Y203278D01*
X80773D01*
X74660Y215276D02*
X75802Y214704D01*
X76945Y213562D01*
X77516Y212419D01*
X78088Y210705D01*
Y207849D01*
X77516Y206135D01*
X76945Y204992D01*
X75802Y203850D01*
X74660Y203278D01*
X72375D01*
X71232Y203850D01*
X70089Y204992D01*
X69518Y206135D01*
X68947Y207849D01*
Y210705D01*
X69518Y212419D01*
X70089Y213562D01*
X71232Y214704D01*
X72375Y215276D01*
X74660D01*
X66147D02*
Y203278D01*
Y215276D02*
X61006D01*
X59292Y214704D01*
X58720Y214133D01*
X58149Y212990D01*
Y211848D01*
X58720Y210705D01*
X59292Y210134D01*
X61006Y209562D01*
X66147D01*
X62148D02*
X58149Y203278D01*
X103764Y456067D02*
X104907Y455495D01*
X106049Y454353D01*
X106620Y453210D01*
X107192Y451496D01*
Y448640D01*
X106620Y446926D01*
X106049Y445783D01*
X104907Y444641D01*
X103764Y444069D01*
X101479D01*
X100336Y444641D01*
X99193Y445783D01*
X98622Y446926D01*
X98051Y448640D01*
Y451496D01*
X98622Y453210D01*
X99193Y454353D01*
X100336Y455495D01*
X101479Y456067D01*
X103764D01*
X102050Y446354D02*
X98622Y442927D01*
X94680Y453210D02*
Y453781D01*
X94109Y454924D01*
X93538Y455495D01*
X92395Y456067D01*
X90110D01*
X88967Y455495D01*
X88396Y454924D01*
X87824Y453781D01*
Y452639D01*
X88396Y451496D01*
X89538Y449782D01*
X95251Y444069D01*
X87253D01*
X84568Y456067D02*
Y444069D01*
Y456067D02*
X76570Y444069D01*
Y456067D02*
Y444069D01*
X69828Y456067D02*
X70971Y455495D01*
X72113Y454353D01*
X72685Y453210D01*
X73256Y451496D01*
Y448640D01*
X72685Y446926D01*
X72113Y445783D01*
X70971Y444641D01*
X69828Y444069D01*
X67543D01*
X66400Y444641D01*
X65258Y445783D01*
X64686Y446926D01*
X64115Y448640D01*
Y451496D01*
X64686Y453210D01*
X65258Y454353D01*
X66400Y455495D01*
X67543Y456067D01*
X69828D01*
X61316D02*
Y444069D01*
Y456067D02*
X56174D01*
X54460Y455495D01*
X53889Y454924D01*
X53317Y453781D01*
Y452639D01*
X53889Y451496D01*
X54460Y450925D01*
X56174Y450354D01*
X61316D01*
X57317D02*
X53317Y444069D01*
X428927Y334528D02*
X430069Y333956D01*
X431212Y332814D01*
X431783Y331671D01*
X432354Y329957D01*
Y327101D01*
X431783Y325387D01*
X431212Y324244D01*
X430069Y323101D01*
X428927Y322530D01*
X426641D01*
X425499Y323101D01*
X424356Y324244D01*
X423785Y325387D01*
X423214Y327101D01*
Y329957D01*
X423785Y331671D01*
X424356Y332814D01*
X425499Y333956D01*
X426641Y334528D01*
X428927D01*
X427213Y324815D02*
X423785Y321387D01*
X419843Y331671D02*
Y332242D01*
X419271Y333385D01*
X418700Y333956D01*
X417557Y334528D01*
X415272D01*
X414130Y333956D01*
X413558Y333385D01*
X412987Y332242D01*
Y331100D01*
X413558Y329957D01*
X414701Y328243D01*
X420414Y322530D01*
X412416D01*
X400590D02*
X405160Y334528D01*
X409731Y322530D01*
X408017Y326529D02*
X402304D01*
X397790Y334528D02*
Y322530D01*
Y334528D02*
X389792Y322530D01*
Y334528D02*
Y322530D01*
X386478Y334528D02*
Y322530D01*
Y334528D02*
X382479D01*
X380765Y333956D01*
X379623Y332814D01*
X379052Y331671D01*
X378480Y329957D01*
Y327101D01*
X379052Y325387D01*
X379623Y324244D01*
X380765Y323101D01*
X382479Y322530D01*
X386478D01*
X97712Y331884D02*
Y319887D01*
X89714Y331884D02*
Y319887D01*
X97712Y326171D02*
X89714D01*
X86401Y331884D02*
Y319887D01*
X83887Y331884D02*
Y319887D01*
Y331884D02*
X75889Y319887D01*
Y331884D02*
Y319887D01*
X72575Y331884D02*
X68005Y319887D01*
X63434Y331884D02*
X68005Y319887D01*
X139434Y451101D02*
X140006Y452243D01*
X141148Y453386D01*
X142291Y453957D01*
X144576D01*
X145719Y453386D01*
X146861Y452243D01*
X147433Y451101D01*
X148004Y449387D01*
Y446530D01*
X147433Y444817D01*
X146861Y443674D01*
X145719Y442531D01*
X144576Y441960D01*
X142291D01*
X141148Y442531D01*
X140006Y443674D01*
X139434Y444817D01*
X135492Y451101D02*
Y451672D01*
X134921Y452815D01*
X134350Y453386D01*
X133207Y453957D01*
X130922D01*
X129779Y453386D01*
X129208Y452815D01*
X128637Y451672D01*
Y450530D01*
X129208Y449387D01*
X130351Y447673D01*
X136064Y441960D01*
X128065D01*
M02*
