G04*
G04 #@! TF.GenerationSoftware,Altium Limited,Altium Designer,23.8.1 (32)*
G04*
G04 Layer_Color=8388736*
%FSLAX44Y44*%
%MOMM*%
G71*
G04*
G04 #@! TF.SameCoordinates,4E8033DB-9698-49A7-8747-1B8CF0FAEC2F*
G04*
G04*
G04 #@! TF.FilePolarity,Positive*
G04*
G01*
G75*
%ADD11C,0.1000*%
%ADD12C,0.2000*%
D11*
X198840Y203640D02*
G03*
X198840Y202640I0J-500D01*
G01*
D02*
G03*
X198840Y203640I0J500D01*
G01*
X233672Y303499D02*
X238337D01*
Y302333D01*
X233672Y297668D01*
Y296501D01*
X252333Y302333D02*
X251166Y303499D01*
X248834D01*
X247667Y302333D01*
Y301166D01*
X248834Y300000D01*
X251166D01*
X252333Y298834D01*
Y297668D01*
X251166Y296501D01*
X248834D01*
X247667Y297668D01*
X259330Y303499D02*
X254665D01*
Y296501D01*
X259330D01*
X254665Y300000D02*
X256998D01*
X266328Y302333D02*
X265162Y303499D01*
X262829D01*
X261663Y302333D01*
Y297668D01*
X262829Y296501D01*
X265162D01*
X266328Y297668D01*
Y300000D01*
X263995D01*
D12*
X187640Y208140D02*
Y383140D01*
Y208140D02*
X311640D01*
Y383140D01*
X187640D02*
X311640D01*
M02*
