G04*
G04 #@! TF.GenerationSoftware,Altium Limited,Altium Designer,23.8.1 (32)*
G04*
G04 Layer_Color=128*
%FSLAX44Y44*%
%MOMM*%
G71*
G04*
G04 #@! TF.SameCoordinates,B1DDD4D6-6927-4A11-B6FF-346F9E1F7E25*
G04*
G04*
G04 #@! TF.FilePolarity,Positive*
G04*
G01*
G75*
%ADD92C,0.1270*%
D92*
X64080Y97790D02*
X73080D01*
X68580Y93290D02*
Y102290D01*
X64080Y77790D02*
X73080D01*
X68580Y73290D02*
Y82290D01*
X64080Y154940D02*
X73080D01*
X68580Y150440D02*
Y159440D01*
X64080Y174940D02*
X73080D01*
X68580Y170440D02*
Y179440D01*
X442450Y622430D02*
X455750D01*
X449100Y615780D02*
Y629080D01*
X370950Y622430D02*
X384250D01*
X377600Y615780D02*
Y629080D01*
X247060Y516620D02*
X258060D01*
X252560Y511120D02*
Y522120D01*
X247060Y542020D02*
X258060D01*
X252560Y536520D02*
Y547520D01*
X578430Y240670D02*
X587430D01*
X582930Y236170D02*
Y245170D01*
X578430Y260670D02*
X587430D01*
X582930Y256170D02*
Y265170D01*
X578430Y280670D02*
X587430D01*
X582930Y276170D02*
Y285170D01*
X610000Y30000D02*
X630000D01*
X620000Y20000D02*
Y40000D01*
X20000Y30000D02*
X40000D01*
X30000Y20000D02*
Y40000D01*
X525000Y535000D02*
X545000D01*
X535000Y525000D02*
Y545000D01*
X105000Y535000D02*
X125000D01*
X115000Y525000D02*
Y545000D01*
X177950Y536220D02*
X194950D01*
X186450Y527720D02*
Y544720D01*
X150950Y561220D02*
X167950D01*
X159450Y552720D02*
Y569720D01*
X177950Y586220D02*
X194950D01*
X186450Y577720D02*
Y594720D01*
X312460Y579320D02*
X323460D01*
X317960Y573820D02*
Y584820D01*
X287060Y579320D02*
X298060D01*
X292560Y573820D02*
Y584820D01*
X261660Y579320D02*
X272660D01*
X267160Y573820D02*
Y584820D01*
X327000Y516370D02*
X338000D01*
X332500Y510870D02*
Y521870D01*
X327000Y541770D02*
X338000D01*
X332500Y536270D02*
Y547270D01*
X62810Y230190D02*
X71810D01*
X67310Y225690D02*
Y234690D01*
X62810Y250190D02*
X71810D01*
X67310Y245690D02*
Y254690D01*
X62810Y270190D02*
X71810D01*
X67310Y265690D02*
Y274690D01*
X95390Y440320D02*
X98390D01*
X96890Y438820D02*
Y441820D01*
X210000Y298000D02*
X216000D01*
X213000Y295000D02*
Y301000D01*
X532000Y400000D02*
X538000D01*
X535000Y397000D02*
Y403000D01*
X512000Y400000D02*
X518000D01*
X515000Y397000D02*
Y403000D01*
X512000Y420000D02*
X518000D01*
X515000Y417000D02*
Y423000D01*
X492000Y420000D02*
X498000D01*
X495000Y417000D02*
Y423000D01*
X472000Y420000D02*
X478000D01*
X475000Y417000D02*
Y423000D01*
X452000Y420000D02*
X458000D01*
X455000Y417000D02*
Y423000D01*
X512000Y440000D02*
X518000D01*
X515000Y437000D02*
Y443000D01*
X492000Y440000D02*
X498000D01*
X495000Y437000D02*
Y443000D01*
X472000Y440000D02*
X478000D01*
X475000Y437000D02*
Y443000D01*
X452000Y440000D02*
X458000D01*
X455000Y437000D02*
Y443000D01*
X130000Y235000D02*
X136000D01*
X133000Y232000D02*
Y238000D01*
X149000Y260000D02*
X155000D01*
X152000Y257000D02*
Y263000D01*
X130000Y280000D02*
X136000D01*
X133000Y277000D02*
Y283000D01*
X150000Y298000D02*
X156000D01*
X153000Y295000D02*
Y301000D01*
X130000Y298000D02*
X136000D01*
X133000Y295000D02*
Y301000D01*
X210000Y330000D02*
X216000D01*
X213000Y327000D02*
Y333000D01*
X150000Y330000D02*
X156000D01*
X153000Y327000D02*
Y333000D01*
X130000Y330000D02*
X136000D01*
X133000Y327000D02*
Y333000D01*
X210000Y350000D02*
X216000D01*
X213000Y347000D02*
Y353000D01*
X190000Y350000D02*
X196000D01*
X193000Y347000D02*
Y353000D01*
X170000Y350000D02*
X176000D01*
X173000Y347000D02*
Y353000D01*
X150000Y350000D02*
X156000D01*
X153000Y347000D02*
Y353000D01*
X130000Y350000D02*
X136000D01*
X133000Y347000D02*
Y353000D01*
X512000Y375000D02*
X518000D01*
X515000Y372000D02*
Y378000D01*
X512000Y355000D02*
X518000D01*
X515000Y352000D02*
Y358000D01*
X492000Y375000D02*
X498000D01*
X495000Y372000D02*
Y378000D01*
X492000Y355000D02*
X498000D01*
X495000Y352000D02*
Y358000D01*
X532000Y355000D02*
X538000D01*
X535000Y352000D02*
Y358000D01*
X532000Y375000D02*
X538000D01*
X535000Y372000D02*
Y378000D01*
X532000Y420000D02*
X538000D01*
X535000Y417000D02*
Y423000D01*
X532000Y440000D02*
X538000D01*
X535000Y437000D02*
Y443000D01*
X456920Y209870D02*
X458920D01*
X457920Y208870D02*
Y210870D01*
X460836Y219539D02*
X462836D01*
X461836Y218539D02*
Y220539D01*
X207960Y282725D02*
X209960D01*
X208960Y281725D02*
Y283725D01*
X191936Y211434D02*
X193937D01*
X192936Y210434D02*
Y212434D01*
X302971Y205711D02*
X304972D01*
X303972Y204711D02*
Y206711D01*
X339310Y263835D02*
X341310D01*
X340310Y262835D02*
Y264835D01*
X364777Y216856D02*
X366777D01*
X365777Y215856D02*
Y217855D01*
X351790Y227288D02*
X353790D01*
X352790Y226288D02*
Y228288D01*
X414290Y323850D02*
X416290D01*
X415290Y322850D02*
Y324850D01*
X418180Y298450D02*
X420180D01*
X419180Y297450D02*
Y299450D01*
X414246Y293685D02*
X416246D01*
X415246Y292685D02*
Y294685D01*
X413100Y183900D02*
X415100D01*
X414100Y182900D02*
Y184900D01*
X420100Y183900D02*
X422100D01*
X421100Y182900D02*
Y184900D01*
X424616Y199020D02*
X426616D01*
X425616Y198020D02*
Y200020D01*
X395240Y207010D02*
X397240D01*
X396240Y206010D02*
Y208010D01*
X408006Y197320D02*
X410006D01*
X409006Y196320D02*
Y198320D01*
X524280Y492760D02*
X527280D01*
X525780Y491260D02*
Y494260D01*
X469318Y513798D02*
X472318D01*
X470818Y512298D02*
Y515298D01*
X374422Y551182D02*
X377422D01*
X375922Y549682D02*
Y552682D01*
X351562Y614682D02*
X354562D01*
X353062Y613182D02*
Y616182D01*
X441322Y513802D02*
X444322D01*
X442822Y512302D02*
Y515302D01*
X140223Y188710D02*
X142223D01*
X141223Y187710D02*
Y189710D01*
X206010Y233680D02*
X208010D01*
X207010Y232680D02*
Y234680D01*
X407239Y334288D02*
X409239D01*
X408239Y333288D02*
Y335288D01*
X407490Y323540D02*
X409490D01*
X408490Y322540D02*
Y324540D01*
X339360Y257810D02*
X341360D01*
X340360Y256810D02*
Y258810D01*
X324050Y189080D02*
X326050D01*
X325050Y188080D02*
Y190080D01*
X388890Y322580D02*
X390890D01*
X389890Y321580D02*
Y323580D01*
X388440Y330140D02*
X390440D01*
X389440Y329140D02*
Y331140D01*
X443793Y326271D02*
X446293D01*
X445043Y325021D02*
Y327521D01*
X447060Y311150D02*
X449560D01*
X448310Y309900D02*
Y312400D01*
X452390Y204470D02*
X454390D01*
X453390Y203470D02*
Y205470D01*
X458032Y268385D02*
X460532D01*
X459282Y267135D02*
Y269635D01*
X453335Y287782D02*
X455835D01*
X454585Y286532D02*
Y289032D01*
X457490Y248640D02*
X459990D01*
X458740Y247390D02*
Y249890D01*
X472220Y240510D02*
X474720D01*
X473470Y239260D02*
Y241760D01*
X472220Y276510D02*
X474720D01*
X473470Y275260D02*
Y277760D01*
X351520Y247510D02*
X354020D01*
X352770Y246260D02*
Y248760D01*
X360270Y280660D02*
X362769D01*
X361519Y279410D02*
Y281910D01*
X412770Y391276D02*
X415270D01*
X414020Y390026D02*
Y392526D01*
X402610Y391160D02*
X405110D01*
X403860Y389910D02*
Y392410D01*
X439440Y367030D02*
X441940D01*
X440690Y365780D02*
Y368280D01*
X439440Y374650D02*
X441940D01*
X440690Y373400D02*
Y375900D01*
X457190Y224510D02*
X459190D01*
X458190Y223510D02*
Y225510D01*
X369840Y219755D02*
X371840D01*
X370840Y218755D02*
Y220755D01*
X422100Y240510D02*
X424600D01*
X423350Y239260D02*
Y241760D01*
X402770Y240510D02*
X405270D01*
X404020Y239260D02*
Y241760D01*
X422100Y260510D02*
X424600D01*
X423350Y259260D02*
Y261760D01*
X402770Y260510D02*
X405270D01*
X404020Y259260D02*
Y261760D01*
X402770Y250510D02*
X405270D01*
X404020Y249260D02*
Y251760D01*
X412770Y240510D02*
X415270D01*
X414020Y239260D02*
Y241760D01*
X422100Y250510D02*
X424600D01*
X423350Y249260D02*
Y251760D01*
X412770Y260510D02*
X415270D01*
X414020Y259260D02*
Y261760D01*
X617370Y175640D02*
X620370D01*
X618870Y174140D02*
Y177140D01*
X617370Y96140D02*
X620370D01*
X618870Y94640D02*
Y97640D01*
X364760Y223520D02*
X366760D01*
X365760Y222520D02*
Y224520D01*
X358410Y226060D02*
X360410D01*
X359410Y225060D02*
Y227060D01*
X355870Y232410D02*
X357870D01*
X356870Y231410D02*
Y233410D01*
X337920Y240510D02*
X340420D01*
X339170Y239260D02*
Y241760D01*
X396640Y340800D02*
X399140D01*
X397890Y339550D02*
Y342050D01*
X198760Y282400D02*
X200760D01*
X199760Y281400D02*
Y283400D01*
X198760Y212840D02*
X200760D01*
X199760Y211840D02*
Y213840D01*
X298050Y200540D02*
X300050D01*
X299050Y199540D02*
Y201540D01*
X169100Y244560D02*
X171100D01*
X170100Y243560D02*
Y245560D01*
X169100Y258560D02*
X171100D01*
X170100Y257560D02*
Y259560D01*
X172760Y271490D02*
X174760D01*
X173760Y270490D02*
Y272490D01*
X207410Y246090D02*
X209410D01*
X208410Y245090D02*
Y247090D01*
X274740Y153680D02*
X276740D01*
X275740Y152680D02*
Y154680D01*
X323050Y161280D02*
X325050D01*
X324050Y160280D02*
Y162280D01*
X323050Y175280D02*
X325050D01*
X324050Y174280D02*
Y176280D01*
X274740Y211780D02*
X276740D01*
X275740Y210780D02*
Y212780D01*
X182760Y211780D02*
X184760D01*
X183760Y210780D02*
Y212780D01*
X167490Y174710D02*
X169490D01*
X168490Y173710D02*
Y175710D01*
X167490Y188710D02*
X169490D01*
X168490Y187710D02*
Y189710D01*
X207410Y168540D02*
X209410D01*
X208410Y167540D02*
Y169540D01*
X207410Y176380D02*
X209410D01*
X208410Y175380D02*
Y177380D01*
X367830Y376670D02*
X370830D01*
X369330Y375170D02*
Y378170D01*
X403640Y357000D02*
X406140D01*
X404890Y355750D02*
Y358250D01*
X436370Y337350D02*
X438870D01*
X437620Y336100D02*
Y338600D01*
X465220Y295910D02*
X468220D01*
X466720Y294410D02*
Y297410D01*
X464930Y304510D02*
X467430D01*
X466180Y303260D02*
Y305760D01*
X299237Y391910D02*
X302237D01*
X300737Y390410D02*
Y393410D01*
X359192Y390555D02*
X362192D01*
X360692Y389054D02*
Y392054D01*
X258473Y338570D02*
X261473D01*
X259973Y337070D02*
Y340070D01*
X290390Y271490D02*
X292390D01*
X291390Y270490D02*
Y272490D01*
X367100Y294260D02*
X369600D01*
X368350Y293010D02*
Y295510D01*
X438722Y499508D02*
X441722D01*
X440222Y498008D02*
Y501008D01*
X187572Y410018D02*
X190572D01*
X189072Y408518D02*
Y411518D01*
X130980Y397020D02*
X133980D01*
X132480Y395520D02*
Y398520D01*
X483280Y134350D02*
X486280D01*
X484780Y132850D02*
Y135850D01*
X388150Y134350D02*
X391150D01*
X389650Y132850D02*
Y135850D01*
X482810Y499510D02*
X485810D01*
X484310Y498010D02*
Y501010D01*
X496830Y499510D02*
X499830D01*
X498330Y498010D02*
Y501010D01*
X390828Y582180D02*
X393828D01*
X392328Y580680D02*
Y583680D01*
X201590Y410020D02*
X204590D01*
X203090Y408520D02*
Y411520D01*
M02*
