G04*
G04 #@! TF.GenerationSoftware,Altium Limited,Altium Designer,23.8.1 (32)*
G04*
G04 Layer_Color=2752767*
%FSLAX44Y44*%
%MOMM*%
G71*
G04*
G04 #@! TF.SameCoordinates,B1DDD4D6-6927-4A11-B6FF-346F9E1F7E25*
G04*
G04*
G04 #@! TF.FilePolarity,Positive*
G04*
G01*
G75*
%ADD92C,0.1270*%
%ADD93C,0.1693*%
D92*
X68580Y92710D02*
X71120Y95250D01*
X73660D01*
X71120Y97790D01*
X73660Y100330D01*
X71120D01*
X68580Y102870D01*
X66040Y100330D01*
X63500D01*
X66040Y97790D01*
X63500Y95250D01*
X66040D01*
X68580Y92710D01*
Y72710D02*
X71120Y75250D01*
X73660D01*
X71120Y77790D01*
X73660Y80330D01*
X71120D01*
X68580Y82870D01*
X66040Y80330D01*
X63500D01*
X66040Y77790D01*
X63500Y75250D01*
X66040D01*
X68580Y72710D01*
Y149860D02*
X71120Y152400D01*
X73660D01*
X71120Y154940D01*
X73660Y157480D01*
X71120D01*
X68580Y160020D01*
X66040Y157480D01*
X63500D01*
X66040Y154940D01*
X63500Y152400D01*
X66040D01*
X68580Y149860D01*
Y169860D02*
X71120Y172400D01*
X73660D01*
X71120Y174940D01*
X73660Y177480D01*
X71120D01*
X68580Y180020D01*
X66040Y177480D01*
X63500D01*
X66040Y174940D01*
X63500Y172400D01*
X66040D01*
X68580Y169860D01*
X444020Y617350D02*
Y627510D01*
X454180D01*
Y617350D01*
X444020D01*
X372520D02*
Y627510D01*
X382680D01*
Y617350D01*
X372520D01*
X582930Y235590D02*
X585470Y238130D01*
X588010D01*
X585470Y240670D01*
X588010Y243210D01*
X585470D01*
X582930Y245750D01*
X580390Y243210D01*
X577850D01*
X580390Y240670D01*
X577850Y238130D01*
X580390D01*
X582930Y235590D01*
Y255590D02*
X585470Y258130D01*
X588010D01*
X585470Y260670D01*
X588010Y263210D01*
X585470D01*
X582930Y265750D01*
X580390Y263210D01*
X577850D01*
X580390Y260670D01*
X577850Y258130D01*
X580390D01*
X582930Y255590D01*
Y275590D02*
X585470Y278130D01*
X588010D01*
X585470Y280670D01*
X588010Y283210D01*
X585470D01*
X582930Y285750D01*
X580390Y283210D01*
X577850D01*
X580390Y280670D01*
X577850Y278130D01*
X580390D01*
X582930Y275590D01*
X614920Y24920D02*
Y35080D01*
X625080D01*
Y24920D01*
X614920D01*
X616952Y26952D02*
Y33048D01*
X623048D01*
Y26952D01*
X616952D01*
X24920Y24920D02*
Y35080D01*
X35080D01*
Y24920D01*
X24920D01*
X26952Y26952D02*
Y33048D01*
X33048D01*
Y26952D01*
X26952D01*
X529920Y529920D02*
Y540080D01*
X540080D01*
Y529920D01*
X529920D01*
X531952Y531952D02*
Y538048D01*
X538048D01*
Y531952D01*
X531952D01*
X109920Y529920D02*
Y540080D01*
X120080D01*
Y529920D01*
X109920D01*
X111952Y531952D02*
Y538048D01*
X118048D01*
Y531952D01*
X111952D01*
X186450Y531140D02*
X181370Y541300D01*
X191530D01*
X186450Y531140D01*
X159450Y556140D02*
X154370Y566300D01*
X164530D01*
X159450Y556140D01*
X186450Y581140D02*
X181370Y591300D01*
X191530D01*
X186450Y581140D01*
X67310Y225110D02*
X69850Y227650D01*
X72390D01*
X69850Y230190D01*
X72390Y232730D01*
X69850D01*
X67310Y235270D01*
X64770Y232730D01*
X62230D01*
X64770Y230190D01*
X62230Y227650D01*
X64770D01*
X67310Y225110D01*
Y245110D02*
X69850Y247650D01*
X72390D01*
X69850Y250190D01*
X72390Y252730D01*
X69850D01*
X67310Y255270D01*
X64770Y252730D01*
X62230D01*
X64770Y250190D01*
X62230Y247650D01*
X64770D01*
X67310Y245110D01*
Y265110D02*
X69850Y267650D01*
X72390D01*
X69850Y270190D01*
X72390Y272730D01*
X69850D01*
X67310Y275270D01*
X64770Y272730D01*
X62230D01*
X64770Y270190D01*
X62230Y267650D01*
X64770D01*
X67310Y265110D01*
X94350Y437780D02*
Y435240D01*
X99430D01*
Y437780D01*
X101970D01*
Y442860D01*
X99430D01*
Y445400D01*
X94350D01*
Y442860D01*
X91810D01*
Y437780D01*
X94350D01*
X213000Y292920D02*
X207920Y303080D01*
X218080D01*
X213000Y292920D01*
Y294952D02*
X209952Y301048D01*
X216048D01*
X213000Y294952D01*
X535000Y394920D02*
X529920Y405080D01*
X540080D01*
X535000Y394920D01*
Y396952D02*
X531952Y403048D01*
X538048D01*
X535000Y396952D01*
X515000Y394920D02*
X509920Y405080D01*
X520080D01*
X515000Y394920D01*
Y396952D02*
X511952Y403048D01*
X518048D01*
X515000Y396952D01*
Y414920D02*
X509920Y425080D01*
X520080D01*
X515000Y414920D01*
Y416952D02*
X511952Y423048D01*
X518048D01*
X515000Y416952D01*
X495000Y414920D02*
X489920Y425080D01*
X500080D01*
X495000Y414920D01*
Y416952D02*
X491952Y423048D01*
X498048D01*
X495000Y416952D01*
X475000Y414920D02*
X469920Y425080D01*
X480080D01*
X475000Y414920D01*
Y416952D02*
X471952Y423048D01*
X478048D01*
X475000Y416952D01*
X455000Y414920D02*
X449920Y425080D01*
X460080D01*
X455000Y414920D01*
Y416952D02*
X451952Y423048D01*
X458048D01*
X455000Y416952D01*
X515000Y434920D02*
X509920Y445080D01*
X520080D01*
X515000Y434920D01*
Y436952D02*
X511952Y443048D01*
X518048D01*
X515000Y436952D01*
X495000Y434920D02*
X489920Y445080D01*
X500080D01*
X495000Y434920D01*
Y436952D02*
X491952Y443048D01*
X498048D01*
X495000Y436952D01*
X475000Y434920D02*
X469920Y445080D01*
X480080D01*
X475000Y434920D01*
Y436952D02*
X471952Y443048D01*
X478048D01*
X475000Y436952D01*
X455000Y434920D02*
X449920Y445080D01*
X460080D01*
X455000Y434920D01*
Y436952D02*
X451952Y443048D01*
X458048D01*
X455000Y436952D01*
X133000Y229920D02*
X127920Y240080D01*
X138080D01*
X133000Y229920D01*
Y231952D02*
X129952Y238048D01*
X136048D01*
X133000Y231952D01*
X152000Y254920D02*
X146920Y265080D01*
X157080D01*
X152000Y254920D01*
Y256952D02*
X148952Y263048D01*
X155048D01*
X152000Y256952D01*
X133000Y274920D02*
X127920Y285080D01*
X138080D01*
X133000Y274920D01*
Y276952D02*
X129952Y283048D01*
X136048D01*
X133000Y276952D01*
X153000Y292920D02*
X147920Y303080D01*
X158080D01*
X153000Y292920D01*
Y294952D02*
X149952Y301048D01*
X156048D01*
X153000Y294952D01*
X133000Y292920D02*
X127920Y303080D01*
X138080D01*
X133000Y292920D01*
Y294952D02*
X129952Y301048D01*
X136048D01*
X133000Y294952D01*
X213000Y324920D02*
X207920Y335080D01*
X218080D01*
X213000Y324920D01*
Y326952D02*
X209952Y333048D01*
X216048D01*
X213000Y326952D01*
X153000Y324920D02*
X147920Y335080D01*
X158080D01*
X153000Y324920D01*
Y326952D02*
X149952Y333048D01*
X156048D01*
X153000Y326952D01*
X133000Y324920D02*
X127920Y335080D01*
X138080D01*
X133000Y324920D01*
Y326952D02*
X129952Y333048D01*
X136048D01*
X133000Y326952D01*
X213000Y344920D02*
X207920Y355080D01*
X218080D01*
X213000Y344920D01*
Y346952D02*
X209952Y353048D01*
X216048D01*
X213000Y346952D01*
X193000Y344920D02*
X187920Y355080D01*
X198080D01*
X193000Y344920D01*
Y346952D02*
X189952Y353048D01*
X196048D01*
X193000Y346952D01*
X173000Y344920D02*
X167920Y355080D01*
X178080D01*
X173000Y344920D01*
Y346952D02*
X169952Y353048D01*
X176048D01*
X173000Y346952D01*
X153000Y344920D02*
X147920Y355080D01*
X158080D01*
X153000Y344920D01*
Y346952D02*
X149952Y353048D01*
X156048D01*
X153000Y346952D01*
X133000Y344920D02*
X127920Y355080D01*
X138080D01*
X133000Y344920D01*
Y346952D02*
X129952Y353048D01*
X136048D01*
X133000Y346952D01*
X515000Y369920D02*
X509920Y380080D01*
X520080D01*
X515000Y369920D01*
Y371952D02*
X511952Y378048D01*
X518048D01*
X515000Y371952D01*
Y349920D02*
X509920Y360080D01*
X520080D01*
X515000Y349920D01*
Y351952D02*
X511952Y358048D01*
X518048D01*
X515000Y351952D01*
X495000Y369920D02*
X489920Y380080D01*
X500080D01*
X495000Y369920D01*
Y371952D02*
X491952Y378048D01*
X498048D01*
X495000Y371952D01*
Y349920D02*
X489920Y360080D01*
X500080D01*
X495000Y349920D01*
Y351952D02*
X491952Y358048D01*
X498048D01*
X495000Y351952D01*
X535000Y349920D02*
X529920Y360080D01*
X540080D01*
X535000Y349920D01*
Y351952D02*
X531952Y358048D01*
X538048D01*
X535000Y351952D01*
Y369920D02*
X529920Y380080D01*
X540080D01*
X535000Y369920D01*
Y371952D02*
X531952Y378048D01*
X538048D01*
X535000Y371952D01*
Y414920D02*
X529920Y425080D01*
X540080D01*
X535000Y414920D01*
Y416952D02*
X531952Y423048D01*
X538048D01*
X535000Y416952D01*
Y434920D02*
X529920Y445080D01*
X540080D01*
X535000Y434920D01*
Y436952D02*
X531952Y443048D01*
X538048D01*
X535000Y436952D01*
X452840Y204790D02*
X455380Y209870D01*
X452840Y214950D01*
X457920Y212410D01*
X463000Y214950D01*
X460460Y209870D01*
X463000Y204790D01*
X457920Y207330D01*
X452840Y204790D01*
X456756Y214459D02*
X459296Y219539D01*
X456756Y224619D01*
X461836Y222079D01*
X466916Y224619D01*
X464376Y219539D01*
X466916Y214459D01*
X461836Y216999D01*
X456756Y214459D01*
X203880Y277645D02*
X206420Y282725D01*
X203880Y287805D01*
X208960Y285265D01*
X214040Y287805D01*
X211500Y282725D01*
X214040Y277645D01*
X208960Y280185D01*
X203880Y277645D01*
X187857Y206354D02*
X190396Y211434D01*
X187857Y216514D01*
X192936Y213974D01*
X198016Y216514D01*
X195476Y211434D01*
X198016Y206354D01*
X192936Y208894D01*
X187857Y206354D01*
X298892Y200631D02*
X301432Y205711D01*
X298892Y210791D01*
X303972Y208251D01*
X309051Y210791D01*
X306511Y205711D01*
X309051Y200631D01*
X303972Y203171D01*
X298892Y200631D01*
X335230Y258755D02*
X337770Y263835D01*
X335230Y268915D01*
X340310Y266375D01*
X345390Y268915D01*
X342850Y263835D01*
X345390Y258755D01*
X340310Y261295D01*
X335230Y258755D01*
X360697Y211775D02*
X363237Y216856D01*
X360697Y221936D01*
X365777Y219396D01*
X370857Y221936D01*
X368317Y216856D01*
X370857Y211775D01*
X365777Y214315D01*
X360697Y211775D01*
X347710Y222208D02*
X350250Y227288D01*
X347710Y232368D01*
X352790Y229828D01*
X357870Y232368D01*
X355330Y227288D01*
X357870Y222208D01*
X352790Y224748D01*
X347710Y222208D01*
X410210Y318770D02*
X412750Y323850D01*
X410210Y328930D01*
X415290Y326390D01*
X420370Y328930D01*
X417830Y323850D01*
X420370Y318770D01*
X415290Y321310D01*
X410210Y318770D01*
X414100Y293370D02*
X416640Y298450D01*
X414100Y303530D01*
X419180Y300990D01*
X424260Y303530D01*
X421720Y298450D01*
X424260Y293370D01*
X419180Y295910D01*
X414100Y293370D01*
X410166Y288605D02*
X412706Y293685D01*
X410166Y298765D01*
X415246Y296225D01*
X420326Y298765D01*
X417786Y293685D01*
X420326Y288605D01*
X415246Y291145D01*
X410166Y288605D01*
X409020Y178820D02*
X411560Y183900D01*
X409020Y188980D01*
X414100Y186440D01*
X419180Y188980D01*
X416640Y183900D01*
X419180Y178820D01*
X414100Y181360D01*
X409020Y178820D01*
X416020D02*
X418560Y183900D01*
X416020Y188980D01*
X421100Y186440D01*
X426180Y188980D01*
X423640Y183900D01*
X426180Y178820D01*
X421100Y181360D01*
X416020Y178820D01*
X420536Y193940D02*
X423076Y199020D01*
X420536Y204100D01*
X425616Y201560D01*
X430696Y204100D01*
X428156Y199020D01*
X430696Y193940D01*
X425616Y196480D01*
X420536Y193940D01*
X391160Y201930D02*
X393700Y207010D01*
X391160Y212090D01*
X396240Y209550D01*
X401320Y212090D01*
X398780Y207010D01*
X401320Y201930D01*
X396240Y204470D01*
X391160Y201930D01*
X403926Y192240D02*
X406466Y197320D01*
X403926Y202400D01*
X409006Y199860D01*
X414086Y202400D01*
X411546Y197320D01*
X414086Y192240D01*
X409006Y194780D01*
X403926Y192240D01*
X523240Y490220D02*
Y487680D01*
X528320D01*
Y490220D01*
X530860D01*
Y495300D01*
X528320D01*
Y497840D01*
X523240D01*
Y495300D01*
X520700D01*
Y490220D01*
X523240D01*
X468278Y511258D02*
Y508718D01*
X473358D01*
Y511258D01*
X475898D01*
Y516338D01*
X473358D01*
Y518878D01*
X468278D01*
Y516338D01*
X465738D01*
Y511258D01*
X468278D01*
X373382Y548642D02*
Y546102D01*
X378462D01*
Y548642D01*
X381002D01*
Y553722D01*
X378462D01*
Y556262D01*
X373382D01*
Y553722D01*
X370842D01*
Y548642D01*
X373382D01*
X350522Y612142D02*
Y609602D01*
X355602D01*
Y612142D01*
X358142D01*
Y617222D01*
X355602D01*
Y619762D01*
X350522D01*
Y617222D01*
X347982D01*
Y612142D01*
X350522D01*
X440282Y511262D02*
Y508722D01*
X445362D01*
Y511262D01*
X447902D01*
Y516342D01*
X445362D01*
Y518882D01*
X440282D01*
Y516342D01*
X437742D01*
Y511262D01*
X440282D01*
X136143Y188710D02*
X141223Y193790D01*
X146303Y188710D01*
X141223Y183630D01*
X136143Y188710D01*
X201930Y233680D02*
X207010Y238760D01*
X212090Y233680D01*
X207010Y228600D01*
X201930Y233680D01*
X403159Y329208D02*
X405699Y334288D01*
X403159Y339368D01*
X408239Y336828D01*
X413319Y339368D01*
X410779Y334288D01*
X413319Y329208D01*
X408239Y331748D01*
X403159Y329208D01*
X403410Y318460D02*
X405950Y323540D01*
X403410Y328620D01*
X408490Y326080D01*
X413570Y328620D01*
X411030Y323540D01*
X413570Y318460D01*
X408490Y321000D01*
X403410Y318460D01*
X335280Y252730D02*
X337820Y257810D01*
X335280Y262890D01*
X340360Y260350D01*
X345440Y262890D01*
X342900Y257810D01*
X345440Y252730D01*
X340360Y255270D01*
X335280Y252730D01*
X319970Y189080D02*
X325050Y194160D01*
X330130Y189080D01*
X325050Y184000D01*
X319970Y189080D01*
X384810Y317500D02*
X387350Y322580D01*
X384810Y327660D01*
X389890Y325120D01*
X394970Y327660D01*
X392430Y322580D01*
X394970Y317500D01*
X389890Y320040D01*
X384810Y317500D01*
X384360Y325060D02*
X386900Y330140D01*
X384360Y335220D01*
X389440Y332680D01*
X394520Y335220D01*
X391980Y330140D01*
X394520Y325060D01*
X389440Y327600D01*
X384360Y325060D01*
X439963Y321191D02*
X442503D01*
X445043Y323731D01*
X447583Y321191D01*
X450123D01*
Y323731D01*
X447583Y326271D01*
X450123Y328811D01*
Y331351D01*
X447583D01*
X445043Y328811D01*
X442503Y331351D01*
X439963D01*
Y328811D01*
X442503Y326271D01*
X439963Y323731D01*
Y321191D01*
X443230Y306070D02*
X445770D01*
X448310Y308610D01*
X450850Y306070D01*
X453390D01*
Y308610D01*
X450850Y311150D01*
X453390Y313690D01*
Y316230D01*
X450850D01*
X448310Y313690D01*
X445770Y316230D01*
X443230D01*
Y313690D01*
X445770Y311150D01*
X443230Y308610D01*
Y306070D01*
X448310Y199390D02*
X450850Y204470D01*
X448310Y209550D01*
X453390Y207010D01*
X458470Y209550D01*
X455930Y204470D01*
X458470Y199390D01*
X453390Y201930D01*
X448310Y199390D01*
X454202Y263305D02*
X456742D01*
X459282Y265845D01*
X461822Y263305D01*
X464362D01*
Y265845D01*
X461822Y268385D01*
X464362Y270925D01*
Y273465D01*
X461822D01*
X459282Y270925D01*
X456742Y273465D01*
X454202D01*
Y270925D01*
X456742Y268385D01*
X454202Y265845D01*
Y263305D01*
X449505Y282702D02*
X452044D01*
X454585Y285242D01*
X457124Y282702D01*
X459664D01*
Y285242D01*
X457124Y287782D01*
X459664Y290322D01*
Y292862D01*
X457124D01*
X454585Y290322D01*
X452044Y292862D01*
X449505D01*
Y290322D01*
X452044Y287782D01*
X449505Y285242D01*
Y282702D01*
X453660Y243560D02*
X456200D01*
X458740Y246100D01*
X461280Y243560D01*
X463820D01*
Y246100D01*
X461280Y248640D01*
X463820Y251180D01*
Y253720D01*
X461280D01*
X458740Y251180D01*
X456200Y253720D01*
X453660D01*
Y251180D01*
X456200Y248640D01*
X453660Y246100D01*
Y243560D01*
X468390Y235430D02*
X470930D01*
X473470Y237970D01*
X476010Y235430D01*
X478550D01*
Y237970D01*
X476010Y240510D01*
X478550Y243050D01*
Y245590D01*
X476010D01*
X473470Y243050D01*
X470930Y245590D01*
X468390D01*
Y243050D01*
X470930Y240510D01*
X468390Y237970D01*
Y235430D01*
X468390Y271430D02*
X470930D01*
X473470Y273970D01*
X476010Y271430D01*
X478550D01*
Y273970D01*
X476010Y276510D01*
X478550Y279050D01*
Y281590D01*
X476010D01*
X473470Y279050D01*
X470930Y281590D01*
X468390D01*
Y279050D01*
X470930Y276510D01*
X468390Y273970D01*
Y271430D01*
X347690Y242430D02*
X350230D01*
X352770Y244970D01*
X355310Y242430D01*
X357850D01*
Y244970D01*
X355310Y247510D01*
X357850Y250050D01*
Y252590D01*
X355310D01*
X352770Y250050D01*
X350230Y252590D01*
X347690D01*
Y250050D01*
X350230Y247510D01*
X347690Y244970D01*
Y242430D01*
X356439Y275580D02*
X358979D01*
X361519Y278120D01*
X364059Y275580D01*
X366599D01*
Y278120D01*
X364059Y280660D01*
X366599Y283200D01*
Y285740D01*
X364059D01*
X361519Y283200D01*
X358979Y285740D01*
X356439D01*
Y283200D01*
X358979Y280660D01*
X356439Y278120D01*
Y275580D01*
X408940Y386196D02*
X411480D01*
X414020Y388736D01*
X416560Y386196D01*
X419100D01*
Y388736D01*
X416560Y391276D01*
X419100Y393816D01*
Y396356D01*
X416560D01*
X414020Y393816D01*
X411480Y396356D01*
X408940D01*
Y393816D01*
X411480Y391276D01*
X408940Y388736D01*
Y386196D01*
X398780Y386080D02*
X401320D01*
X403860Y388620D01*
X406400Y386080D01*
X408940D01*
Y388620D01*
X406400Y391160D01*
X408940Y393700D01*
Y396240D01*
X406400D01*
X403860Y393700D01*
X401320Y396240D01*
X398780D01*
Y393700D01*
X401320Y391160D01*
X398780Y388620D01*
Y386080D01*
X435610Y361950D02*
X438150D01*
X440690Y364490D01*
X443230Y361950D01*
X445770D01*
Y364490D01*
X443230Y367030D01*
X445770Y369570D01*
Y372110D01*
X443230D01*
X440690Y369570D01*
X438150Y372110D01*
X435610D01*
Y369570D01*
X438150Y367030D01*
X435610Y364490D01*
Y361950D01*
Y369570D02*
X438150D01*
X440690Y372110D01*
X443230Y369570D01*
X445770D01*
Y372110D01*
X443230Y374650D01*
X445770Y377190D01*
Y379730D01*
X443230D01*
X440690Y377190D01*
X438150Y379730D01*
X435610D01*
Y377190D01*
X438150Y374650D01*
X435610Y372110D01*
Y369570D01*
X453110Y219430D02*
X455650Y224510D01*
X453110Y229590D01*
X458190Y227050D01*
X463270Y229590D01*
X460730Y224510D01*
X463270Y219430D01*
X458190Y221970D01*
X453110Y219430D01*
X365760Y214675D02*
X368300Y219755D01*
X365760Y224835D01*
X370840Y222295D01*
X375920Y224835D01*
X373380Y219755D01*
X375920Y214675D01*
X370840Y217215D01*
X365760Y214675D01*
X418270Y235430D02*
X420810D01*
X423350Y237970D01*
X425890Y235430D01*
X428430D01*
Y237970D01*
X425890Y240510D01*
X428430Y243050D01*
Y245590D01*
X425890D01*
X423350Y243050D01*
X420810Y245590D01*
X418270D01*
Y243050D01*
X420810Y240510D01*
X418270Y237970D01*
Y235430D01*
X398940D02*
X401480D01*
X404020Y237970D01*
X406560Y235430D01*
X409100D01*
Y237970D01*
X406560Y240510D01*
X409100Y243050D01*
Y245590D01*
X406560D01*
X404020Y243050D01*
X401480Y245590D01*
X398940D01*
Y243050D01*
X401480Y240510D01*
X398940Y237970D01*
Y235430D01*
X418270Y255430D02*
X420810D01*
X423350Y257970D01*
X425890Y255430D01*
X428430D01*
Y257970D01*
X425890Y260510D01*
X428430Y263050D01*
Y265590D01*
X425890D01*
X423350Y263050D01*
X420810Y265590D01*
X418270D01*
Y263050D01*
X420810Y260510D01*
X418270Y257970D01*
Y255430D01*
X398940D02*
X401480D01*
X404020Y257970D01*
X406560Y255430D01*
X409100D01*
Y257970D01*
X406560Y260510D01*
X409100Y263050D01*
Y265590D01*
X406560D01*
X404020Y263050D01*
X401480Y265590D01*
X398940D01*
Y263050D01*
X401480Y260510D01*
X398940Y257970D01*
Y255430D01*
Y245430D02*
X401480D01*
X404020Y247970D01*
X406560Y245430D01*
X409100D01*
Y247970D01*
X406560Y250510D01*
X409100Y253050D01*
Y255590D01*
X406560D01*
X404020Y253050D01*
X401480Y255590D01*
X398940D01*
Y253050D01*
X401480Y250510D01*
X398940Y247970D01*
Y245430D01*
X408940Y235430D02*
X411480D01*
X414020Y237970D01*
X416560Y235430D01*
X419100D01*
Y237970D01*
X416560Y240510D01*
X419100Y243050D01*
Y245590D01*
X416560D01*
X414020Y243050D01*
X411480Y245590D01*
X408940D01*
Y243050D01*
X411480Y240510D01*
X408940Y237970D01*
Y235430D01*
X418270Y245430D02*
X420810D01*
X423350Y247970D01*
X425890Y245430D01*
X428430D01*
Y247970D01*
X425890Y250510D01*
X428430Y253050D01*
Y255590D01*
X425890D01*
X423350Y253050D01*
X420810Y255590D01*
X418270D01*
Y253050D01*
X420810Y250510D01*
X418270Y247970D01*
Y245430D01*
X408940Y255430D02*
X411480D01*
X414020Y257970D01*
X416560Y255430D01*
X419100D01*
Y257970D01*
X416560Y260510D01*
X419100Y263050D01*
Y265590D01*
X416560D01*
X414020Y263050D01*
X411480Y265590D01*
X408940D01*
Y263050D01*
X411480Y260510D01*
X408940Y257970D01*
Y255430D01*
X616330Y173100D02*
Y170560D01*
X621410D01*
Y173100D01*
X623950D01*
Y178180D01*
X621410D01*
Y180720D01*
X616330D01*
Y178180D01*
X613790D01*
Y173100D01*
X616330D01*
Y93600D02*
Y91060D01*
X621410D01*
Y93600D01*
X623950D01*
Y98680D01*
X621410D01*
Y101220D01*
X616330D01*
Y98680D01*
X613790D01*
Y93600D01*
X616330D01*
X360680Y218440D02*
X363220Y223520D01*
X360680Y228600D01*
X365760Y226060D01*
X370840Y228600D01*
X368300Y223520D01*
X370840Y218440D01*
X365760Y220980D01*
X360680Y218440D01*
X354330Y220980D02*
X356870Y226060D01*
X354330Y231140D01*
X359410Y228600D01*
X364490Y231140D01*
X361950Y226060D01*
X364490Y220980D01*
X359410Y223520D01*
X354330Y220980D01*
X351790Y227330D02*
X354330Y232410D01*
X351790Y237490D01*
X356870Y234950D01*
X361950Y237490D01*
X359410Y232410D01*
X361950Y227330D01*
X356870Y229870D01*
X351790Y227330D01*
X334090Y235430D02*
X336630D01*
X339170Y237970D01*
X341710Y235430D01*
X344250D01*
Y237970D01*
X341710Y240510D01*
X344250Y243050D01*
Y245590D01*
X341710D01*
X339170Y243050D01*
X336630Y245590D01*
X334090D01*
Y243050D01*
X336630Y240510D01*
X334090Y237970D01*
Y235430D01*
X392810Y335720D02*
X395350D01*
X397890Y338260D01*
X400430Y335720D01*
X402970D01*
Y338260D01*
X400430Y340800D01*
X402970Y343340D01*
Y345880D01*
X400430D01*
X397890Y343340D01*
X395350Y345880D01*
X392810D01*
Y343340D01*
X395350Y340800D01*
X392810Y338260D01*
Y335720D01*
X194680Y282400D02*
X199760Y287480D01*
X204840Y282400D01*
X199760Y277320D01*
X194680Y282400D01*
Y212840D02*
X199760Y217920D01*
X204840Y212840D01*
X199760Y207760D01*
X194680Y212840D01*
X293970Y200540D02*
X299050Y205620D01*
X304130Y200540D01*
X299050Y195460D01*
X293970Y200540D01*
X165020Y244560D02*
X170100Y249640D01*
X175180Y244560D01*
X170100Y239480D01*
X165020Y244560D01*
X165020Y258560D02*
X170100Y263640D01*
X175180Y258560D01*
X170100Y253480D01*
X165020Y258560D01*
X168680Y271490D02*
X173760Y276570D01*
X178840Y271490D01*
X173760Y266410D01*
X168680Y271490D01*
X203330Y246090D02*
X208410Y251170D01*
X213490Y246090D01*
X208410Y241010D01*
X203330Y246090D01*
X270660Y153680D02*
X275740Y158760D01*
X280820Y153680D01*
X275740Y148600D01*
X270660Y153680D01*
X318970Y161280D02*
X324050Y166360D01*
X329130Y161280D01*
X324050Y156200D01*
X318970Y161280D01*
X318970Y175280D02*
X324050Y180360D01*
X329130Y175280D01*
X324050Y170200D01*
X318970Y175280D01*
X270660Y211780D02*
X275740Y216860D01*
X280820Y211780D01*
X275740Y206700D01*
X270660Y211780D01*
X178680D02*
X183760Y216860D01*
X188840Y211780D01*
X183760Y206700D01*
X178680Y211780D01*
X163410Y174710D02*
X168490Y179790D01*
X173570Y174710D01*
X168490Y169630D01*
X163410Y174710D01*
X163410Y188710D02*
X168490Y193790D01*
X173570Y188710D01*
X168490Y183630D01*
X163410Y188710D01*
X203330Y168540D02*
X208410Y173620D01*
X213490Y168540D01*
X208410Y163460D01*
X203330Y168540D01*
Y176380D02*
X208410Y181460D01*
X213490Y176380D01*
X208410Y171300D01*
X203330Y176380D01*
X366790Y374130D02*
Y371590D01*
X371870D01*
Y374130D01*
X374410D01*
Y379210D01*
X371870D01*
Y381750D01*
X366790D01*
Y379210D01*
X364250D01*
Y374130D01*
X366790D01*
X399810Y351920D02*
X402350D01*
X404890Y354460D01*
X407430Y351920D01*
X409970D01*
Y354460D01*
X407430Y357000D01*
X409970Y359540D01*
Y362080D01*
X407430D01*
X404890Y359540D01*
X402350Y362080D01*
X399810D01*
Y359540D01*
X402350Y357000D01*
X399810Y354460D01*
Y351920D01*
X432540Y332270D02*
X435080D01*
X437620Y334810D01*
X440160Y332270D01*
X442700D01*
Y334810D01*
X440160Y337350D01*
X442700Y339890D01*
Y342430D01*
X440160D01*
X437620Y339890D01*
X435080Y342430D01*
X432540D01*
Y339890D01*
X435080Y337350D01*
X432540Y334810D01*
Y332270D01*
X464180Y293370D02*
Y290830D01*
X469260D01*
Y293370D01*
X471800D01*
Y298450D01*
X469260D01*
Y300990D01*
X464180D01*
Y298450D01*
X461640D01*
Y293370D01*
X464180D01*
X461100Y299430D02*
X463640D01*
X466180Y301970D01*
X468720Y299430D01*
X471260D01*
Y301970D01*
X468720Y304510D01*
X471260Y307050D01*
Y309590D01*
X468720D01*
X466180Y307050D01*
X463640Y309590D01*
X461100D01*
Y307050D01*
X463640Y304510D01*
X461100Y301970D01*
Y299430D01*
X298197Y389370D02*
Y386830D01*
X303277D01*
Y389370D01*
X305817D01*
Y394450D01*
X303277D01*
Y396990D01*
X298197D01*
Y394450D01*
X295657D01*
Y389370D01*
X298197D01*
X358152Y388014D02*
Y385475D01*
X363232D01*
Y388014D01*
X365772D01*
Y393094D01*
X363232D01*
Y395634D01*
X358152D01*
Y393094D01*
X355612D01*
Y388014D01*
X358152D01*
X257433Y336030D02*
Y333490D01*
X262513D01*
Y336030D01*
X265053D01*
Y341110D01*
X262513D01*
Y343650D01*
X257433D01*
Y341110D01*
X254893D01*
Y336030D01*
X257433D01*
X286310Y271490D02*
X291390Y276570D01*
X296470Y271490D01*
X291390Y266410D01*
X286310Y271490D01*
X363270Y289180D02*
X365810D01*
X368350Y291720D01*
X370890Y289180D01*
X373430D01*
Y291720D01*
X370890Y294260D01*
X373430Y296800D01*
Y299340D01*
X370890D01*
X368350Y296800D01*
X365810Y299340D01*
X363270D01*
Y296800D01*
X365810Y294260D01*
X363270Y291720D01*
Y289180D01*
X437682Y496968D02*
Y494428D01*
X442762D01*
Y496968D01*
X445302D01*
Y502048D01*
X442762D01*
Y504588D01*
X437682D01*
Y502048D01*
X435142D01*
Y496968D01*
X437682D01*
X186532Y407478D02*
Y404938D01*
X191612D01*
Y407478D01*
X194152D01*
Y412558D01*
X191612D01*
Y415098D01*
X186532D01*
Y412558D01*
X183992D01*
Y407478D01*
X186532D01*
X129940Y394480D02*
Y391940D01*
X135020D01*
Y394480D01*
X137560D01*
Y399560D01*
X135020D01*
Y402100D01*
X129940D01*
Y399560D01*
X127400D01*
Y394480D01*
X129940D01*
X482240Y131810D02*
Y129270D01*
X487320D01*
Y131810D01*
X489860D01*
Y136890D01*
X487320D01*
Y139430D01*
X482240D01*
Y136890D01*
X479700D01*
Y131810D01*
X482240D01*
X387110D02*
Y129270D01*
X392190D01*
Y131810D01*
X394730D01*
Y136890D01*
X392190D01*
Y139430D01*
X387110D01*
Y136890D01*
X384570D01*
Y131810D01*
X387110D01*
X481770Y496970D02*
Y494430D01*
X486850D01*
Y496970D01*
X489390D01*
Y502050D01*
X486850D01*
Y504590D01*
X481770D01*
Y502050D01*
X479230D01*
Y496970D01*
X481770D01*
X495790D02*
Y494430D01*
X500870D01*
Y496970D01*
X503410D01*
Y502050D01*
X500870D01*
Y504590D01*
X495790D01*
Y502050D01*
X493250D01*
Y496970D01*
X495790D01*
X389788Y579640D02*
Y577100D01*
X394868D01*
Y579640D01*
X397408D01*
Y584720D01*
X394868D01*
Y587260D01*
X389788D01*
Y584720D01*
X387248D01*
Y579640D01*
X389788D01*
X200550Y407480D02*
Y404940D01*
X205630D01*
Y407480D01*
X208170D01*
Y412560D01*
X205630D01*
Y415100D01*
X200550D01*
Y412560D01*
X198010D01*
Y407480D01*
X200550D01*
D93*
X257640Y516620D02*
G03*
X257640Y516620I-5080J0D01*
G01*
Y542020D02*
G03*
X257640Y542020I-5080J0D01*
G01*
X323040Y579320D02*
G03*
X323040Y579320I-5080J0D01*
G01*
X297640D02*
G03*
X297640Y579320I-5080J0D01*
G01*
X272240D02*
G03*
X272240Y579320I-5080J0D01*
G01*
X337580Y516370D02*
G03*
X337580Y516370I-5080J0D01*
G01*
Y541770D02*
G03*
X337580Y541770I-5080J0D01*
G01*
M02*
