G04*
G04 #@! TF.GenerationSoftware,Altium Limited,Altium Designer,23.8.1 (32)*
G04*
G04 Layer_Color=65535*
%FSLAX44Y44*%
%MOMM*%
G71*
G04*
G04 #@! TF.SameCoordinates,B1DDD4D6-6927-4A11-B6FF-346F9E1F7E25*
G04*
G04*
G04 #@! TF.FilePolarity,Positive*
G04*
G01*
G75*
%ADD10C,0.1000*%
%ADD11C,0.2000*%
%ADD12C,0.0500*%
%ADD13C,0.2540*%
D10*
X426100Y586180D02*
G03*
X426100Y585180I0J-500D01*
G01*
D02*
G03*
X426100Y586180I0J500D01*
G01*
X374350Y288760D02*
G03*
X375350Y288760I500J0D01*
G01*
D02*
G03*
X374350Y288760I-500J0D01*
G01*
X590140Y84890D02*
G03*
X590140Y83890I0J-500D01*
G01*
D02*
G03*
X590140Y84890I0J500D01*
G01*
X186450Y518220D02*
G03*
X186450Y519220I0J500D01*
G01*
D02*
G03*
X186450Y518220I0J-500D01*
G01*
X499560Y95110D02*
G03*
X500560Y95110I500J0D01*
G01*
D02*
G03*
X499560Y95110I-500J0D01*
G01*
X116080Y429320D02*
G03*
X116080Y428320I0J-500D01*
G01*
D02*
G03*
X116080Y429320I0J500D01*
G01*
X456820Y502800D02*
G03*
X456820Y501800I0J-500D01*
G01*
D02*
G03*
X456820Y502800I0J500D01*
G01*
D11*
X3080Y117790D02*
X68580D01*
X3080Y54790D02*
Y117790D01*
Y54790D02*
X83080D01*
X3080Y131940D02*
X83080D01*
X3080D02*
Y194940D01*
X68580D01*
X450350Y636180D02*
Y649930D01*
X376350D02*
X450350D01*
X376350Y636180D02*
Y649930D01*
X450350Y594430D02*
Y608180D01*
X445350Y594430D02*
X450350D01*
X376350D02*
X381350D01*
X376350D02*
Y608180D01*
X120000Y60000D02*
Y290000D01*
X90000D02*
X120000D01*
X378350Y215510D02*
X383350D01*
X378350D02*
Y220510D01*
X448350Y215510D02*
Y220510D01*
X443350Y215510D02*
X448350D01*
Y280510D02*
Y285510D01*
X443350D02*
X448350D01*
X378350Y280510D02*
Y285510D01*
X383350D01*
X213880Y208530D02*
X229150D01*
X232650Y158210D02*
Y207250D01*
Y158210D02*
X264610D01*
Y207250D01*
X232650D02*
X264610D01*
X213880Y278240D02*
X229150D01*
X232650Y227920D02*
Y276960D01*
Y227920D02*
X264610D01*
Y276960D01*
X232650D02*
X264610D01*
X266010Y502420D02*
Y556220D01*
X239110Y502420D02*
X266010D01*
X239110D02*
Y556220D01*
X266010D01*
X568430Y220670D02*
X648430D01*
Y303670D01*
X582930D02*
X648430D01*
X600140Y165890D02*
X624140D01*
X642140Y107890D02*
Y161890D01*
X600140Y105890D02*
X624140D01*
X582140Y107890D02*
Y163890D01*
X191760Y198780D02*
Y204780D01*
X204450Y534220D02*
X211450D01*
Y648220D01*
X161450D02*
X211450D01*
X161450Y577220D02*
Y648220D01*
X281850Y395410D02*
X282850D01*
X281850Y388410D02*
X282850D01*
X184990Y178210D02*
X185990D01*
X184990Y171210D02*
X185990D01*
X306550Y178780D02*
X307550D01*
X306550Y171780D02*
X307550D01*
X186600Y248060D02*
X187600D01*
X186600Y241060D02*
X187600D01*
X184990Y192210D02*
X185990D01*
X184990Y185210D02*
X185990D01*
X306550Y164780D02*
X307550D01*
X306550Y157780D02*
X307550D01*
X186600Y262060D02*
X187600D01*
X186600Y255060D02*
X187600D01*
X252960Y565870D02*
X332160D01*
X252960D02*
Y592770D01*
X332160D01*
Y565870D02*
Y592770D01*
X319050Y502170D02*
X345950D01*
Y555970D01*
X319050D02*
X345950D01*
X319050Y502170D02*
Y555970D01*
X286340Y383770D02*
X334340D01*
Y331470D02*
Y383770D01*
X286340Y331470D02*
X334340D01*
X286340D02*
Y383770D01*
X266840Y383420D02*
X282840D01*
X1810Y207190D02*
X67310D01*
X1810D02*
Y290190D01*
X81810D01*
X307050Y186080D02*
Y192080D01*
X191760Y268490D02*
Y274490D01*
X477560Y109110D02*
Y118610D01*
X363560D02*
X477560D01*
X363560Y109110D02*
Y118610D01*
Y71610D02*
Y81110D01*
Y71610D02*
X477560D01*
Y81110D01*
X465060Y156460D02*
Y157460D01*
X472060Y156460D02*
Y157460D01*
X510820Y451760D02*
Y470260D01*
X447320Y447510D02*
X512320D01*
X447320Y412510D02*
Y447510D01*
Y412510D02*
X512320D01*
Y447510D01*
X215080Y363770D02*
Y382270D01*
X151580Y359520D02*
X216580D01*
X151580Y324520D02*
Y359520D01*
Y324520D02*
X216580D01*
Y359520D01*
X124580Y450320D02*
Y458320D01*
X107580Y450320D02*
Y458320D01*
X465320Y523800D02*
Y531800D01*
X448320Y523800D02*
Y531800D01*
X137635Y258354D02*
X138777Y259497D01*
X139349Y261211D01*
Y263496D01*
X138777Y265210D01*
X137635Y266352D01*
X136492D01*
X135350Y265781D01*
X134778Y265210D01*
X134207Y264067D01*
X133064Y260639D01*
X132493Y259497D01*
X131922Y258925D01*
X130779Y258354D01*
X129065D01*
X127923Y259497D01*
X127351Y261211D01*
Y263496D01*
X127923Y265210D01*
X129065Y266352D01*
X139349Y251670D02*
X127351D01*
X139349Y255669D02*
Y247671D01*
Y238815D02*
Y246242D01*
X127351D01*
Y238815D01*
X133636Y246242D02*
Y241672D01*
X139349Y229389D02*
Y236816D01*
X127351D01*
Y229389D01*
X133636Y236816D02*
Y232245D01*
X139349Y227389D02*
X127351D01*
X139349D02*
Y222248D01*
X138777Y220534D01*
X138206Y219962D01*
X137064Y219391D01*
X135921D01*
X134778Y219962D01*
X134207Y220534D01*
X133636Y222248D01*
Y227389D01*
Y223390D02*
X127351Y219391D01*
X139349Y216706D02*
X127351D01*
X139349Y214192D02*
X127351D01*
X139349D02*
X127351Y206194D01*
X139349D02*
X127351D01*
X136492Y194311D02*
X137635Y194882D01*
X138777Y196025D01*
X139349Y197167D01*
Y199452D01*
X138777Y200595D01*
X137635Y201738D01*
X136492Y202309D01*
X134778Y202880D01*
X131922D01*
X130208Y202309D01*
X129065Y201738D01*
X127923Y200595D01*
X127351Y199452D01*
Y197167D01*
X127923Y196025D01*
X129065Y194882D01*
X130208Y194311D01*
X131922D01*
Y197167D02*
Y194311D01*
X139349Y182142D02*
X127351Y179285D01*
X139349Y176429D02*
X127351Y179285D01*
X139349Y176429D02*
X127351Y173572D01*
X139349Y170716D02*
X127351Y173572D01*
X139349Y168316D02*
X127351D01*
X139349Y160318D02*
X127351D01*
X133636Y168316D02*
Y160318D01*
X139349Y149578D02*
Y157004D01*
X127351D01*
Y149578D01*
X133636Y157004D02*
Y152434D01*
X139349Y140151D02*
Y147578D01*
X127351D01*
Y140151D01*
X133636Y147578D02*
Y143007D01*
X139349Y138151D02*
X127351D01*
Y131296D01*
X137635Y112557D02*
X138777Y113699D01*
X139349Y115413D01*
Y117699D01*
X138777Y119412D01*
X137635Y120555D01*
X136492D01*
X135350Y119984D01*
X134778Y119412D01*
X134207Y118270D01*
X133064Y114842D01*
X132493Y113699D01*
X131922Y113128D01*
X130779Y112557D01*
X129065D01*
X127923Y113699D01*
X127351Y115413D01*
Y117699D01*
X127923Y119412D01*
X129065Y120555D01*
X139349Y109872D02*
X127351D01*
X139349Y107358D02*
X127351D01*
X139349D02*
Y103359D01*
X138777Y101645D01*
X137635Y100502D01*
X136492Y99931D01*
X134778Y99360D01*
X131922D01*
X130208Y99931D01*
X129065Y100502D01*
X127923Y101645D01*
X127351Y103359D01*
Y107358D01*
X139349Y89248D02*
Y96674D01*
X127351D01*
Y89248D01*
X133636Y96674D02*
Y92104D01*
X200439Y120999D02*
Y109001D01*
Y120999D02*
X207866D01*
X200439Y115286D02*
X205010D01*
X217236Y119285D02*
X216093Y120427D01*
X214379Y120999D01*
X212094D01*
X210380Y120427D01*
X209237Y119285D01*
Y118142D01*
X209809Y117000D01*
X210380Y116428D01*
X211523Y115857D01*
X214950Y114714D01*
X216093Y114143D01*
X216664Y113572D01*
X217236Y112429D01*
Y110715D01*
X216093Y109573D01*
X214379Y109001D01*
X212094D01*
X210380Y109573D01*
X209237Y110715D01*
X219921Y120999D02*
Y109001D01*
Y120999D02*
X227348D01*
X219921Y115286D02*
X224491D01*
X237288Y118142D02*
X236717Y119285D01*
X235574Y120427D01*
X234432Y120999D01*
X232147D01*
X231004Y120427D01*
X229862Y119285D01*
X229290Y118142D01*
X228719Y116428D01*
Y113572D01*
X229290Y111858D01*
X229862Y110715D01*
X231004Y109573D01*
X232147Y109001D01*
X234432D01*
X235574Y109573D01*
X236717Y110715D01*
X237288Y111858D01*
X244658Y120999D02*
Y109001D01*
X240659Y120999D02*
X248657D01*
X259512D02*
Y109001D01*
Y120999D02*
X266939D01*
X259512Y115286D02*
X264083D01*
X275737Y120999D02*
X268310D01*
Y109001D01*
X275737D01*
X268310Y115286D02*
X272881D01*
X277737Y120999D02*
Y109001D01*
Y120999D02*
X285735Y109001D01*
Y120999D02*
Y109001D01*
X289049Y120999D02*
Y109001D01*
X291563Y120999D02*
X299561Y109001D01*
Y120999D02*
X291563Y109001D01*
X200125Y100999D02*
Y89001D01*
X208123Y100999D02*
Y89001D01*
X200125Y95286D02*
X208123D01*
X211437Y93572D02*
X218293D01*
Y94714D01*
X217721Y95857D01*
X217150Y96428D01*
X216007Y97000D01*
X214293D01*
X213151Y96428D01*
X212008Y95286D01*
X211437Y93572D01*
Y92429D01*
X212008Y90715D01*
X213151Y89573D01*
X214293Y89001D01*
X216007D01*
X217150Y89573D01*
X218293Y90715D01*
X220863Y97000D02*
Y89001D01*
Y93572D02*
X221435Y95286D01*
X222577Y96428D01*
X223720Y97000D01*
X225434D01*
X226519D02*
Y89001D01*
Y94714D02*
X228233Y96428D01*
X229376Y97000D01*
X231090D01*
X232232Y96428D01*
X232804Y94714D01*
Y89001D01*
Y94714D02*
X234518Y96428D01*
X235660Y97000D01*
X237374D01*
X238517Y96428D01*
X239088Y94714D01*
Y89001D01*
X242859Y93572D02*
X249714D01*
Y94714D01*
X249143Y95857D01*
X248572Y96428D01*
X247429Y97000D01*
X245715D01*
X244573Y96428D01*
X243430Y95286D01*
X242859Y93572D01*
Y92429D01*
X243430Y90715D01*
X244573Y89573D01*
X245715Y89001D01*
X247429D01*
X248572Y89573D01*
X249714Y90715D01*
X258570Y95286D02*
X257998Y96428D01*
X256284Y97000D01*
X254570D01*
X252857Y96428D01*
X252285Y95286D01*
X252857Y94143D01*
X253999Y93572D01*
X256856Y93000D01*
X257998Y92429D01*
X258570Y91286D01*
Y90715D01*
X257998Y89573D01*
X256284Y89001D01*
X254570D01*
X252857Y89573D01*
X252285Y90715D01*
X270510Y97000D02*
X273938Y89001D01*
X277366Y97000D02*
X273938Y89001D01*
X279308Y98714D02*
X280451Y99285D01*
X282165Y100999D01*
Y89001D01*
X288678Y90144D02*
X288106Y89573D01*
X288678Y89001D01*
X289249Y89573D01*
X288678Y90144D01*
X295305Y100999D02*
X293591Y100427D01*
X292448Y98714D01*
X291877Y95857D01*
Y94143D01*
X292448Y91286D01*
X293591Y89573D01*
X295305Y89001D01*
X296447D01*
X298161Y89573D01*
X299304Y91286D01*
X299875Y94143D01*
Y95857D01*
X299304Y98714D01*
X298161Y100427D01*
X296447Y100999D01*
X295305D01*
X560998Y246114D02*
X549002D01*
Y252112D01*
X551001Y254111D01*
X555000D01*
X556999Y252112D01*
Y246114D01*
X549002Y258110D02*
X560998D01*
X556999Y262109D01*
X560998Y266108D01*
X549002D01*
X560998Y270106D02*
X549002D01*
X553001Y274105D01*
X549002Y278104D01*
X560998D01*
X94714Y182624D02*
Y177482D01*
X95286Y175768D01*
X95857Y175197D01*
X97000Y174625D01*
X98714D01*
X99856Y175197D01*
X100427Y175768D01*
X100999Y177482D01*
Y182624D01*
X89001D01*
X100999Y171940D02*
X89001Y169084D01*
X100999Y166227D02*
X89001Y169084D01*
X100999Y166227D02*
X89001Y163371D01*
X100999Y160514D02*
X89001Y163371D01*
X100999Y158115D02*
X89001D01*
X100999D02*
Y152973D01*
X100427Y151259D01*
X99856Y150688D01*
X98714Y150116D01*
X97571D01*
X96428Y150688D01*
X95857Y151259D01*
X95286Y152973D01*
Y158115D01*
Y154115D02*
X89001Y150116D01*
X98999Y106944D02*
X100998Y108943D01*
Y112942D01*
X98999Y114941D01*
X96999D01*
X95000Y112942D01*
Y108943D01*
X93001Y106944D01*
X91001D01*
X89002Y108943D01*
Y112942D01*
X91001Y114941D01*
X100998Y102945D02*
X89002D01*
X95000D01*
Y94948D01*
X100998D01*
X89002D01*
X100998Y90949D02*
Y86950D01*
Y88950D01*
X89002D01*
Y90949D01*
Y86950D01*
X100998Y72955D02*
Y80952D01*
X95000D01*
Y76954D01*
Y80952D01*
X89002D01*
X100998Y68956D02*
Y60959D01*
Y64957D01*
X89002D01*
X284364Y612505D02*
X283222Y613648D01*
X281508Y614219D01*
X279223D01*
X277509Y613648D01*
X276366Y612505D01*
Y611363D01*
X276937Y610220D01*
X277509Y609649D01*
X278651Y609078D01*
X282079Y607935D01*
X283222Y607364D01*
X283793Y606792D01*
X284364Y605650D01*
Y603936D01*
X283222Y602793D01*
X281508Y602222D01*
X279223D01*
X277509Y602793D01*
X276366Y603936D01*
X287050Y614219D02*
X289906Y602222D01*
X292763Y614219D02*
X289906Y602222D01*
X292763Y614219D02*
X295619Y602222D01*
X298476Y614219D02*
X295619Y602222D01*
X300875Y614219D02*
Y602222D01*
Y614219D02*
X304874D01*
X306588Y613648D01*
X307731Y612505D01*
X308302Y611363D01*
X308873Y609649D01*
Y606792D01*
X308302Y605079D01*
X307731Y603936D01*
X306588Y602793D01*
X304874Y602222D01*
X300875D01*
X100999Y273383D02*
X89001D01*
X100999D02*
Y269384D01*
X100427Y267670D01*
X99285Y266527D01*
X98142Y265956D01*
X96428Y265384D01*
X93572D01*
X91858Y265956D01*
X90715Y266527D01*
X89573Y267670D01*
X89001Y269384D01*
Y273383D01*
Y253558D02*
X100999Y258129D01*
X89001Y262699D01*
X93000Y260985D02*
Y255272D01*
X99285Y242761D02*
X100427Y243903D01*
X100999Y245617D01*
Y247902D01*
X100427Y249616D01*
X99285Y250759D01*
X98142D01*
X97000Y250188D01*
X96428Y249616D01*
X95857Y248474D01*
X94714Y245046D01*
X94143Y243903D01*
X93572Y243332D01*
X92429Y242761D01*
X90715D01*
X89573Y243903D01*
X89001Y245617D01*
Y247902D01*
X89573Y249616D01*
X90715Y250759D01*
X100999Y240075D02*
X89001D01*
X100999Y232077D02*
X89001D01*
X95286Y240075D02*
Y232077D01*
X573028Y112279D02*
X561032D01*
Y118277D01*
X563031Y120276D01*
X567030D01*
X569029Y118277D01*
Y112279D01*
Y116278D02*
X573028Y120276D01*
X561032Y132273D02*
Y124275D01*
X573028D01*
Y132273D01*
X567030Y124275D02*
Y128274D01*
X563031Y144269D02*
X561032Y142269D01*
Y138271D01*
X563031Y136271D01*
X565031D01*
X567030Y138271D01*
Y142269D01*
X569029Y144269D01*
X571029D01*
X573028Y142269D01*
Y138271D01*
X571029Y136271D01*
X561032Y156265D02*
Y148267D01*
X573028D01*
Y156265D01*
X567030Y148267D02*
Y152266D01*
X561032Y160264D02*
Y168261D01*
Y164262D01*
X573028D01*
X164606Y348027D02*
Y336030D01*
X171462D01*
X172776Y348027D02*
Y336030D01*
Y348027D02*
X176775D01*
X178489Y347456D01*
X179632Y346314D01*
X180203Y345171D01*
X180774Y343457D01*
Y340600D01*
X180203Y338886D01*
X179632Y337744D01*
X178489Y336601D01*
X176775Y336030D01*
X172776D01*
X186887Y348027D02*
X185744Y347456D01*
X184602Y346314D01*
X184030Y345171D01*
X183459Y343457D01*
Y340600D01*
X184030Y338886D01*
X184602Y337744D01*
X185744Y336601D01*
X186887Y336030D01*
X189172D01*
X190315Y336601D01*
X191458Y337744D01*
X192029Y338886D01*
X192600Y340600D01*
Y343457D01*
X192029Y345171D01*
X191458Y346314D01*
X190315Y347456D01*
X189172Y348027D01*
X186887D01*
X195971Y345171D02*
Y345742D01*
X196542Y346885D01*
X197113Y347456D01*
X198256Y348027D01*
X200541D01*
X201684Y347456D01*
X202255Y346885D01*
X202826Y345742D01*
Y344599D01*
X202255Y343457D01*
X201113Y341743D01*
X195399Y336030D01*
X203398D01*
X460516Y435911D02*
Y423914D01*
X467372D01*
X468686Y435911D02*
Y423914D01*
Y435911D02*
X472685D01*
X474399Y435340D01*
X475541Y434198D01*
X476113Y433055D01*
X476684Y431341D01*
Y428484D01*
X476113Y426771D01*
X475541Y425628D01*
X474399Y424485D01*
X472685Y423914D01*
X468686D01*
X482797Y435911D02*
X481654Y435340D01*
X480512Y434198D01*
X479940Y433055D01*
X479369Y431341D01*
Y428484D01*
X479940Y426771D01*
X480512Y425628D01*
X481654Y424485D01*
X482797Y423914D01*
X485082D01*
X486225Y424485D01*
X487368Y425628D01*
X487939Y426771D01*
X488510Y428484D01*
Y431341D01*
X487939Y433055D01*
X487368Y434198D01*
X486225Y435340D01*
X485082Y435911D01*
X482797D01*
X492452D02*
X498736D01*
X495309Y431341D01*
X497023D01*
X498165Y430770D01*
X498736Y430198D01*
X499308Y428484D01*
Y427342D01*
X498736Y425628D01*
X497594Y424485D01*
X495880Y423914D01*
X494166D01*
X492452Y424485D01*
X491881Y425057D01*
X491310Y426199D01*
X329577Y492807D02*
Y483666D01*
X329006Y481953D01*
X328435Y481381D01*
X327292Y480810D01*
X326149D01*
X325007Y481381D01*
X324435Y481953D01*
X323864Y483666D01*
Y484809D01*
X341232Y489951D02*
X340661Y491093D01*
X339518Y492236D01*
X338375Y492807D01*
X336090D01*
X334948Y492236D01*
X333805Y491093D01*
X333233Y489951D01*
X332662Y488237D01*
Y485380D01*
X333233Y483666D01*
X333805Y482524D01*
X334948Y481381D01*
X336090Y480810D01*
X338375D01*
X339518Y481381D01*
X340661Y482524D01*
X341232Y483666D01*
X249313Y493061D02*
Y483921D01*
X248742Y482207D01*
X248171Y481635D01*
X247028Y481064D01*
X245885D01*
X244743Y481635D01*
X244171Y482207D01*
X243600Y483921D01*
Y485063D01*
X261539Y481064D02*
X256969Y493061D01*
X252398Y481064D01*
X254112Y485063D02*
X259825D01*
D12*
X120000Y290000D02*
X120650D01*
D13*
X241059Y240274D02*
X253754D01*
X256294Y242813D01*
Y247891D01*
X253754Y250430D01*
X241059D01*
X256294Y265665D02*
Y255509D01*
X246137Y265665D01*
X243598D01*
X241059Y263126D01*
Y258048D01*
X243598Y255509D01*
X241059Y173217D02*
X253755D01*
X256294Y175756D01*
Y180834D01*
X253755Y183374D01*
X241059D01*
X256294Y188452D02*
Y193530D01*
Y190991D01*
X241059D01*
X243598Y188452D01*
M02*
