G04*
G04 #@! TF.GenerationSoftware,Altium Limited,Altium Designer,23.8.1 (32)*
G04*
G04 Layer_Color=16711935*
%FSLAX44Y44*%
%MOMM*%
G71*
G04*
G04 #@! TF.SameCoordinates,B1DDD4D6-6927-4A11-B6FF-346F9E1F7E25*
G04*
G04*
G04 #@! TF.FilePolarity,Negative*
G04*
G01*
G75*
%ADD58R,1.5532X1.5532*%
%ADD59C,1.5532*%
%ADD60C,2.1982*%
G04:AMPARAMS|DCode=61|XSize=1.8032mm|YSize=1.8032mm|CornerRadius=0.5016mm|HoleSize=0mm|Usage=FLASHONLY|Rotation=90.000|XOffset=0mm|YOffset=0mm|HoleType=Round|Shape=RoundedRectangle|*
%AMROUNDEDRECTD61*
21,1,1.8032,0.8000,0,0,90.0*
21,1,0.8000,1.8032,0,0,90.0*
1,1,1.0032,0.4000,0.4000*
1,1,1.0032,0.4000,-0.4000*
1,1,1.0032,-0.4000,-0.4000*
1,1,1.0032,-0.4000,0.4000*
%
%ADD61ROUNDEDRECTD61*%
%ADD62C,1.8032*%
%ADD63C,2.1400*%
%ADD64R,2.7532X2.7532*%
%ADD65C,2.7532*%
G04:AMPARAMS|DCode=66|XSize=1.8032mm|YSize=1.8032mm|CornerRadius=0.5016mm|HoleSize=0mm|Usage=FLASHONLY|Rotation=0.000|XOffset=0mm|YOffset=0mm|HoleType=Round|Shape=RoundedRectangle|*
%AMROUNDEDRECTD66*
21,1,1.8032,0.8000,0,0,0.0*
21,1,0.8000,1.8032,0,0,0.0*
1,1,1.0032,0.4000,-0.4000*
1,1,1.0032,-0.4000,-0.4000*
1,1,1.0032,-0.4000,0.4000*
1,1,1.0032,0.4000,0.4000*
%
%ADD66ROUNDEDRECTD66*%
D58*
X68580Y97790D02*
D03*
Y174940D02*
D03*
X582930Y280670D02*
D03*
X67310Y230190D02*
D03*
D59*
X68580Y77790D02*
D03*
Y154940D02*
D03*
X582930Y240670D02*
D03*
Y260670D02*
D03*
X67310Y250190D02*
D03*
Y270190D02*
D03*
D60*
X449100Y622430D02*
D03*
X377600D02*
D03*
D61*
X252560Y516620D02*
D03*
X332500Y541770D02*
D03*
D62*
X252560Y542020D02*
D03*
X317960Y579320D02*
D03*
X292560D02*
D03*
X332500Y516370D02*
D03*
D63*
X620000Y30000D02*
D03*
X30000D02*
D03*
X535000Y535000D02*
D03*
X115000D02*
D03*
D64*
X186450Y536220D02*
D03*
D65*
X159450Y561220D02*
D03*
X186450Y586220D02*
D03*
D66*
X267160Y579320D02*
D03*
M02*
