G04*
G04 #@! TF.GenerationSoftware,Altium Limited,Altium Designer,23.8.1 (32)*
G04*
G04 Layer_Color=32768*
%FSLAX44Y44*%
%MOMM*%
G71*
G04*
G04 #@! TF.SameCoordinates,B1DDD4D6-6927-4A11-B6FF-346F9E1F7E25*
G04*
G04*
G04 #@! TF.FilePolarity,Positive*
G04*
G01*
G75*
%ADD10C,0.1000*%
%ADD12C,0.0500*%
D10*
X83080Y54790D02*
Y117790D01*
X3080Y54790D02*
X83080D01*
X3080D02*
Y117790D01*
X83080D01*
X3080Y194940D02*
X83080D01*
X3080Y131940D02*
Y194940D01*
Y131940D02*
X83080D01*
Y194940D01*
X376350Y594430D02*
X450350D01*
X376350D02*
Y649930D01*
X450350D01*
Y594430D02*
Y649930D01*
X419600Y192900D02*
Y198900D01*
X422600D01*
Y192900D02*
Y198900D01*
X419600Y192900D02*
X422600D01*
X412600D02*
X415600D01*
Y198900D01*
X412600D02*
X415600D01*
X412600Y192900D02*
Y198900D01*
X418600Y310510D02*
X424100D01*
X421350Y307760D02*
Y313260D01*
X378350Y215510D02*
Y285510D01*
Y215510D02*
X448350D01*
Y285510D01*
X378350D02*
X448350D01*
X229150Y194550D02*
X241850Y207250D01*
X229150Y158210D02*
Y207250D01*
Y158210D02*
X268110D01*
Y207250D01*
X229150D02*
X268110D01*
X229150Y264260D02*
X241850Y276960D01*
X229150Y227920D02*
Y276960D01*
Y227920D02*
X268110D01*
Y276960D01*
X229150D02*
X268110D01*
X568430Y220670D02*
Y303670D01*
Y220670D02*
X648430D01*
Y303670D01*
X568430D02*
X648430D01*
X582140Y105890D02*
X642140D01*
X582140D02*
Y165890D01*
X642140D01*
Y105890D02*
Y165890D01*
X346470Y242010D02*
X352470D01*
Y239010D02*
Y242010D01*
X346470Y239010D02*
X352470D01*
X346470D02*
Y242010D01*
X199760Y197780D02*
Y205780D01*
X183760D02*
X199760D01*
X183760Y197780D02*
Y205780D01*
Y197780D02*
X199760D01*
X211450Y534220D02*
Y648220D01*
X161450Y534220D02*
X211450D01*
X161450D02*
Y648220D01*
X211450D01*
X405011Y323838D02*
Y329838D01*
X402011Y323838D02*
X405011D01*
X402011D02*
Y329838D01*
X405011D01*
X397011Y323838D02*
Y329838D01*
X394011Y323838D02*
X397011D01*
X394011D02*
Y329838D01*
X397011D01*
X402390Y350400D02*
X407390D01*
X402390Y340400D02*
Y350400D01*
Y340400D02*
X407390D01*
Y350400D01*
X415280Y342400D02*
Y348400D01*
X412280Y342400D02*
X415280D01*
X412280D02*
Y348400D01*
X415280D01*
X435120Y330750D02*
X440120D01*
X435120Y320750D02*
Y330750D01*
Y320750D02*
X440120D01*
Y330750D01*
X458350Y302010D02*
Y307010D01*
X448350D02*
X458350D01*
X448350Y302010D02*
Y307010D01*
Y302010D02*
X458350D01*
X454420Y294410D02*
X460420D01*
X454420D02*
Y297410D01*
X460420D01*
Y294410D02*
Y297410D01*
X284190Y383770D02*
X336490D01*
Y331470D02*
Y383770D01*
X284190Y331470D02*
X336490D01*
X284190D02*
Y383770D01*
Y371070D02*
X296890Y383770D01*
X362192Y376498D02*
Y382498D01*
X359192Y376498D02*
X362192D01*
X359192D02*
Y382498D01*
X362192D01*
X1810Y207190D02*
X81810D01*
X1810D02*
Y290190D01*
X81810D01*
Y207190D02*
Y290190D01*
X299050Y193080D02*
X315050D01*
Y185080D02*
Y193080D01*
X299050Y185080D02*
X315050D01*
X299050D02*
Y193080D01*
X183760Y267490D02*
X199760D01*
X183760D02*
Y275490D01*
X199760D01*
Y267490D02*
Y275490D01*
X459040Y239010D02*
X465040D01*
X459040D02*
Y242010D01*
X465040D01*
Y239010D02*
Y242010D01*
X366850Y286960D02*
X369850D01*
X366850Y280960D02*
Y286960D01*
Y280960D02*
X369850D01*
Y286960D01*
X429350Y307760D02*
Y313260D01*
X426600Y310510D02*
X432100D01*
X379360Y132600D02*
Y135600D01*
X373360D02*
X379360D01*
X373360Y132600D02*
Y135600D01*
Y132600D02*
X379360D01*
X474360Y132850D02*
Y135850D01*
X468360D02*
X474360D01*
X468360Y132850D02*
Y135850D01*
Y132850D02*
X474360D01*
X483320Y481510D02*
X499320D01*
X483320D02*
Y489510D01*
X499320D01*
Y481510D02*
Y489510D01*
X188080Y393020D02*
X204080D01*
X188080D02*
Y401020D01*
X204080D01*
Y393020D02*
Y401020D01*
X438520Y479260D02*
Y491760D01*
Y479260D02*
X458520D01*
Y491760D01*
X438520D02*
X458520D01*
X465040Y275010D02*
Y278010D01*
X459040D02*
X465040D01*
X459040Y275010D02*
Y278010D01*
Y275010D02*
X465040D01*
X142780Y390770D02*
Y403270D01*
Y390770D02*
X162780D01*
Y403270D01*
X142780D02*
X162780D01*
X506060Y61610D02*
Y128610D01*
X335060D02*
X506060D01*
X335060Y61610D02*
Y128610D01*
Y61610D02*
X506060D01*
X489320Y447510D02*
X512320Y424510D01*
X447320Y447510D02*
X512320D01*
X447320Y412510D02*
Y447510D01*
Y412510D02*
X512320D01*
Y447510D01*
X193580Y359520D02*
X216580Y336520D01*
X151580Y359520D02*
X216580D01*
X151580Y324520D02*
Y359520D01*
Y324520D02*
X216580D01*
Y359520D01*
X107580Y441320D02*
X124580D01*
Y467320D01*
X107580D02*
X124580D01*
X107580Y441320D02*
Y467320D01*
X448320Y514800D02*
X465320D01*
Y540800D01*
X448320D02*
X465320D01*
X448320Y514800D02*
Y540800D01*
D12*
X425350Y303010D02*
Y318010D01*
X417350Y303010D02*
Y318010D01*
X425350D01*
X417350Y303010D02*
X425350D01*
X252560Y524320D02*
Y534320D01*
X247560Y529320D02*
X257560D01*
X237110Y500420D02*
X268010D01*
Y558220D01*
X237110D02*
X268010D01*
X237110Y500420D02*
Y558220D01*
X293850Y386410D02*
Y397410D01*
X270850Y386410D02*
Y397410D01*
Y386410D02*
X293850D01*
X270850Y397410D02*
X293850D01*
X277600Y391910D02*
X287100D01*
X282350Y387160D02*
Y396660D01*
X185490Y169960D02*
Y179460D01*
X180740Y174710D02*
X190240D01*
X173990Y169210D02*
X196990D01*
X173990Y180210D02*
X196990D01*
Y169210D02*
Y180210D01*
X173990Y169210D02*
Y180210D01*
X318550Y169780D02*
Y180780D01*
X295550Y169780D02*
Y180780D01*
Y169780D02*
X318550D01*
X295550Y180780D02*
X318550D01*
X302300Y175280D02*
X311800D01*
X307050Y170530D02*
Y180030D01*
X187100Y239810D02*
Y249310D01*
X182350Y244560D02*
X191850D01*
X175600Y239060D02*
X198600D01*
X175600Y250060D02*
X198600D01*
Y239060D02*
Y250060D01*
X175600Y239060D02*
Y250060D01*
X196990Y183210D02*
Y194210D01*
X173990Y183210D02*
Y194210D01*
Y183210D02*
X196990D01*
X173990Y194210D02*
X196990D01*
X180740Y188710D02*
X190240D01*
X185490Y183960D02*
Y193460D01*
X307050Y156530D02*
Y166030D01*
X302300Y161280D02*
X311800D01*
X295550Y155780D02*
X318550D01*
X295550Y166780D02*
X318550D01*
Y155780D02*
Y166780D01*
X295550Y155780D02*
Y166780D01*
X198600Y253060D02*
Y264060D01*
X175600Y253060D02*
Y264060D01*
Y253060D02*
X198600D01*
X175600Y264060D02*
X198600D01*
X182350Y258560D02*
X191850D01*
X187100Y253810D02*
Y263310D01*
X250960Y563870D02*
Y594770D01*
Y563870D02*
X334160D01*
Y594770D01*
X250960D02*
X334160D01*
X292560Y574320D02*
Y584320D01*
X287560Y579320D02*
X297560D01*
X347950Y500170D02*
Y557970D01*
X317050Y500170D02*
X347950D01*
X317050D02*
Y557970D01*
X347950D01*
X327500Y529070D02*
X337500D01*
X332500Y524070D02*
Y534070D01*
X425350Y303010D02*
X433350D01*
X425350Y318010D02*
X433350D01*
X425350Y303010D02*
Y318010D01*
X433350Y303010D02*
Y318010D01*
X463810Y156960D02*
X473310D01*
X468560Y152210D02*
Y161710D01*
X474060Y145460D02*
Y168460D01*
X463060Y145460D02*
Y168460D01*
X474060D01*
X463060Y145460D02*
X474060D01*
M02*
