G04*
G04 #@! TF.GenerationSoftware,Altium Limited,Altium Designer,23.8.1 (32)*
G04*
G04 Layer_Color=16711935*
%FSLAX44Y44*%
%MOMM*%
G71*
G04*
G04 #@! TF.SameCoordinates,B1DDD4D6-6927-4A11-B6FF-346F9E1F7E25*
G04*
G04*
G04 #@! TF.FilePolarity,Positive*
G04*
G01*
G75*
%ADD10C,0.1000*%
D10*
X424100Y305260D02*
Y315760D01*
X418600Y305260D02*
Y315760D01*
X424100D01*
X418600Y305260D02*
X424100D01*
X239860Y503920D02*
X265260D01*
Y554720D01*
X239860D02*
X265260D01*
X239860Y503920D02*
Y554720D01*
X290850Y387160D02*
Y396660D01*
X273850Y387160D02*
Y396660D01*
Y387160D02*
X290850D01*
X273850Y396660D02*
X290850D01*
X176990Y169960D02*
X193990D01*
X176990Y179460D02*
X193990D01*
Y169960D02*
Y179460D01*
X176990Y169960D02*
Y179460D01*
X315550Y170530D02*
Y180030D01*
X298550Y170530D02*
Y180030D01*
Y170530D02*
X315550D01*
X298550Y180030D02*
X315550D01*
X178600Y239810D02*
X195600D01*
X178600Y249310D02*
X195600D01*
Y239810D02*
Y249310D01*
X178600Y239810D02*
Y249310D01*
X193990Y183960D02*
Y193460D01*
X176990Y183960D02*
Y193460D01*
Y183960D02*
X193990D01*
X176990Y193460D02*
X193990D01*
X298550Y156530D02*
X315550D01*
X298550Y166030D02*
X315550D01*
Y156530D02*
Y166030D01*
X298550Y156530D02*
Y166030D01*
X195600Y253810D02*
Y263310D01*
X178600Y253810D02*
Y263310D01*
Y253810D02*
X195600D01*
X178600Y263310D02*
X195600D01*
X330660Y566620D02*
Y592020D01*
X254460Y566620D02*
Y592020D01*
Y566620D02*
X330660D01*
X254460Y592020D02*
X330660D01*
X345200Y503670D02*
Y554470D01*
X319800Y503670D02*
X345200D01*
X319800D02*
Y554470D01*
X345200D01*
X426600Y305260D02*
X432100D01*
X426600Y315760D02*
X432100D01*
X426600Y305260D02*
Y315760D01*
X432100Y305260D02*
Y315760D01*
X477560Y71610D02*
Y118610D01*
X363560D02*
X477560D01*
X363560Y71610D02*
Y118610D01*
Y71610D02*
X477560D01*
X473310Y148460D02*
Y165460D01*
X463810Y148460D02*
Y165460D01*
X473310D01*
X463810Y148460D02*
X473310D01*
M02*
