G04*
G04 #@! TF.GenerationSoftware,Altium Limited,Altium Designer,23.8.1 (32)*
G04*
G04 Layer_Color=32768*
%FSLAX44Y44*%
%MOMM*%
G71*
G04*
G04 #@! TF.SameCoordinates,B1DDD4D6-6927-4A11-B6FF-346F9E1F7E25*
G04*
G04*
G04 #@! TF.FilePolarity,Positive*
G04*
G01*
G75*
%ADD91C,0.1500*%
D91*
X245063Y526821D02*
Y521822D01*
Y524322D01*
X257558D01*
X260058Y521822D01*
Y519323D01*
X257558Y516824D01*
X260058Y531819D02*
X250061D01*
X245063Y536818D01*
X250061Y541816D01*
X260058D01*
X252560D01*
Y531819D01*
X339998Y531569D02*
Y536567D01*
Y534068D01*
X327502D01*
X325003Y536567D01*
Y539067D01*
X327502Y541566D01*
X337499Y516574D02*
X339998Y519073D01*
Y524072D01*
X337499Y526571D01*
X327502D01*
X325003Y524072D01*
Y519073D01*
X327502Y516574D01*
X282563Y584318D02*
X280064Y586818D01*
X275066D01*
X272567Y584318D01*
Y581819D01*
X275066Y579320D01*
X280064D01*
X282563Y576821D01*
Y574322D01*
X280064Y571822D01*
X275066D01*
X272567Y574322D01*
X287562Y586818D02*
Y571822D01*
X292560Y576821D01*
X297558Y571822D01*
Y586818D01*
X302557D02*
Y571822D01*
X310054D01*
X312554Y574322D01*
Y584318D01*
X310054Y586818D01*
X302557D01*
M02*
