G04*
G04 #@! TF.GenerationSoftware,Altium Limited,Altium Designer,23.8.1 (32)*
G04*
G04 Layer_Color=8388736*
%FSLAX44Y44*%
%MOMM*%
G71*
G04*
G04 #@! TF.SameCoordinates,B1DDD4D6-6927-4A11-B6FF-346F9E1F7E25*
G04*
G04*
G04 #@! TF.FilePolarity,Positive*
G04*
G01*
G75*
%ADD86C,0.7000*%
%ADD88C,0.3500*%
%ADD89C,0.5000*%
%ADD90C,0.6000*%
D86*
X203090Y410020D02*
D03*
X392328Y582180D02*
D03*
X498330Y499510D02*
D03*
X484310D02*
D03*
X389650Y134350D02*
D03*
X484780D02*
D03*
X132480Y397020D02*
D03*
X189072Y410018D02*
D03*
X440222Y499508D02*
D03*
X618870Y96140D02*
D03*
Y175640D02*
D03*
X442822Y513802D02*
D03*
X353062Y614682D02*
D03*
X375922Y551182D02*
D03*
X470818Y513798D02*
D03*
X525780Y492760D02*
D03*
X96890Y440320D02*
D03*
D88*
X356870Y232410D02*
D03*
X359410Y226060D02*
D03*
X365760Y223520D02*
D03*
X370840Y219755D02*
D03*
X458190Y224510D02*
D03*
X453390Y204470D02*
D03*
X389440Y330140D02*
D03*
X389890Y322580D02*
D03*
X340360Y257810D02*
D03*
X408490Y323540D02*
D03*
X408239Y334288D02*
D03*
X409006Y197320D02*
D03*
X396240Y207010D02*
D03*
X425616Y199020D02*
D03*
X421100Y183900D02*
D03*
X414100D02*
D03*
X415246Y293685D02*
D03*
X419180Y298450D02*
D03*
X415290Y323850D02*
D03*
X352790Y227288D02*
D03*
X365777Y216856D02*
D03*
X340310Y263835D02*
D03*
X303972Y205711D02*
D03*
X192936Y211434D02*
D03*
X208960Y282725D02*
D03*
X461836Y219539D02*
D03*
X457920Y209870D02*
D03*
D89*
X368350Y294260D02*
D03*
X466180Y304510D02*
D03*
X437620Y337350D02*
D03*
X404890Y357000D02*
D03*
X397890Y340800D02*
D03*
X339170Y240510D02*
D03*
X414020Y260510D02*
D03*
X423350Y250510D02*
D03*
X414020Y240510D02*
D03*
X404020Y250510D02*
D03*
Y260510D02*
D03*
X423350D02*
D03*
X404020Y240510D02*
D03*
X423350D02*
D03*
X440690Y374650D02*
D03*
Y367030D02*
D03*
X403860Y391160D02*
D03*
X414020Y391276D02*
D03*
X361519Y280660D02*
D03*
X352770Y247510D02*
D03*
X473470Y276510D02*
D03*
X473470Y240510D02*
D03*
X458740Y248640D02*
D03*
X454585Y287782D02*
D03*
X459282Y268385D02*
D03*
X448310Y311150D02*
D03*
X445043Y326271D02*
D03*
D90*
X259973Y338570D02*
D03*
X360692Y390555D02*
D03*
X300737Y391910D02*
D03*
X466720Y295910D02*
D03*
X369330Y376670D02*
D03*
M02*
