G04*
G04 #@! TF.GenerationSoftware,Altium Limited,Altium Designer,23.8.1 (32)*
G04*
G04 Layer_Color=16711935*
%FSLAX43Y43*%
%MOMM*%
G71*
G04*
G04 #@! TF.SameCoordinates,4157314E-2F8B-4695-BFB2-F8FC6B21436D*
G04*
G04*
G04 #@! TF.FilePolarity,Positive*
G04*
G01*
G75*
%ADD12C,0.200*%
G36*
X43476Y13286D02*
X43483Y13285D01*
X43491Y13285D01*
X43501Y13283D01*
X43512Y13281D01*
X43536Y13275D01*
X43561Y13266D01*
X43574Y13261D01*
X43586Y13253D01*
X43599Y13246D01*
X43611Y13236D01*
X43612Y13236D01*
X43614Y13234D01*
X43618Y13230D01*
X43623Y13225D01*
X43628Y13219D01*
X43636Y13212D01*
X43642Y13202D01*
X43649Y13192D01*
X43657Y13181D01*
X43663Y13168D01*
X43670Y13154D01*
X43676Y13139D01*
X43681Y13124D01*
X43685Y13106D01*
X43687Y13088D01*
X43688Y13068D01*
Y13060D01*
X43687Y13053D01*
X43686Y13046D01*
X43685Y13038D01*
X43685Y13028D01*
X43682Y13017D01*
X43676Y12994D01*
X43668Y12971D01*
X43662Y12959D01*
X43656Y12947D01*
X43648Y12936D01*
X43640Y12925D01*
X43639Y12924D01*
X43638Y12922D01*
X43635Y12920D01*
X43631Y12917D01*
X43626Y12912D01*
X43621Y12907D01*
X43613Y12902D01*
X43605Y12897D01*
X43597Y12892D01*
X43587Y12886D01*
X43564Y12876D01*
X43538Y12868D01*
X43525Y12865D01*
X43510Y12863D01*
X43503Y12945D01*
X43504D01*
X43506D01*
X43509Y12946D01*
X43514Y12947D01*
X43524Y12950D01*
X43538Y12954D01*
X43551Y12959D01*
X43567Y12967D01*
X43581Y12976D01*
X43594Y12987D01*
X43595Y12989D01*
X43599Y12992D01*
X43603Y13000D01*
X43609Y13010D01*
X43614Y13021D01*
X43619Y13035D01*
X43623Y13051D01*
X43624Y13068D01*
Y13074D01*
X43623Y13077D01*
X43622Y13089D01*
X43618Y13101D01*
X43613Y13117D01*
X43606Y13133D01*
X43595Y13150D01*
X43588Y13157D01*
X43581Y13164D01*
X43580Y13165D01*
X43579Y13166D01*
X43576Y13168D01*
X43574Y13171D01*
X43563Y13177D01*
X43550Y13185D01*
X43535Y13191D01*
X43515Y13198D01*
X43492Y13202D01*
X43480Y13204D01*
X43467D01*
X43466D01*
X43465D01*
X43461D01*
X43456Y13203D01*
X43451D01*
X43444Y13202D01*
X43429Y13199D01*
X43412Y13195D01*
X43394Y13188D01*
X43378Y13179D01*
X43362Y13166D01*
X43361D01*
X43360Y13164D01*
X43355Y13160D01*
X43349Y13151D01*
X43342Y13140D01*
X43335Y13126D01*
X43329Y13109D01*
X43324Y13089D01*
X43322Y13078D01*
Y13061D01*
X43323Y13053D01*
X43324Y13044D01*
X43327Y13033D01*
X43330Y13022D01*
X43334Y13010D01*
X43340Y12998D01*
X43341Y12997D01*
X43342Y12993D01*
X43347Y12988D01*
X43352Y12980D01*
X43358Y12973D01*
X43367Y12966D01*
X43375Y12957D01*
X43385Y12951D01*
X43375Y12877D01*
X43046Y12939D01*
Y13257D01*
X43121D01*
Y13001D01*
X43293Y12967D01*
X43293Y12967D01*
X43292Y12969D01*
X43290Y12972D01*
X43287Y12977D01*
X43284Y12982D01*
X43281Y12989D01*
X43273Y13003D01*
X43266Y13022D01*
X43259Y13042D01*
X43255Y13064D01*
X43253Y13076D01*
Y13096D01*
X43254Y13101D01*
X43255Y13109D01*
X43256Y13117D01*
X43257Y13126D01*
X43260Y13137D01*
X43267Y13159D01*
X43271Y13171D01*
X43278Y13183D01*
X43284Y13195D01*
X43292Y13207D01*
X43301Y13218D01*
X43311Y13229D01*
X43312Y13230D01*
X43314Y13232D01*
X43317Y13235D01*
X43321Y13238D01*
X43328Y13243D01*
X43334Y13248D01*
X43342Y13253D01*
X43352Y13259D01*
X43362Y13263D01*
X43373Y13269D01*
X43386Y13273D01*
X43399Y13278D01*
X43413Y13282D01*
X43428Y13285D01*
X43444Y13286D01*
X43461Y13287D01*
X43462D01*
X43465D01*
X43469D01*
X43476Y13286D01*
D02*
G37*
G36*
X43479Y12790D02*
X43485Y12788D01*
X43492Y12785D01*
X43501Y12783D01*
X43511Y12779D01*
X43522Y12774D01*
X43534Y12769D01*
X43560Y12756D01*
X43586Y12739D01*
X43599Y12729D01*
X43612Y12719D01*
X43623Y12708D01*
X43634Y12695D01*
X43635Y12694D01*
X43636Y12692D01*
X43638Y12687D01*
X43642Y12683D01*
X43647Y12675D01*
X43651Y12668D01*
X43656Y12658D01*
X43661Y12648D01*
X43666Y12635D01*
X43671Y12623D01*
X43675Y12609D01*
X43680Y12594D01*
X43684Y12578D01*
X43685Y12562D01*
X43687Y12544D01*
X43688Y12525D01*
Y12515D01*
X43687Y12508D01*
Y12500D01*
X43686Y12489D01*
X43685Y12478D01*
X43683Y12465D01*
X43678Y12439D01*
X43671Y12411D01*
X43661Y12383D01*
X43654Y12370D01*
X43647Y12357D01*
X43646Y12356D01*
X43645Y12354D01*
X43642Y12351D01*
X43638Y12347D01*
X43635Y12341D01*
X43629Y12335D01*
X43623Y12328D01*
X43615Y12320D01*
X43607Y12313D01*
X43599Y12305D01*
X43577Y12288D01*
X43552Y12272D01*
X43525Y12258D01*
X43524D01*
X43521Y12256D01*
X43516Y12256D01*
X43511Y12253D01*
X43503Y12251D01*
X43494Y12248D01*
X43484Y12244D01*
X43473Y12242D01*
X43461Y12239D01*
X43447Y12235D01*
X43418Y12231D01*
X43386Y12227D01*
X43353Y12225D01*
X43352D01*
X43348D01*
X43342D01*
X43336Y12226D01*
X43327D01*
X43318Y12227D01*
X43305Y12228D01*
X43293Y12230D01*
X43267Y12234D01*
X43237Y12241D01*
X43207Y12250D01*
X43179Y12263D01*
X43178Y12264D01*
X43175Y12265D01*
X43171Y12267D01*
X43167Y12270D01*
X43160Y12274D01*
X43153Y12279D01*
X43136Y12291D01*
X43118Y12306D01*
X43099Y12325D01*
X43081Y12346D01*
X43065Y12371D01*
X43064Y12372D01*
X43063Y12375D01*
X43061Y12378D01*
X43059Y12383D01*
X43056Y12391D01*
X43053Y12398D01*
X43049Y12407D01*
X43046Y12417D01*
X43042Y12428D01*
X43038Y12440D01*
X43033Y12466D01*
X43028Y12496D01*
X43026Y12526D01*
Y12536D01*
X43027Y12542D01*
X43028Y12550D01*
X43029Y12561D01*
X43030Y12571D01*
X43033Y12583D01*
X43038Y12608D01*
X43047Y12635D01*
X43052Y12649D01*
X43059Y12662D01*
X43067Y12675D01*
X43075Y12688D01*
X43076Y12689D01*
X43077Y12691D01*
X43080Y12695D01*
X43085Y12699D01*
X43089Y12704D01*
X43096Y12710D01*
X43103Y12717D01*
X43110Y12724D01*
X43120Y12732D01*
X43131Y12739D01*
X43142Y12747D01*
X43154Y12755D01*
X43168Y12761D01*
X43182Y12769D01*
X43196Y12774D01*
X43213Y12780D01*
X43232Y12697D01*
X43232D01*
X43230Y12696D01*
X43226Y12694D01*
X43221Y12692D01*
X43216Y12690D01*
X43208Y12687D01*
X43194Y12680D01*
X43177Y12671D01*
X43160Y12660D01*
X43145Y12646D01*
X43131Y12631D01*
X43129Y12629D01*
X43125Y12623D01*
X43121Y12614D01*
X43114Y12602D01*
X43109Y12587D01*
X43103Y12569D01*
X43099Y12548D01*
X43098Y12525D01*
Y12517D01*
X43099Y12513D01*
Y12506D01*
X43100Y12499D01*
X43103Y12481D01*
X43107Y12462D01*
X43113Y12441D01*
X43122Y12420D01*
X43134Y12401D01*
Y12400D01*
X43136Y12399D01*
X43141Y12392D01*
X43148Y12384D01*
X43159Y12374D01*
X43173Y12362D01*
X43189Y12351D01*
X43208Y12341D01*
X43230Y12331D01*
X43231D01*
X43232Y12330D01*
X43235Y12329D01*
X43240Y12329D01*
X43245Y12327D01*
X43252Y12325D01*
X43268Y12322D01*
X43286Y12318D01*
X43306Y12315D01*
X43329Y12313D01*
X43353Y12312D01*
X43354D01*
X43356D01*
X43361D01*
X43367D01*
X43373Y12313D01*
X43381D01*
X43391Y12314D01*
X43401Y12315D01*
X43423Y12317D01*
X43447Y12322D01*
X43471Y12328D01*
X43495Y12335D01*
X43496D01*
X43498Y12336D01*
X43501Y12338D01*
X43505Y12340D01*
X43516Y12345D01*
X43529Y12354D01*
X43544Y12364D01*
X43560Y12377D01*
X43574Y12391D01*
X43587Y12409D01*
Y12410D01*
X43587Y12412D01*
X43589Y12415D01*
X43591Y12418D01*
X43593Y12423D01*
X43596Y12428D01*
X43601Y12441D01*
X43607Y12458D01*
X43612Y12476D01*
X43615Y12497D01*
X43616Y12518D01*
Y12525D01*
X43615Y12530D01*
Y12537D01*
X43614Y12543D01*
X43611Y12560D01*
X43606Y12579D01*
X43599Y12599D01*
X43588Y12619D01*
X43583Y12629D01*
X43575Y12638D01*
X43575Y12639D01*
X43574Y12640D01*
X43571Y12643D01*
X43568Y12647D01*
X43563Y12650D01*
X43558Y12655D01*
X43552Y12660D01*
X43545Y12665D01*
X43537Y12671D01*
X43527Y12677D01*
X43518Y12683D01*
X43507Y12688D01*
X43495Y12693D01*
X43482Y12697D01*
X43468Y12702D01*
X43453Y12706D01*
X43475Y12791D01*
X43476D01*
X43479Y12790D01*
D02*
G37*
G36*
X33042Y16273D02*
X33050Y16272D01*
X33061Y16271D01*
X33071Y16270D01*
X33083Y16267D01*
X33108Y16262D01*
X33136Y16253D01*
X33149Y16248D01*
X33162Y16241D01*
X33175Y16233D01*
X33188Y16225D01*
X33189Y16224D01*
X33191Y16223D01*
X33195Y16220D01*
X33199Y16215D01*
X33204Y16211D01*
X33210Y16204D01*
X33217Y16197D01*
X33224Y16190D01*
X33232Y16180D01*
X33239Y16169D01*
X33247Y16158D01*
X33255Y16146D01*
X33261Y16132D01*
X33269Y16118D01*
X33274Y16104D01*
X33280Y16087D01*
X33197Y16068D01*
Y16068D01*
X33196Y16070D01*
X33194Y16074D01*
X33192Y16079D01*
X33190Y16084D01*
X33187Y16092D01*
X33180Y16106D01*
X33171Y16123D01*
X33160Y16140D01*
X33146Y16155D01*
X33131Y16169D01*
X33129Y16171D01*
X33123Y16175D01*
X33114Y16179D01*
X33102Y16186D01*
X33086Y16191D01*
X33069Y16197D01*
X33048Y16201D01*
X33025Y16202D01*
X33017D01*
X33013Y16201D01*
X33006D01*
X32999Y16200D01*
X32981Y16197D01*
X32962Y16193D01*
X32941Y16187D01*
X32920Y16178D01*
X32901Y16166D01*
X32900D01*
X32899Y16164D01*
X32892Y16159D01*
X32884Y16152D01*
X32874Y16141D01*
X32862Y16127D01*
X32851Y16111D01*
X32841Y16092D01*
X32831Y16070D01*
Y16069D01*
X32830Y16068D01*
X32829Y16065D01*
X32829Y16060D01*
X32827Y16055D01*
X32825Y16048D01*
X32822Y16032D01*
X32818Y16014D01*
X32815Y15994D01*
X32813Y15971D01*
X32812Y15947D01*
Y15946D01*
Y15944D01*
Y15939D01*
Y15934D01*
X32813Y15927D01*
Y15919D01*
X32814Y15909D01*
X32815Y15899D01*
X32817Y15877D01*
X32822Y15853D01*
X32828Y15829D01*
X32835Y15805D01*
Y15804D01*
X32836Y15802D01*
X32838Y15799D01*
X32840Y15795D01*
X32845Y15784D01*
X32854Y15771D01*
X32864Y15756D01*
X32877Y15740D01*
X32891Y15726D01*
X32909Y15713D01*
X32910D01*
X32912Y15713D01*
X32915Y15711D01*
X32918Y15709D01*
X32923Y15707D01*
X32928Y15704D01*
X32941Y15699D01*
X32958Y15693D01*
X32976Y15688D01*
X32997Y15685D01*
X33018Y15684D01*
X33025D01*
X33030Y15685D01*
X33037D01*
X33043Y15686D01*
X33060Y15689D01*
X33079Y15694D01*
X33099Y15701D01*
X33119Y15712D01*
X33129Y15717D01*
X33138Y15725D01*
X33139Y15725D01*
X33140Y15726D01*
X33143Y15729D01*
X33147Y15732D01*
X33150Y15737D01*
X33155Y15742D01*
X33160Y15748D01*
X33165Y15755D01*
X33171Y15763D01*
X33177Y15773D01*
X33183Y15782D01*
X33188Y15793D01*
X33193Y15805D01*
X33197Y15818D01*
X33202Y15832D01*
X33206Y15847D01*
X33291Y15825D01*
Y15824D01*
X33290Y15821D01*
X33288Y15815D01*
X33285Y15808D01*
X33283Y15799D01*
X33279Y15789D01*
X33274Y15778D01*
X33269Y15766D01*
X33256Y15740D01*
X33239Y15714D01*
X33229Y15701D01*
X33219Y15688D01*
X33208Y15677D01*
X33195Y15666D01*
X33194Y15665D01*
X33192Y15664D01*
X33187Y15662D01*
X33183Y15658D01*
X33175Y15653D01*
X33168Y15649D01*
X33158Y15644D01*
X33148Y15639D01*
X33136Y15634D01*
X33123Y15629D01*
X33109Y15625D01*
X33094Y15620D01*
X33078Y15616D01*
X33062Y15615D01*
X33044Y15613D01*
X33025Y15612D01*
X33015D01*
X33008Y15613D01*
X33000D01*
X32989Y15614D01*
X32978Y15615D01*
X32965Y15617D01*
X32939Y15622D01*
X32911Y15629D01*
X32883Y15639D01*
X32870Y15646D01*
X32857Y15653D01*
X32856Y15654D01*
X32854Y15655D01*
X32851Y15658D01*
X32847Y15662D01*
X32841Y15665D01*
X32835Y15671D01*
X32828Y15677D01*
X32820Y15685D01*
X32813Y15693D01*
X32805Y15701D01*
X32788Y15723D01*
X32772Y15748D01*
X32758Y15775D01*
Y15776D01*
X32756Y15779D01*
X32756Y15784D01*
X32753Y15789D01*
X32751Y15797D01*
X32748Y15806D01*
X32744Y15816D01*
X32742Y15827D01*
X32739Y15839D01*
X32735Y15853D01*
X32731Y15882D01*
X32727Y15914D01*
X32725Y15947D01*
Y15948D01*
Y15952D01*
Y15958D01*
X32726Y15964D01*
Y15973D01*
X32727Y15983D01*
X32728Y15995D01*
X32730Y16007D01*
X32734Y16033D01*
X32741Y16063D01*
X32750Y16093D01*
X32763Y16121D01*
X32764Y16122D01*
X32765Y16125D01*
X32767Y16129D01*
X32770Y16133D01*
X32774Y16140D01*
X32779Y16147D01*
X32791Y16164D01*
X32806Y16182D01*
X32825Y16201D01*
X32846Y16219D01*
X32871Y16235D01*
X32872Y16236D01*
X32875Y16237D01*
X32878Y16239D01*
X32883Y16241D01*
X32890Y16244D01*
X32898Y16247D01*
X32907Y16251D01*
X32917Y16254D01*
X32928Y16258D01*
X32940Y16262D01*
X32966Y16267D01*
X32996Y16272D01*
X33026Y16274D01*
X33036D01*
X33042Y16273D01*
D02*
G37*
G36*
X33693Y15848D02*
X33780D01*
Y15776D01*
X33693D01*
Y15623D01*
X33614D01*
Y15776D01*
X33336D01*
Y15848D01*
X33629Y16263D01*
X33693D01*
Y15848D01*
D02*
G37*
G36*
X24877Y14482D02*
X24885Y14481D01*
X24893Y14479D01*
X24902Y14477D01*
X24913Y14475D01*
X24935Y14468D01*
X24947Y14462D01*
X24958Y14457D01*
X24970Y14449D01*
X24982Y14441D01*
X24994Y14432D01*
X25005Y14421D01*
X25006Y14420D01*
X25008Y14418D01*
X25011Y14414D01*
X25014Y14410D01*
X25019Y14404D01*
X25023Y14397D01*
X25029Y14388D01*
X25034Y14378D01*
X25039Y14368D01*
X25045Y14356D01*
X25049Y14344D01*
X25054Y14330D01*
X25058Y14315D01*
X25060Y14300D01*
X25062Y14284D01*
X25063Y14266D01*
Y14258D01*
X25062Y14252D01*
X25061Y14245D01*
X25060Y14237D01*
X25059Y14228D01*
X25057Y14217D01*
X25051Y14195D01*
X25042Y14172D01*
X25036Y14160D01*
X25030Y14149D01*
X25022Y14138D01*
X25013Y14127D01*
X25012Y14126D01*
X25011Y14124D01*
X25008Y14121D01*
X25004Y14118D01*
X24999Y14114D01*
X24993Y14109D01*
X24986Y14104D01*
X24978Y14098D01*
X24969Y14093D01*
X24960Y14087D01*
X24938Y14077D01*
X24912Y14068D01*
X24898Y14066D01*
X24883Y14064D01*
X24873Y14142D01*
X24874D01*
X24876Y14143D01*
X24879Y14144D01*
X24884Y14145D01*
X24889Y14146D01*
X24896Y14148D01*
X24910Y14153D01*
X24926Y14159D01*
X24942Y14167D01*
X24957Y14177D01*
X24970Y14188D01*
X24971Y14190D01*
X24974Y14193D01*
X24979Y14201D01*
X24984Y14210D01*
X24989Y14221D01*
X24994Y14235D01*
X24998Y14251D01*
X24999Y14267D01*
Y14273D01*
X24998Y14277D01*
X24997Y14287D01*
X24994Y14300D01*
X24989Y14314D01*
X24983Y14330D01*
X24974Y14346D01*
X24961Y14361D01*
X24959Y14363D01*
X24953Y14367D01*
X24945Y14373D01*
X24934Y14380D01*
X24920Y14387D01*
X24904Y14393D01*
X24886Y14398D01*
X24865Y14399D01*
X24864D01*
X24863D01*
X24860D01*
X24856Y14399D01*
X24846Y14398D01*
X24834Y14395D01*
X24819Y14391D01*
X24804Y14385D01*
X24790Y14375D01*
X24776Y14363D01*
X24774Y14362D01*
X24770Y14357D01*
X24765Y14350D01*
X24758Y14339D01*
X24752Y14326D01*
X24746Y14311D01*
X24742Y14293D01*
X24741Y14274D01*
Y14265D01*
X24741Y14259D01*
X24742Y14251D01*
X24744Y14241D01*
X24746Y14230D01*
X24749Y14218D01*
X24680Y14228D01*
Y14232D01*
X24680Y14236D01*
Y14248D01*
X24679Y14258D01*
X24677Y14270D01*
X24674Y14284D01*
X24669Y14300D01*
X24663Y14314D01*
X24655Y14330D01*
Y14331D01*
X24654Y14332D01*
X24650Y14337D01*
X24643Y14343D01*
X24635Y14350D01*
X24623Y14358D01*
X24609Y14364D01*
X24594Y14369D01*
X24584Y14371D01*
X24574D01*
X24573D01*
X24572D01*
X24567D01*
X24559Y14369D01*
X24549Y14367D01*
X24538Y14363D01*
X24526Y14359D01*
X24514Y14351D01*
X24503Y14341D01*
X24502Y14340D01*
X24498Y14336D01*
X24494Y14329D01*
X24488Y14321D01*
X24484Y14310D01*
X24479Y14297D01*
X24475Y14282D01*
X24474Y14265D01*
Y14258D01*
X24476Y14250D01*
X24478Y14239D01*
X24482Y14227D01*
X24486Y14215D01*
X24494Y14202D01*
X24503Y14190D01*
X24504Y14189D01*
X24508Y14185D01*
X24515Y14179D01*
X24524Y14173D01*
X24536Y14167D01*
X24551Y14160D01*
X24569Y14154D01*
X24589Y14151D01*
X24575Y14072D01*
X24574D01*
X24571Y14073D01*
X24568Y14074D01*
X24562Y14075D01*
X24556Y14077D01*
X24548Y14080D01*
X24531Y14085D01*
X24510Y14094D01*
X24490Y14105D01*
X24471Y14119D01*
X24453Y14137D01*
X24452Y14138D01*
X24451Y14140D01*
X24449Y14142D01*
X24447Y14146D01*
X24443Y14151D01*
X24439Y14157D01*
X24435Y14164D01*
X24431Y14172D01*
X24423Y14191D01*
X24416Y14212D01*
X24411Y14237D01*
X24410Y14250D01*
Y14273D01*
X24410Y14283D01*
X24412Y14295D01*
X24415Y14310D01*
X24420Y14326D01*
X24425Y14343D01*
X24433Y14360D01*
Y14361D01*
X24434Y14362D01*
X24436Y14367D01*
X24442Y14375D01*
X24448Y14385D01*
X24458Y14396D01*
X24468Y14407D01*
X24480Y14418D01*
X24494Y14427D01*
X24496Y14428D01*
X24500Y14431D01*
X24508Y14435D01*
X24519Y14439D01*
X24531Y14444D01*
X24545Y14448D01*
X24560Y14450D01*
X24576Y14451D01*
X24578D01*
X24583D01*
X24591Y14450D01*
X24601Y14448D01*
X24613Y14446D01*
X24626Y14441D01*
X24639Y14436D01*
X24652Y14428D01*
X24654Y14427D01*
X24657Y14424D01*
X24664Y14419D01*
X24671Y14412D01*
X24680Y14402D01*
X24689Y14391D01*
X24697Y14378D01*
X24705Y14363D01*
Y14363D01*
X24706Y14365D01*
X24707Y14368D01*
X24708Y14372D01*
X24712Y14382D01*
X24717Y14395D01*
X24725Y14410D01*
X24734Y14424D01*
X24746Y14438D01*
X24760Y14451D01*
X24762Y14452D01*
X24767Y14456D01*
X24777Y14461D01*
X24789Y14467D01*
X24803Y14473D01*
X24821Y14478D01*
X24841Y14482D01*
X24864Y14483D01*
X24864D01*
X24867D01*
X24872D01*
X24877Y14482D01*
D02*
G37*
G36*
X24854Y13990D02*
X24860Y13988D01*
X24867Y13985D01*
X24876Y13983D01*
X24886Y13979D01*
X24897Y13974D01*
X24909Y13969D01*
X24935Y13956D01*
X24961Y13939D01*
X24974Y13929D01*
X24986Y13919D01*
X24998Y13908D01*
X25009Y13895D01*
X25010Y13894D01*
X25011Y13892D01*
X25013Y13887D01*
X25017Y13883D01*
X25022Y13875D01*
X25026Y13868D01*
X25031Y13858D01*
X25035Y13848D01*
X25041Y13835D01*
X25046Y13823D01*
X25050Y13809D01*
X25055Y13794D01*
X25059Y13778D01*
X25060Y13762D01*
X25062Y13744D01*
X25063Y13725D01*
Y13715D01*
X25062Y13708D01*
Y13700D01*
X25061Y13689D01*
X25060Y13678D01*
X25058Y13665D01*
X25053Y13639D01*
X25046Y13611D01*
X25035Y13583D01*
X25029Y13570D01*
X25022Y13557D01*
X25021Y13556D01*
X25020Y13554D01*
X25017Y13551D01*
X25013Y13547D01*
X25010Y13541D01*
X25004Y13535D01*
X24998Y13528D01*
X24990Y13520D01*
X24982Y13513D01*
X24974Y13505D01*
X24952Y13488D01*
X24927Y13472D01*
X24900Y13458D01*
X24899D01*
X24896Y13456D01*
X24891Y13456D01*
X24886Y13453D01*
X24878Y13451D01*
X24869Y13448D01*
X24859Y13444D01*
X24848Y13442D01*
X24836Y13439D01*
X24822Y13435D01*
X24793Y13431D01*
X24761Y13427D01*
X24728Y13425D01*
X24727D01*
X24723D01*
X24717D01*
X24711Y13426D01*
X24702D01*
X24692Y13427D01*
X24680Y13428D01*
X24668Y13430D01*
X24642Y13434D01*
X24612Y13441D01*
X24582Y13450D01*
X24554Y13463D01*
X24553Y13464D01*
X24550Y13465D01*
X24546Y13467D01*
X24542Y13470D01*
X24535Y13474D01*
X24528Y13479D01*
X24511Y13491D01*
X24493Y13506D01*
X24474Y13525D01*
X24456Y13546D01*
X24440Y13571D01*
X24439Y13572D01*
X24438Y13575D01*
X24436Y13578D01*
X24434Y13583D01*
X24431Y13590D01*
X24428Y13598D01*
X24424Y13607D01*
X24421Y13617D01*
X24417Y13628D01*
X24413Y13640D01*
X24408Y13666D01*
X24403Y13696D01*
X24401Y13726D01*
Y13736D01*
X24402Y13742D01*
X24403Y13750D01*
X24404Y13761D01*
X24405Y13771D01*
X24408Y13783D01*
X24413Y13808D01*
X24422Y13835D01*
X24427Y13849D01*
X24434Y13862D01*
X24442Y13875D01*
X24450Y13888D01*
X24451Y13889D01*
X24452Y13891D01*
X24455Y13895D01*
X24459Y13899D01*
X24464Y13904D01*
X24471Y13910D01*
X24478Y13917D01*
X24485Y13924D01*
X24495Y13932D01*
X24506Y13939D01*
X24517Y13947D01*
X24529Y13955D01*
X24543Y13961D01*
X24557Y13969D01*
X24571Y13974D01*
X24588Y13980D01*
X24607Y13897D01*
X24607D01*
X24605Y13896D01*
X24601Y13894D01*
X24596Y13892D01*
X24591Y13890D01*
X24583Y13887D01*
X24569Y13880D01*
X24552Y13871D01*
X24535Y13860D01*
X24520Y13846D01*
X24506Y13831D01*
X24504Y13829D01*
X24500Y13823D01*
X24496Y13814D01*
X24489Y13802D01*
X24484Y13786D01*
X24478Y13769D01*
X24474Y13748D01*
X24473Y13725D01*
Y13717D01*
X24474Y13713D01*
Y13706D01*
X24475Y13699D01*
X24478Y13681D01*
X24482Y13662D01*
X24488Y13641D01*
X24497Y13620D01*
X24509Y13601D01*
Y13600D01*
X24511Y13599D01*
X24516Y13592D01*
X24523Y13584D01*
X24534Y13574D01*
X24548Y13562D01*
X24564Y13551D01*
X24583Y13541D01*
X24605Y13531D01*
X24606D01*
X24607Y13530D01*
X24610Y13529D01*
X24615Y13529D01*
X24620Y13527D01*
X24627Y13525D01*
X24643Y13522D01*
X24661Y13518D01*
X24681Y13515D01*
X24704Y13513D01*
X24728Y13512D01*
X24729D01*
X24731D01*
X24736D01*
X24741D01*
X24748Y13513D01*
X24756D01*
X24766Y13514D01*
X24776Y13515D01*
X24798Y13517D01*
X24822Y13522D01*
X24846Y13528D01*
X24870Y13535D01*
X24871D01*
X24873Y13536D01*
X24876Y13538D01*
X24880Y13540D01*
X24891Y13545D01*
X24904Y13554D01*
X24919Y13564D01*
X24935Y13577D01*
X24949Y13591D01*
X24962Y13609D01*
Y13610D01*
X24962Y13612D01*
X24964Y13615D01*
X24966Y13618D01*
X24968Y13623D01*
X24971Y13628D01*
X24976Y13641D01*
X24982Y13658D01*
X24986Y13676D01*
X24990Y13697D01*
X24991Y13718D01*
Y13725D01*
X24990Y13730D01*
Y13737D01*
X24989Y13743D01*
X24986Y13760D01*
X24981Y13779D01*
X24974Y13799D01*
X24963Y13819D01*
X24958Y13829D01*
X24950Y13838D01*
X24950Y13839D01*
X24949Y13840D01*
X24946Y13843D01*
X24943Y13847D01*
X24938Y13850D01*
X24933Y13855D01*
X24927Y13860D01*
X24920Y13865D01*
X24912Y13871D01*
X24902Y13877D01*
X24893Y13883D01*
X24882Y13888D01*
X24870Y13893D01*
X24857Y13897D01*
X24843Y13902D01*
X24828Y13906D01*
X24850Y13991D01*
X24851D01*
X24854Y13990D01*
D02*
G37*
G36*
X38577Y7024D02*
X38586D01*
X38596Y7023D01*
X38608Y7022D01*
X38620Y7020D01*
X38647Y7016D01*
X38676Y7009D01*
X38706Y7000D01*
X38734Y6987D01*
X38735Y6986D01*
X38738Y6985D01*
X38742Y6983D01*
X38746Y6980D01*
X38753Y6976D01*
X38760Y6971D01*
X38777Y6959D01*
X38795Y6944D01*
X38814Y6925D01*
X38832Y6904D01*
X38848Y6879D01*
X38849Y6878D01*
X38850Y6875D01*
X38852Y6872D01*
X38855Y6867D01*
X38857Y6860D01*
X38860Y6852D01*
X38864Y6843D01*
X38868Y6833D01*
X38871Y6822D01*
X38875Y6810D01*
X38881Y6784D01*
X38885Y6754D01*
X38887Y6724D01*
Y6714D01*
X38886Y6708D01*
X38885Y6700D01*
X38884Y6689D01*
X38883Y6679D01*
X38881Y6667D01*
X38875Y6642D01*
X38867Y6615D01*
X38861Y6601D01*
X38855Y6588D01*
X38846Y6575D01*
X38838Y6562D01*
X38837Y6561D01*
X38836Y6559D01*
X38833Y6555D01*
X38829Y6551D01*
X38824Y6546D01*
X38818Y6540D01*
X38810Y6533D01*
X38803Y6526D01*
X38794Y6518D01*
X38783Y6511D01*
X38771Y6503D01*
X38759Y6495D01*
X38746Y6489D01*
X38732Y6481D01*
X38717Y6476D01*
X38700Y6470D01*
X38681Y6553D01*
X38682D01*
X38684Y6554D01*
X38687Y6556D01*
X38692Y6558D01*
X38697Y6560D01*
X38705Y6563D01*
X38720Y6570D01*
X38736Y6579D01*
X38753Y6590D01*
X38769Y6604D01*
X38783Y6619D01*
X38784Y6621D01*
X38788Y6627D01*
X38793Y6636D01*
X38799Y6648D01*
X38805Y6664D01*
X38810Y6681D01*
X38814Y6702D01*
X38815Y6725D01*
Y6733D01*
X38814Y6737D01*
Y6744D01*
X38813Y6751D01*
X38810Y6769D01*
X38807Y6788D01*
X38800Y6809D01*
X38791Y6830D01*
X38779Y6849D01*
Y6850D01*
X38777Y6851D01*
X38772Y6858D01*
X38765Y6866D01*
X38754Y6876D01*
X38740Y6888D01*
X38724Y6899D01*
X38705Y6909D01*
X38684Y6919D01*
X38683D01*
X38681Y6920D01*
X38678Y6921D01*
X38673Y6921D01*
X38668Y6923D01*
X38661Y6925D01*
X38646Y6928D01*
X38627Y6932D01*
X38607Y6935D01*
X38585Y6937D01*
X38561Y6938D01*
X38560D01*
X38557D01*
X38552D01*
X38547D01*
X38540Y6937D01*
X38532D01*
X38523Y6936D01*
X38513Y6935D01*
X38490Y6933D01*
X38466Y6928D01*
X38442Y6922D01*
X38418Y6915D01*
X38417D01*
X38415Y6914D01*
X38413Y6912D01*
X38408Y6910D01*
X38397Y6905D01*
X38384Y6897D01*
X38369Y6886D01*
X38354Y6873D01*
X38340Y6859D01*
X38327Y6841D01*
Y6840D01*
X38326Y6838D01*
X38324Y6835D01*
X38322Y6832D01*
X38320Y6827D01*
X38317Y6822D01*
X38312Y6809D01*
X38306Y6792D01*
X38302Y6774D01*
X38298Y6753D01*
X38297Y6732D01*
Y6725D01*
X38298Y6720D01*
Y6713D01*
X38299Y6707D01*
X38303Y6690D01*
X38307Y6671D01*
X38315Y6651D01*
X38325Y6631D01*
X38330Y6621D01*
X38338Y6612D01*
X38339Y6611D01*
X38340Y6610D01*
X38342Y6607D01*
X38345Y6603D01*
X38350Y6600D01*
X38355Y6595D01*
X38361Y6590D01*
X38368Y6585D01*
X38377Y6579D01*
X38386Y6573D01*
X38395Y6567D01*
X38406Y6562D01*
X38418Y6557D01*
X38431Y6553D01*
X38445Y6548D01*
X38460Y6544D01*
X38439Y6459D01*
X38438D01*
X38434Y6460D01*
X38428Y6462D01*
X38421Y6465D01*
X38413Y6468D01*
X38403Y6471D01*
X38391Y6476D01*
X38379Y6481D01*
X38354Y6494D01*
X38328Y6511D01*
X38315Y6521D01*
X38302Y6531D01*
X38291Y6542D01*
X38280Y6555D01*
X38279Y6556D01*
X38277Y6558D01*
X38275Y6563D01*
X38271Y6567D01*
X38267Y6575D01*
X38262Y6582D01*
X38257Y6592D01*
X38253Y6602D01*
X38247Y6615D01*
X38243Y6627D01*
X38238Y6641D01*
X38233Y6656D01*
X38230Y6672D01*
X38228Y6688D01*
X38226Y6706D01*
X38225Y6725D01*
Y6735D01*
X38226Y6742D01*
Y6750D01*
X38227Y6761D01*
X38229Y6772D01*
X38231Y6785D01*
X38235Y6811D01*
X38243Y6839D01*
X38253Y6867D01*
X38259Y6880D01*
X38267Y6893D01*
X38268Y6894D01*
X38268Y6896D01*
X38271Y6899D01*
X38275Y6903D01*
X38279Y6909D01*
X38284Y6915D01*
X38291Y6922D01*
X38298Y6930D01*
X38306Y6937D01*
X38315Y6945D01*
X38336Y6962D01*
X38361Y6978D01*
X38389Y6992D01*
X38390D01*
X38392Y6994D01*
X38397Y6995D01*
X38403Y6997D01*
X38410Y6999D01*
X38419Y7002D01*
X38429Y7006D01*
X38440Y7008D01*
X38452Y7011D01*
X38466Y7015D01*
X38495Y7019D01*
X38527Y7023D01*
X38561Y7025D01*
X38562D01*
X38565D01*
X38571D01*
X38577Y7024D01*
D02*
G37*
G36*
X38254Y6397D02*
X38262Y6396D01*
X38271Y6394D01*
X38280Y6393D01*
X38291Y6389D01*
X38292D01*
X38292Y6388D01*
X38298Y6386D01*
X38306Y6382D01*
X38317Y6377D01*
X38330Y6370D01*
X38345Y6360D01*
X38360Y6350D01*
X38376Y6337D01*
X38377D01*
X38378Y6335D01*
X38383Y6331D01*
X38391Y6322D01*
X38403Y6310D01*
X38417Y6296D01*
X38434Y6279D01*
X38452Y6258D01*
X38472Y6235D01*
X38473Y6234D01*
X38476Y6230D01*
X38480Y6224D01*
X38486Y6218D01*
X38493Y6210D01*
X38501Y6199D01*
X38511Y6189D01*
X38521Y6177D01*
X38543Y6154D01*
X38565Y6131D01*
X38576Y6120D01*
X38587Y6110D01*
X38598Y6100D01*
X38608Y6093D01*
X38609D01*
X38610Y6091D01*
X38612Y6089D01*
X38616Y6088D01*
X38626Y6081D01*
X38638Y6074D01*
X38653Y6067D01*
X38669Y6061D01*
X38686Y6057D01*
X38703Y6055D01*
X38704D01*
X38705D01*
X38710Y6056D01*
X38720Y6057D01*
X38730Y6060D01*
X38743Y6063D01*
X38756Y6070D01*
X38769Y6078D01*
X38782Y6089D01*
X38783Y6091D01*
X38787Y6096D01*
X38792Y6102D01*
X38798Y6112D01*
X38804Y6125D01*
X38809Y6140D01*
X38813Y6158D01*
X38814Y6177D01*
Y6183D01*
X38813Y6186D01*
X38812Y6198D01*
X38809Y6210D01*
X38806Y6224D01*
X38799Y6240D01*
X38791Y6255D01*
X38780Y6269D01*
X38778Y6271D01*
X38773Y6274D01*
X38766Y6280D01*
X38755Y6285D01*
X38742Y6292D01*
X38725Y6297D01*
X38707Y6301D01*
X38685Y6303D01*
X38694Y6383D01*
X38695D01*
X38697Y6382D01*
X38702D01*
X38709Y6382D01*
X38716Y6380D01*
X38724Y6378D01*
X38734Y6375D01*
X38745Y6372D01*
X38767Y6365D01*
X38789Y6354D01*
X38800Y6347D01*
X38811Y6339D01*
X38821Y6331D01*
X38831Y6321D01*
X38832Y6320D01*
X38832Y6319D01*
X38835Y6316D01*
X38838Y6311D01*
X38842Y6306D01*
X38845Y6299D01*
X38850Y6292D01*
X38855Y6283D01*
X38859Y6272D01*
X38864Y6261D01*
X38868Y6249D01*
X38871Y6236D01*
X38874Y6222D01*
X38877Y6208D01*
X38878Y6192D01*
X38879Y6175D01*
Y6166D01*
X38878Y6160D01*
X38877Y6152D01*
X38876Y6143D01*
X38874Y6133D01*
X38872Y6123D01*
X38866Y6099D01*
X38856Y6075D01*
X38851Y6063D01*
X38844Y6051D01*
X38836Y6039D01*
X38827Y6029D01*
X38826Y6028D01*
X38825Y6026D01*
X38821Y6025D01*
X38818Y6021D01*
X38813Y6016D01*
X38807Y6012D01*
X38800Y6007D01*
X38792Y6002D01*
X38774Y5992D01*
X38752Y5983D01*
X38741Y5979D01*
X38728Y5977D01*
X38715Y5976D01*
X38701Y5975D01*
X38699D01*
X38695D01*
X38687Y5976D01*
X38677Y5977D01*
X38666Y5978D01*
X38653Y5982D01*
X38639Y5986D01*
X38625Y5991D01*
X38623Y5992D01*
X38619Y5994D01*
X38611Y5998D01*
X38601Y6003D01*
X38590Y6011D01*
X38576Y6020D01*
X38562Y6031D01*
X38547Y6044D01*
X38545Y6046D01*
X38539Y6051D01*
X38535Y6055D01*
X38530Y6060D01*
X38525Y6065D01*
X38517Y6073D01*
X38510Y6080D01*
X38501Y6089D01*
X38492Y6099D01*
X38482Y6110D01*
X38472Y6122D01*
X38460Y6135D01*
X38448Y6149D01*
X38435Y6164D01*
X38434Y6165D01*
X38432Y6167D01*
X38429Y6171D01*
X38426Y6175D01*
X38420Y6181D01*
X38415Y6187D01*
X38403Y6202D01*
X38389Y6218D01*
X38375Y6233D01*
X38363Y6246D01*
X38358Y6251D01*
X38354Y6256D01*
X38353Y6257D01*
X38350Y6259D01*
X38346Y6263D01*
X38341Y6268D01*
X38334Y6272D01*
X38328Y6278D01*
X38312Y6289D01*
Y5974D01*
X38236D01*
Y6398D01*
X38237D01*
X38241D01*
X38246D01*
X38254Y6397D01*
D02*
G37*
G36*
X37514Y21955D02*
X37014D01*
X37015Y21954D01*
X37018Y21950D01*
X37024Y21944D01*
X37030Y21935D01*
X37039Y21925D01*
X37048Y21912D01*
X37058Y21897D01*
X37068Y21880D01*
Y21879D01*
X37069Y21878D01*
X37073Y21873D01*
X37078Y21864D01*
X37083Y21853D01*
X37090Y21840D01*
X37096Y21826D01*
X37102Y21812D01*
X37108Y21798D01*
X37032D01*
Y21799D01*
X37030Y21801D01*
X37029Y21805D01*
X37027Y21809D01*
X37024Y21815D01*
X37020Y21821D01*
X37011Y21837D01*
X37001Y21855D01*
X36988Y21874D01*
X36973Y21893D01*
X36957Y21913D01*
X36956Y21914D01*
X36955Y21915D01*
X36953Y21917D01*
X36950Y21921D01*
X36941Y21929D01*
X36930Y21940D01*
X36917Y21952D01*
X36902Y21964D01*
X36887Y21974D01*
X36871Y21983D01*
Y22034D01*
X37514D01*
Y21955D01*
D02*
G37*
G36*
X37316Y21665D02*
X37322Y21663D01*
X37329Y21660D01*
X37337Y21657D01*
X37347Y21654D01*
X37359Y21649D01*
X37371Y21644D01*
X37396Y21631D01*
X37422Y21614D01*
X37435Y21604D01*
X37448Y21594D01*
X37459Y21583D01*
X37470Y21570D01*
X37471Y21569D01*
X37473Y21567D01*
X37475Y21562D01*
X37479Y21558D01*
X37483Y21550D01*
X37488Y21543D01*
X37493Y21533D01*
X37497Y21523D01*
X37503Y21510D01*
X37507Y21498D01*
X37512Y21484D01*
X37517Y21469D01*
X37520Y21453D01*
X37522Y21437D01*
X37524Y21419D01*
X37525Y21400D01*
Y21390D01*
X37524Y21383D01*
Y21375D01*
X37523Y21364D01*
X37521Y21353D01*
X37519Y21340D01*
X37515Y21314D01*
X37507Y21286D01*
X37497Y21258D01*
X37491Y21245D01*
X37483Y21232D01*
X37482Y21231D01*
X37482Y21229D01*
X37479Y21226D01*
X37475Y21222D01*
X37471Y21216D01*
X37466Y21210D01*
X37459Y21203D01*
X37452Y21195D01*
X37444Y21188D01*
X37435Y21180D01*
X37414Y21163D01*
X37389Y21147D01*
X37361Y21133D01*
X37360D01*
X37358Y21131D01*
X37353Y21131D01*
X37347Y21128D01*
X37340Y21126D01*
X37331Y21123D01*
X37321Y21119D01*
X37310Y21117D01*
X37298Y21114D01*
X37284Y21110D01*
X37255Y21106D01*
X37223Y21102D01*
X37189Y21100D01*
X37188D01*
X37185D01*
X37179D01*
X37173Y21101D01*
X37164D01*
X37154Y21102D01*
X37142Y21103D01*
X37130Y21105D01*
X37103Y21109D01*
X37074Y21116D01*
X37044Y21125D01*
X37016Y21138D01*
X37015Y21139D01*
X37012Y21140D01*
X37008Y21142D01*
X37004Y21145D01*
X36997Y21149D01*
X36990Y21154D01*
X36973Y21166D01*
X36955Y21181D01*
X36936Y21200D01*
X36918Y21221D01*
X36902Y21246D01*
X36901Y21247D01*
X36900Y21250D01*
X36898Y21253D01*
X36895Y21258D01*
X36893Y21265D01*
X36890Y21273D01*
X36886Y21282D01*
X36882Y21292D01*
X36879Y21303D01*
X36875Y21315D01*
X36869Y21341D01*
X36865Y21371D01*
X36863Y21401D01*
Y21411D01*
X36864Y21417D01*
X36865Y21425D01*
X36866Y21436D01*
X36867Y21446D01*
X36869Y21458D01*
X36875Y21483D01*
X36883Y21510D01*
X36889Y21524D01*
X36895Y21537D01*
X36904Y21550D01*
X36912Y21563D01*
X36913Y21564D01*
X36914Y21566D01*
X36917Y21570D01*
X36921Y21574D01*
X36926Y21579D01*
X36932Y21585D01*
X36940Y21592D01*
X36947Y21599D01*
X36956Y21607D01*
X36967Y21614D01*
X36979Y21622D01*
X36991Y21630D01*
X37004Y21636D01*
X37018Y21644D01*
X37033Y21649D01*
X37050Y21655D01*
X37069Y21572D01*
X37068D01*
X37066Y21571D01*
X37063Y21569D01*
X37058Y21567D01*
X37053Y21565D01*
X37045Y21562D01*
X37030Y21555D01*
X37014Y21546D01*
X36997Y21535D01*
X36981Y21521D01*
X36967Y21506D01*
X36966Y21504D01*
X36962Y21498D01*
X36957Y21489D01*
X36951Y21477D01*
X36945Y21461D01*
X36940Y21444D01*
X36936Y21423D01*
X36935Y21400D01*
Y21392D01*
X36936Y21388D01*
Y21381D01*
X36937Y21374D01*
X36940Y21356D01*
X36943Y21337D01*
X36950Y21316D01*
X36959Y21295D01*
X36971Y21276D01*
Y21275D01*
X36973Y21274D01*
X36978Y21267D01*
X36985Y21259D01*
X36996Y21249D01*
X37010Y21237D01*
X37026Y21226D01*
X37045Y21216D01*
X37066Y21206D01*
X37067D01*
X37069Y21205D01*
X37072Y21204D01*
X37077Y21204D01*
X37082Y21202D01*
X37089Y21200D01*
X37104Y21197D01*
X37123Y21193D01*
X37143Y21190D01*
X37165Y21188D01*
X37189Y21187D01*
X37190D01*
X37193D01*
X37198D01*
X37203D01*
X37210Y21188D01*
X37218D01*
X37227Y21189D01*
X37237Y21190D01*
X37260Y21192D01*
X37284Y21197D01*
X37308Y21203D01*
X37332Y21210D01*
X37333D01*
X37335Y21211D01*
X37337Y21213D01*
X37342Y21215D01*
X37353Y21220D01*
X37366Y21229D01*
X37381Y21239D01*
X37396Y21252D01*
X37410Y21266D01*
X37423Y21284D01*
Y21285D01*
X37424Y21287D01*
X37426Y21290D01*
X37428Y21293D01*
X37430Y21298D01*
X37433Y21303D01*
X37438Y21316D01*
X37444Y21333D01*
X37448Y21351D01*
X37452Y21372D01*
X37453Y21393D01*
Y21400D01*
X37452Y21405D01*
Y21412D01*
X37451Y21418D01*
X37447Y21435D01*
X37443Y21454D01*
X37435Y21474D01*
X37425Y21494D01*
X37420Y21504D01*
X37412Y21513D01*
X37411Y21514D01*
X37410Y21515D01*
X37408Y21518D01*
X37405Y21522D01*
X37400Y21525D01*
X37395Y21530D01*
X37389Y21535D01*
X37382Y21540D01*
X37373Y21546D01*
X37364Y21552D01*
X37355Y21558D01*
X37344Y21563D01*
X37332Y21568D01*
X37319Y21572D01*
X37305Y21577D01*
X37290Y21581D01*
X37311Y21666D01*
X37312D01*
X37316Y21665D01*
D02*
G37*
G36*
X29617Y14998D02*
X29624D01*
X29641Y14996D01*
X29661Y14993D01*
X29681Y14989D01*
X29703Y14983D01*
X29724Y14976D01*
X29724D01*
X29726Y14975D01*
X29729Y14973D01*
X29733Y14971D01*
X29742Y14966D01*
X29754Y14958D01*
X29768Y14949D01*
X29782Y14937D01*
X29795Y14923D01*
X29807Y14907D01*
Y14906D01*
X29808Y14905D01*
X29810Y14903D01*
X29811Y14900D01*
X29816Y14891D01*
X29822Y14879D01*
X29828Y14864D01*
X29833Y14846D01*
X29837Y14828D01*
X29839Y14807D01*
X29758Y14801D01*
Y14802D01*
Y14804D01*
X29757Y14806D01*
X29756Y14811D01*
X29753Y14821D01*
X29749Y14835D01*
X29744Y14850D01*
X29736Y14865D01*
X29725Y14879D01*
X29712Y14891D01*
X29711Y14892D01*
X29706Y14896D01*
X29697Y14902D01*
X29685Y14907D01*
X29669Y14913D01*
X29650Y14918D01*
X29627Y14922D01*
X29601Y14923D01*
X29589D01*
X29583Y14922D01*
X29576Y14921D01*
X29559Y14919D01*
X29540Y14916D01*
X29522Y14911D01*
X29504Y14904D01*
X29497Y14899D01*
X29490Y14894D01*
X29488Y14893D01*
X29484Y14890D01*
X29479Y14883D01*
X29473Y14876D01*
X29466Y14866D01*
X29461Y14855D01*
X29457Y14842D01*
X29455Y14827D01*
Y14825D01*
Y14821D01*
X29456Y14815D01*
X29458Y14807D01*
X29461Y14798D01*
X29466Y14789D01*
X29471Y14780D01*
X29479Y14770D01*
X29480Y14769D01*
X29485Y14767D01*
X29489Y14764D01*
X29492Y14762D01*
X29498Y14759D01*
X29504Y14756D01*
X29513Y14753D01*
X29522Y14749D01*
X29532Y14745D01*
X29544Y14741D01*
X29557Y14737D01*
X29572Y14732D01*
X29589Y14729D01*
X29607Y14724D01*
X29608D01*
X29612Y14723D01*
X29617Y14722D01*
X29624Y14720D01*
X29632Y14719D01*
X29642Y14716D01*
X29652Y14713D01*
X29663Y14710D01*
X29687Y14704D01*
X29711Y14697D01*
X29722Y14694D01*
X29732Y14690D01*
X29741Y14687D01*
X29748Y14683D01*
X29749D01*
X29751Y14683D01*
X29754Y14681D01*
X29758Y14679D01*
X29768Y14673D01*
X29780Y14666D01*
X29794Y14656D01*
X29808Y14645D01*
X29821Y14632D01*
X29832Y14618D01*
X29833Y14616D01*
X29836Y14611D01*
X29840Y14603D01*
X29846Y14592D01*
X29850Y14579D01*
X29855Y14563D01*
X29858Y14546D01*
X29859Y14527D01*
Y14526D01*
Y14525D01*
Y14523D01*
Y14519D01*
X29857Y14509D01*
X29855Y14496D01*
X29851Y14481D01*
X29846Y14465D01*
X29839Y14449D01*
X29829Y14431D01*
Y14430D01*
X29828Y14429D01*
X29823Y14424D01*
X29817Y14415D01*
X29808Y14406D01*
X29796Y14395D01*
X29781Y14383D01*
X29764Y14372D01*
X29745Y14362D01*
X29744D01*
X29742Y14361D01*
X29739Y14360D01*
X29736Y14358D01*
X29730Y14356D01*
X29724Y14353D01*
X29709Y14350D01*
X29691Y14345D01*
X29670Y14340D01*
X29647Y14338D01*
X29622Y14337D01*
X29607D01*
X29600Y14338D01*
X29591D01*
X29582Y14339D01*
X29571Y14340D01*
X29548Y14343D01*
X29524Y14347D01*
X29500Y14353D01*
X29477Y14362D01*
X29476D01*
X29474Y14363D01*
X29471Y14364D01*
X29467Y14366D01*
X29456Y14372D01*
X29443Y14380D01*
X29429Y14391D01*
X29413Y14404D01*
X29398Y14420D01*
X29384Y14438D01*
Y14438D01*
X29382Y14440D01*
X29381Y14443D01*
X29379Y14447D01*
X29377Y14451D01*
X29374Y14457D01*
X29368Y14471D01*
X29361Y14488D01*
X29356Y14508D01*
X29352Y14530D01*
X29350Y14553D01*
X29430Y14561D01*
Y14560D01*
Y14559D01*
X29430Y14556D01*
Y14552D01*
X29432Y14544D01*
X29435Y14532D01*
X29439Y14520D01*
X29442Y14506D01*
X29449Y14493D01*
X29455Y14481D01*
X29456Y14480D01*
X29459Y14476D01*
X29464Y14470D01*
X29471Y14463D01*
X29480Y14455D01*
X29491Y14447D01*
X29504Y14438D01*
X29519Y14431D01*
X29520D01*
X29521Y14430D01*
X29524Y14429D01*
X29527Y14428D01*
X29536Y14426D01*
X29548Y14422D01*
X29563Y14418D01*
X29579Y14415D01*
X29598Y14413D01*
X29618Y14413D01*
X29626D01*
X29636Y14413D01*
X29647Y14414D01*
X29660Y14416D01*
X29675Y14418D01*
X29689Y14422D01*
X29703Y14426D01*
X29705Y14427D01*
X29710Y14429D01*
X29716Y14433D01*
X29724Y14437D01*
X29733Y14443D01*
X29742Y14450D01*
X29751Y14457D01*
X29759Y14466D01*
X29760Y14467D01*
X29761Y14471D01*
X29764Y14475D01*
X29768Y14483D01*
X29772Y14490D01*
X29774Y14499D01*
X29776Y14510D01*
X29777Y14521D01*
Y14522D01*
Y14526D01*
X29776Y14532D01*
X29775Y14539D01*
X29773Y14547D01*
X29770Y14556D01*
X29765Y14565D01*
X29759Y14573D01*
X29758Y14574D01*
X29755Y14577D01*
X29751Y14581D01*
X29745Y14586D01*
X29737Y14592D01*
X29727Y14598D01*
X29715Y14605D01*
X29701Y14610D01*
X29700Y14611D01*
X29696Y14612D01*
X29688Y14615D01*
X29684Y14616D01*
X29677Y14618D01*
X29671Y14621D01*
X29663Y14622D01*
X29653Y14625D01*
X29642Y14628D01*
X29631Y14631D01*
X29618Y14634D01*
X29603Y14638D01*
X29588Y14642D01*
X29587D01*
X29584Y14643D01*
X29579Y14644D01*
X29574Y14646D01*
X29566Y14647D01*
X29558Y14649D01*
X29540Y14655D01*
X29519Y14661D01*
X29498Y14668D01*
X29479Y14674D01*
X29471Y14678D01*
X29464Y14682D01*
X29463D01*
X29462Y14683D01*
X29456Y14686D01*
X29448Y14691D01*
X29439Y14698D01*
X29428Y14707D01*
X29417Y14717D01*
X29405Y14729D01*
X29396Y14742D01*
X29395Y14744D01*
X29393Y14748D01*
X29389Y14756D01*
X29385Y14765D01*
X29381Y14777D01*
X29378Y14791D01*
X29375Y14806D01*
X29374Y14821D01*
Y14822D01*
Y14823D01*
Y14826D01*
Y14830D01*
X29376Y14839D01*
X29378Y14851D01*
X29381Y14865D01*
X29385Y14880D01*
X29392Y14896D01*
X29401Y14912D01*
Y14913D01*
X29402Y14914D01*
X29406Y14919D01*
X29413Y14927D01*
X29421Y14936D01*
X29432Y14946D01*
X29446Y14957D01*
X29463Y14967D01*
X29481Y14977D01*
X29482D01*
X29484Y14977D01*
X29487Y14978D01*
X29491Y14980D01*
X29495Y14982D01*
X29502Y14984D01*
X29515Y14988D01*
X29533Y14991D01*
X29553Y14995D01*
X29575Y14998D01*
X29599Y14999D01*
X29611D01*
X29617Y14998D01*
D02*
G37*
G36*
X30239Y14348D02*
X30160D01*
Y14848D01*
X30159Y14847D01*
X30154Y14843D01*
X30149Y14838D01*
X30140Y14831D01*
X30129Y14823D01*
X30116Y14814D01*
X30102Y14804D01*
X30085Y14793D01*
X30084D01*
X30083Y14793D01*
X30078Y14789D01*
X30068Y14784D01*
X30057Y14779D01*
X30044Y14772D01*
X30030Y14766D01*
X30017Y14759D01*
X30003Y14754D01*
Y14830D01*
X30004D01*
X30006Y14831D01*
X30009Y14832D01*
X30014Y14835D01*
X30019Y14838D01*
X30026Y14842D01*
X30042Y14851D01*
X30060Y14861D01*
X30079Y14874D01*
X30098Y14889D01*
X30117Y14904D01*
X30118Y14905D01*
X30119Y14906D01*
X30122Y14909D01*
X30126Y14912D01*
X30134Y14921D01*
X30145Y14932D01*
X30156Y14945D01*
X30168Y14960D01*
X30178Y14975D01*
X30188Y14990D01*
X30239D01*
Y14348D01*
D02*
G37*
%LPC*%
G36*
X33614Y16135D02*
X33413Y15848D01*
X33614D01*
Y16135D01*
D02*
G37*
%LPD*%
D12*
X43125Y11489D02*
X43875D01*
Y12961D01*
X43125D02*
X43875D01*
X43125Y11489D02*
Y12961D01*
X31989Y15425D02*
Y16175D01*
Y15425D02*
X33461D01*
Y16175D01*
X31989D02*
X33461D01*
X24500Y12689D02*
X25250D01*
Y14161D01*
X24500D02*
X25250D01*
X24500Y12689D02*
Y14161D01*
X39254Y5096D02*
Y8954D01*
X37196Y5096D02*
X39254D01*
X37196D02*
Y8954D01*
X39254D01*
X36950Y19971D02*
X38100D01*
Y22229D01*
X36950D02*
X38100D01*
X36950Y19971D02*
Y22229D01*
X27700Y13200D02*
Y15850D01*
Y13200D02*
X31000D01*
Y15850D01*
X27700D02*
X31000D01*
M02*
