G04*
G04 #@! TF.GenerationSoftware,Altium Limited,Altium Designer,23.8.1 (32)*
G04*
G04 Layer_Physical_Order=1*
G04 Layer_Color=255*
%FSLAX43Y43*%
%MOMM*%
G71*
G04*
G04 #@! TF.SameCoordinates,4157314E-2F8B-4695-BFB2-F8FC6B21436D*
G04*
G04*
G04 #@! TF.FilePolarity,Positive*
G04*
G01*
G75*
%ADD15R,0.472X0.515*%
%ADD16R,0.515X0.472*%
%ADD17R,0.500X0.850*%
%ADD18R,0.900X0.700*%
%ADD19R,0.650X1.528*%
%ADD20R,0.900X0.800*%
%ADD21R,1.100X1.100*%
%ADD22R,0.850X0.800*%
%ADD23R,0.700X0.900*%
%ADD30R,0.400X0.300*%
%ADD37C,0.500*%
%ADD38C,0.400*%
%ADD39C,0.300*%
%ADD40C,0.381*%
%ADD41R,1.350X1.350*%
%ADD42C,1.350*%
%ADD43C,2.000*%
%ADD44R,1.250X1.250*%
%ADD45C,1.250*%
%ADD46R,1.250X1.250*%
%ADD47C,0.700*%
D15*
X43500Y12604D02*
D03*
Y11846D02*
D03*
X24875Y13804D02*
D03*
Y13046D02*
D03*
D16*
X33104Y15800D02*
D03*
X32346D02*
D03*
D17*
X66650Y5700D02*
D03*
X66000Y7650D02*
D03*
X67300D02*
D03*
D18*
X61700Y18200D02*
D03*
Y16800D02*
D03*
X59700Y18200D02*
D03*
Y16800D02*
D03*
X61725Y10200D02*
D03*
Y11600D02*
D03*
X59650Y10200D02*
D03*
Y11600D02*
D03*
X48875Y8800D02*
D03*
Y10200D02*
D03*
X45000Y10450D02*
D03*
Y11850D02*
D03*
X40225Y7825D02*
D03*
Y6425D02*
D03*
X41675Y7875D02*
D03*
Y6475D02*
D03*
X53875Y22000D02*
D03*
Y23400D02*
D03*
X42030Y21225D02*
D03*
Y19825D02*
D03*
X17325Y13875D02*
D03*
Y15275D02*
D03*
X23155Y21225D02*
D03*
Y19825D02*
D03*
X48875Y16800D02*
D03*
Y18200D02*
D03*
X20350Y19825D02*
D03*
Y21225D02*
D03*
X38760Y24125D02*
D03*
Y25525D02*
D03*
X20615Y5225D02*
D03*
Y3825D02*
D03*
X40760Y25525D02*
D03*
Y24125D02*
D03*
X19885Y23825D02*
D03*
Y25225D02*
D03*
X21885Y25225D02*
D03*
Y23825D02*
D03*
X22615Y5225D02*
D03*
Y3825D02*
D03*
D19*
X42030Y17336D02*
D03*
X40760D02*
D03*
X39490D02*
D03*
X38220D02*
D03*
Y11914D02*
D03*
X39490D02*
D03*
X40760D02*
D03*
X42030D02*
D03*
X23155Y17336D02*
D03*
X21885D02*
D03*
X20615D02*
D03*
X19345D02*
D03*
Y11914D02*
D03*
X20615D02*
D03*
X21885D02*
D03*
X23155D02*
D03*
D20*
X52875Y11150D02*
D03*
Y9250D02*
D03*
X54875Y10200D02*
D03*
X52875Y19150D02*
D03*
Y17250D02*
D03*
X54875Y18200D02*
D03*
D21*
X35775Y9975D02*
D03*
X33975D02*
D03*
D22*
X38225Y7651D02*
D03*
Y6399D02*
D03*
X37525Y21726D02*
D03*
Y20474D02*
D03*
D23*
X55275Y5550D02*
D03*
X53875D02*
D03*
X23300Y9175D02*
D03*
X21900D02*
D03*
X32650Y13875D02*
D03*
X34050D02*
D03*
D30*
X30350Y15175D02*
D03*
Y13875D02*
D03*
X28350D02*
D03*
Y14525D02*
D03*
Y15175D02*
D03*
D37*
X70373Y6798D02*
Y13500D01*
X24875Y12270D02*
Y13046D01*
X23184Y11885D02*
X24500D01*
X23155Y11914D02*
X23184Y11885D01*
X24500Y11895D02*
X24875Y12270D01*
X24500Y11885D02*
Y11895D01*
X69275Y5700D02*
X70373Y6798D01*
X66650Y5700D02*
X69275D01*
X23300Y9175D02*
X24525D01*
D38*
X11250Y21225D02*
X20350D01*
X10575Y20550D02*
X11250Y21225D01*
X7627Y20550D02*
X10575D01*
X15900Y18550D02*
X17325Y17125D01*
X7627Y18550D02*
X15900D01*
X24875Y13804D02*
Y14790D01*
X33139Y15800D02*
X34125D01*
X31375Y15800D02*
X32346D01*
X19875Y25375D02*
Y26475D01*
X43500Y12639D02*
Y13625D01*
X42094Y11850D02*
X44965D01*
X45000Y11885D01*
X42030Y11914D02*
X42094Y11850D01*
X51600Y9250D02*
X52875D01*
X47600Y10200D02*
X48875D01*
X51600Y17250D02*
X52875D01*
X64425Y7650D02*
X66000D01*
X20615Y6925D02*
Y11885D01*
Y6925D02*
X22000D01*
X22615Y5325D02*
Y6310D01*
X20615Y5225D02*
Y6925D01*
X22000D02*
X22615Y6310D01*
X21885Y11885D02*
X21892Y11877D01*
Y9182D02*
X21900Y9175D01*
X19345Y11425D02*
Y11885D01*
X17325Y12675D02*
Y13875D01*
X18115Y11885D02*
X19345D01*
X17325Y12675D02*
X18115Y11885D01*
X32650Y13875D02*
X32650Y13875D01*
X27950Y13875D02*
X28250D01*
X27325Y13250D02*
X27950Y13875D01*
X20600Y2475D02*
Y3810D01*
X22615Y2475D02*
Y3725D01*
X61700Y16800D02*
X63075D01*
X61725Y11600D02*
X63100D01*
X42030Y21225D02*
Y22575D01*
X48875Y18200D02*
Y19475D01*
X45000Y11885D02*
Y13200D01*
X40225Y5150D02*
Y6425D01*
X41675Y5150D02*
Y6475D01*
X38225Y5150D02*
X38225Y5150D01*
Y6199D01*
X30750Y15175D02*
X31375Y15800D01*
X30450Y15175D02*
X30750D01*
X19345Y17365D02*
Y19020D01*
X18850Y19515D02*
X19345Y19020D01*
X17325Y15275D02*
Y17125D01*
X38760Y25525D02*
Y26975D01*
X38760Y26975D02*
X38760Y26975D01*
X40760Y25525D02*
Y26975D01*
X37525Y21726D02*
Y23075D01*
X38760Y25525D02*
X38760Y25525D01*
X37525Y23075D02*
X37525Y23075D01*
X23155Y17365D02*
Y19825D01*
Y17365D02*
X23155Y17365D01*
X23155Y19825D02*
X23155Y19825D01*
X23150Y21230D02*
Y22475D01*
X38220Y17365D02*
X38220Y17365D01*
X36900Y17365D02*
X38220D01*
X19885Y23090D02*
Y23625D01*
Y23090D02*
X20775Y22200D01*
X20615Y17365D02*
Y18760D01*
X21885Y23825D02*
X21885Y23825D01*
X20350Y19025D02*
X20615Y18760D01*
X20775Y22200D02*
X21885D01*
X20350Y19025D02*
Y19825D01*
X21885Y17365D02*
Y22200D01*
Y23825D01*
Y17365D02*
X21885Y17365D01*
X21875Y25235D02*
Y26475D01*
D39*
X45000Y10450D02*
X46375D01*
X47400Y11475D02*
Y25091D01*
X46375Y10450D02*
X47400Y11475D01*
X47576Y25267D02*
X53308D01*
X47400Y25091D02*
X47576Y25267D01*
X35425Y14275D02*
Y17250D01*
X34500Y18175D02*
X35425Y17250D01*
X29075Y18175D02*
X34500D01*
X34050Y13875D02*
X35025D01*
X35425Y14275D01*
X67300Y6925D02*
Y7650D01*
X67100Y6725D02*
X67300Y6925D01*
X60175Y6725D02*
X67100D01*
X53875Y11175D02*
Y12950D01*
X52875Y11150D02*
X53850D01*
X53875Y11175D01*
Y7326D02*
Y11175D01*
Y19125D02*
Y22000D01*
Y15326D02*
Y19125D01*
X52875Y19150D02*
X53850D01*
X53875Y19125D01*
X59700Y18200D02*
X61700D01*
X29600Y5175D02*
X30665Y6240D01*
X21892Y10390D02*
Y11877D01*
Y9182D02*
Y10390D01*
X25160D01*
X26125Y11356D01*
X30665Y7715D02*
Y9265D01*
Y6240D02*
Y7715D01*
X28125Y5175D02*
X29600D01*
X26125Y11356D02*
Y13625D01*
X30450Y13875D02*
X32650D01*
X41675Y7875D02*
X41675Y7875D01*
X35775Y9975D02*
X38177D01*
X30665Y9265D02*
X31375Y9975D01*
X33975D01*
X26125Y13625D02*
X27025Y14525D01*
X45950Y26375D02*
X62528D01*
X60150Y8625D02*
X62850D01*
X56085Y2635D02*
X60175Y6725D01*
X30665Y2635D02*
X56085D01*
X63075Y23075D02*
X64700Y21450D01*
X64100Y14875D02*
X64700Y15475D01*
Y21450D01*
X61775Y14875D02*
X64100D01*
X62528Y26375D02*
X66125Y22778D01*
X62850Y8625D02*
X66125Y11900D01*
Y22778D01*
X57500Y23075D02*
X63075D01*
X59700Y18200D02*
X59700Y18200D01*
X55360Y18200D02*
X59700D01*
X48975Y8800D02*
X50625Y7150D01*
X53699D01*
X42030Y17365D02*
X44015D01*
X44600Y17950D01*
Y25025D02*
X45950Y26375D01*
X44600Y17950D02*
Y25025D01*
X53875Y22000D02*
X53875Y22000D01*
X59650Y10200D02*
X61725D01*
X59650Y10200D02*
X59650Y10200D01*
X59650Y12750D02*
X61775Y14875D01*
X58400Y13750D02*
X59700Y15050D01*
Y16800D01*
X50625Y15150D02*
X53699D01*
X48875Y16800D02*
X48975D01*
X50625Y15150D01*
X53699D02*
X53875Y15326D01*
X53308Y25267D02*
X53875Y24700D01*
Y23400D02*
Y24700D01*
X39490Y9910D02*
Y11885D01*
X40760Y10690D02*
Y11885D01*
X48875Y8800D02*
X48975D01*
X41000Y10450D02*
X44525D01*
X40760Y10690D02*
X41000Y10450D01*
X40225Y9730D02*
X40770D01*
X39670D02*
X40225D01*
X40770D02*
X41675Y8825D01*
X39490Y9910D02*
X39670Y9730D01*
X38220Y10018D02*
Y11885D01*
X42030Y17365D02*
X42030Y17365D01*
X42030Y17365D02*
Y19825D01*
X53699Y7150D02*
X53875Y7326D01*
X53875Y7326D01*
Y5550D02*
Y7326D01*
X55275Y5550D02*
X55374Y5649D01*
X57174D01*
X60150Y8625D01*
X40225Y7825D02*
Y9730D01*
X41675Y7875D02*
Y8825D01*
X38220Y7600D02*
Y10018D01*
X59650Y11600D02*
Y12750D01*
X53875Y19450D02*
X57500Y23075D01*
X55360Y10200D02*
X59650D01*
X53875Y12950D02*
X54675Y13750D01*
X58400D01*
X27025Y14525D02*
X28250D01*
X26180Y15870D02*
X26875Y15175D01*
X23155Y17365D02*
X25660D01*
X26180Y15870D02*
Y16845D01*
X26875Y15175D02*
X28250D01*
X25660Y17365D02*
X26180Y16845D01*
X31765Y23210D02*
X33240D01*
X30700Y24275D02*
Y25750D01*
Y24275D02*
X31765Y23210D01*
X33240D02*
X34790D01*
X35475Y22525D01*
X28160Y19090D02*
Y23210D01*
Y19090D02*
X29075Y18175D01*
X40760Y22200D02*
Y24125D01*
X38760Y23090D02*
Y24125D01*
Y23090D02*
X39650Y22200D01*
X40760D01*
Y17365D02*
X40760Y17365D01*
X37525Y19100D02*
X38900D01*
X37525D02*
Y20474D01*
X36000Y19100D02*
X37525D01*
X40760Y17365D02*
Y22200D01*
X38900Y19100D02*
X39490Y18510D01*
Y17365D02*
Y18510D01*
X35475Y19625D02*
X36000Y19100D01*
X35475Y19625D02*
Y22525D01*
D40*
X52875Y9250D02*
X52875Y9250D01*
X48875Y10200D02*
X48875Y10200D01*
X52875Y17250D02*
X52875Y17250D01*
X61700Y16800D02*
X61713Y16788D01*
Y11613D02*
X61725Y11600D01*
X48875Y18200D02*
X48875Y18200D01*
D41*
X7627Y20550D02*
D03*
Y10550D02*
D03*
X70373Y13500D02*
D03*
D42*
X7627Y18550D02*
D03*
Y8550D02*
D03*
X70373Y15500D02*
D03*
D43*
X3000Y3050D02*
D03*
X3050Y26050D02*
D03*
X74050Y3050D02*
D03*
Y26050D02*
D03*
D44*
X28160Y23210D02*
D03*
D45*
X30700Y25750D02*
D03*
X33240Y23210D02*
D03*
X28125Y5175D02*
D03*
X30665Y7715D02*
D03*
D46*
Y2635D02*
D03*
D47*
X24875Y14790D02*
D03*
X34125Y15800D02*
D03*
X43500Y13625D02*
D03*
X51600Y9250D02*
D03*
X47600Y10200D02*
D03*
X51600Y17250D02*
D03*
X64425Y7650D02*
D03*
X63100Y11600D02*
D03*
X63075Y16800D02*
D03*
X40760Y26975D02*
D03*
X20600Y2475D02*
D03*
X24500Y11885D02*
D03*
X21875Y26475D02*
D03*
X23150Y22475D02*
D03*
X22615Y2475D02*
D03*
X24525Y9175D02*
D03*
X27325Y13250D02*
D03*
X48875Y19475D02*
D03*
X45000Y13200D02*
D03*
X41675Y5150D02*
D03*
X36900Y17365D02*
D03*
X37525Y23075D02*
D03*
X40225Y5150D02*
D03*
X42030Y22575D02*
D03*
X31375Y15800D02*
D03*
X38760Y26975D02*
D03*
X19875Y26475D02*
D03*
X38225Y5150D02*
D03*
X18850Y19515D02*
D03*
M02*
