G04*
G04 #@! TF.GenerationSoftware,Altium Limited,Altium Designer,23.8.1 (32)*
G04*
G04 Layer_Physical_Order=3*
G04 Layer_Color=16440176*
%FSLAX43Y43*%
%MOMM*%
G71*
G04*
G04 #@! TF.SameCoordinates,4157314E-2F8B-4695-BFB2-F8FC6B21436D*
G04*
G04*
G04 #@! TF.FilePolarity,Positive*
G04*
G01*
G75*
%ADD42C,1.350*%
%ADD43C,2.000*%
%ADD44R,1.250X1.250*%
%ADD45C,1.250*%
%ADD46R,1.250X1.250*%
%ADD47C,0.700*%
G36*
X73800Y17925D02*
X73800Y9750D01*
X64750Y700D01*
X19775D01*
X15975Y4500D01*
X7625D01*
X5050Y7075D01*
Y22075D01*
X7825Y24850D01*
X16175D01*
X19800Y28475D01*
X63250D01*
X73800Y17925D01*
D02*
G37*
%LPC*%
G36*
X40887Y27576D02*
Y27102D01*
X41361D01*
X41272Y27317D01*
X41102Y27487D01*
X40887Y27576D01*
D02*
G37*
G36*
X40633D02*
X40418Y27487D01*
X40248Y27317D01*
X40159Y27102D01*
X40633D01*
Y27576D01*
D02*
G37*
G36*
X22002Y27076D02*
Y26602D01*
X22476D01*
X22387Y26817D01*
X22217Y26987D01*
X22002Y27076D01*
D02*
G37*
G36*
X21748D02*
X21533Y26987D01*
X21363Y26817D01*
X21274Y26602D01*
X21748D01*
Y27076D01*
D02*
G37*
G36*
X41361Y26848D02*
X40887D01*
Y26374D01*
X41102Y26463D01*
X41272Y26633D01*
X41361Y26848D01*
D02*
G37*
G36*
X40633D02*
X40159D01*
X40248Y26633D01*
X40418Y26463D01*
X40633Y26374D01*
Y26848D01*
D02*
G37*
G36*
X38880Y27579D02*
X38640D01*
X38418Y27487D01*
X38248Y27317D01*
X38156Y27095D01*
Y26855D01*
X38248Y26633D01*
X38418Y26463D01*
X38640Y26371D01*
X38880D01*
X39102Y26463D01*
X39272Y26633D01*
X39364Y26855D01*
Y27095D01*
X39272Y27317D01*
X39102Y27487D01*
X38880Y27579D01*
D02*
G37*
G36*
X22476Y26348D02*
X22002D01*
Y25874D01*
X22217Y25963D01*
X22387Y26133D01*
X22476Y26348D01*
D02*
G37*
G36*
X21748D02*
X21274D01*
X21363Y26133D01*
X21533Y25963D01*
X21748Y25874D01*
Y26348D01*
D02*
G37*
G36*
X19995Y27079D02*
X19755D01*
X19533Y26987D01*
X19363Y26817D01*
X19271Y26595D01*
Y26355D01*
X19363Y26133D01*
X19533Y25963D01*
X19755Y25871D01*
X19995D01*
X20217Y25963D01*
X20387Y26133D01*
X20479Y26355D01*
Y26595D01*
X20387Y26817D01*
X20217Y26987D01*
X19995Y27079D01*
D02*
G37*
G36*
X30816Y26629D02*
X30584D01*
X30361Y26569D01*
X30160Y26453D01*
X29997Y26290D01*
X29881Y26089D01*
X29821Y25866D01*
Y25634D01*
X29881Y25411D01*
X29997Y25210D01*
X30160Y25047D01*
X30361Y24931D01*
X30584Y24871D01*
X30816D01*
X31039Y24931D01*
X31240Y25047D01*
X31403Y25210D01*
X31519Y25411D01*
X31579Y25634D01*
Y25866D01*
X31519Y26089D01*
X31403Y26290D01*
X31240Y26453D01*
X31039Y26569D01*
X30816Y26629D01*
D02*
G37*
G36*
X42157Y23176D02*
Y22702D01*
X42631D01*
X42542Y22917D01*
X42372Y23087D01*
X42157Y23176D01*
D02*
G37*
G36*
X41903D02*
X41688Y23087D01*
X41518Y22917D01*
X41429Y22702D01*
X41903D01*
Y23176D01*
D02*
G37*
G36*
X23277Y23076D02*
Y22602D01*
X23751D01*
X23662Y22817D01*
X23492Y22987D01*
X23277Y23076D01*
D02*
G37*
G36*
X23023D02*
X22808Y22987D01*
X22638Y22817D01*
X22549Y22602D01*
X23023D01*
Y23076D01*
D02*
G37*
G36*
X37645Y23679D02*
X37405D01*
X37183Y23587D01*
X37013Y23417D01*
X36921Y23195D01*
Y22955D01*
X37013Y22733D01*
X37183Y22563D01*
X37405Y22471D01*
X37645D01*
X37867Y22563D01*
X38037Y22733D01*
X38129Y22955D01*
Y23195D01*
X38037Y23417D01*
X37867Y23587D01*
X37645Y23679D01*
D02*
G37*
G36*
X33356Y24089D02*
X33124D01*
X32901Y24029D01*
X32700Y23913D01*
X32537Y23750D01*
X32421Y23549D01*
X32361Y23326D01*
Y23094D01*
X32421Y22871D01*
X32537Y22670D01*
X32700Y22507D01*
X32901Y22391D01*
X33124Y22331D01*
X33356D01*
X33579Y22391D01*
X33780Y22507D01*
X33943Y22670D01*
X34059Y22871D01*
X34119Y23094D01*
Y23326D01*
X34059Y23549D01*
X33943Y23750D01*
X33780Y23913D01*
X33579Y24029D01*
X33356Y24089D01*
D02*
G37*
G36*
X29039D02*
X27281D01*
Y22331D01*
X29039D01*
Y24089D01*
D02*
G37*
G36*
X42631Y22448D02*
X42157D01*
Y21974D01*
X42372Y22063D01*
X42542Y22233D01*
X42631Y22448D01*
D02*
G37*
G36*
X41903D02*
X41429D01*
X41518Y22233D01*
X41688Y22063D01*
X41903Y21974D01*
Y22448D01*
D02*
G37*
G36*
X23751Y22348D02*
X23277D01*
Y21874D01*
X23492Y21963D01*
X23662Y22133D01*
X23751Y22348D01*
D02*
G37*
G36*
X23023D02*
X22549D01*
X22638Y22133D01*
X22808Y21963D01*
X23023Y21874D01*
Y22348D01*
D02*
G37*
G36*
X7749Y21479D02*
X7505D01*
X7268Y21416D01*
X7057Y21293D01*
X6884Y21120D01*
X6761Y20909D01*
X6698Y20672D01*
Y20428D01*
X6761Y20191D01*
X6884Y19980D01*
X7057Y19807D01*
X7268Y19684D01*
X7505Y19621D01*
X7749D01*
X7986Y19684D01*
X8197Y19807D01*
X8370Y19980D01*
X8493Y20191D01*
X8556Y20428D01*
Y20672D01*
X8493Y20909D01*
X8370Y21120D01*
X8197Y21293D01*
X7986Y21416D01*
X7749Y21479D01*
D02*
G37*
G36*
X18970Y20119D02*
X18730D01*
X18508Y20027D01*
X18338Y19857D01*
X18246Y19635D01*
Y19395D01*
X18338Y19173D01*
X18508Y19003D01*
X18730Y18911D01*
X18970D01*
X19192Y19003D01*
X19362Y19173D01*
X19454Y19395D01*
Y19635D01*
X19362Y19857D01*
X19192Y20027D01*
X18970Y20119D01*
D02*
G37*
G36*
X48995Y20079D02*
X48755D01*
X48533Y19987D01*
X48363Y19817D01*
X48271Y19595D01*
Y19355D01*
X48363Y19133D01*
X48533Y18963D01*
X48755Y18871D01*
X48995D01*
X49217Y18963D01*
X49387Y19133D01*
X49479Y19355D01*
Y19595D01*
X49387Y19817D01*
X49217Y19987D01*
X48995Y20079D01*
D02*
G37*
G36*
X7749Y19479D02*
X7505D01*
X7268Y19416D01*
X7057Y19293D01*
X6884Y19120D01*
X6761Y18909D01*
X6698Y18672D01*
Y18428D01*
X6761Y18191D01*
X6884Y17980D01*
X7057Y17807D01*
X7268Y17684D01*
X7505Y17621D01*
X7749D01*
X7986Y17684D01*
X8197Y17807D01*
X8370Y17980D01*
X8493Y18191D01*
X8556Y18428D01*
Y18672D01*
X8493Y18909D01*
X8370Y19120D01*
X8197Y19293D01*
X7986Y19416D01*
X7749Y19479D01*
D02*
G37*
G36*
X63202Y17401D02*
Y16927D01*
X63676D01*
X63587Y17142D01*
X63417Y17312D01*
X63202Y17401D01*
D02*
G37*
G36*
X62948D02*
X62733Y17312D01*
X62563Y17142D01*
X62474Y16927D01*
X62948D01*
Y17401D01*
D02*
G37*
G36*
X37020Y17969D02*
X36780D01*
X36558Y17877D01*
X36388Y17707D01*
X36296Y17485D01*
Y17245D01*
X36388Y17023D01*
X36558Y16853D01*
X36780Y16761D01*
X37020D01*
X37242Y16853D01*
X37412Y17023D01*
X37504Y17245D01*
Y17485D01*
X37412Y17707D01*
X37242Y17877D01*
X37020Y17969D01*
D02*
G37*
G36*
X51720Y17854D02*
X51480D01*
X51258Y17762D01*
X51088Y17592D01*
X50996Y17370D01*
Y17130D01*
X51088Y16908D01*
X51258Y16738D01*
X51480Y16646D01*
X51720D01*
X51942Y16738D01*
X52112Y16908D01*
X52204Y17130D01*
Y17370D01*
X52112Y17592D01*
X51942Y17762D01*
X51720Y17854D01*
D02*
G37*
G36*
X63676Y16673D02*
X63202D01*
Y16199D01*
X63417Y16288D01*
X63587Y16458D01*
X63676Y16673D01*
D02*
G37*
G36*
X62948D02*
X62474D01*
X62563Y16458D01*
X62733Y16288D01*
X62948Y16199D01*
Y16673D01*
D02*
G37*
G36*
X31502Y16401D02*
Y15927D01*
X31976D01*
X31887Y16142D01*
X31717Y16312D01*
X31502Y16401D01*
D02*
G37*
G36*
X31248D02*
X31033Y16312D01*
X30863Y16142D01*
X30774Y15927D01*
X31248D01*
Y16401D01*
D02*
G37*
G36*
X31976Y15673D02*
X31502D01*
Y15199D01*
X31717Y15288D01*
X31887Y15458D01*
X31976Y15673D01*
D02*
G37*
G36*
X31248D02*
X30774D01*
X30863Y15458D01*
X31033Y15288D01*
X31248Y15199D01*
Y15673D01*
D02*
G37*
G36*
X34245Y16404D02*
X34005D01*
X33783Y16312D01*
X33613Y16142D01*
X33521Y15920D01*
Y15680D01*
X33613Y15458D01*
X33783Y15288D01*
X34005Y15196D01*
X34245D01*
X34467Y15288D01*
X34637Y15458D01*
X34729Y15680D01*
Y15920D01*
X34637Y16142D01*
X34467Y16312D01*
X34245Y16404D01*
D02*
G37*
G36*
X70495Y16429D02*
X70251D01*
X70014Y16366D01*
X69803Y16243D01*
X69630Y16070D01*
X69507Y15859D01*
X69444Y15622D01*
Y15378D01*
X69507Y15141D01*
X69630Y14930D01*
X69803Y14757D01*
X70014Y14634D01*
X70251Y14571D01*
X70495D01*
X70732Y14634D01*
X70943Y14757D01*
X71116Y14930D01*
X71239Y15141D01*
X71302Y15378D01*
Y15622D01*
X71239Y15859D01*
X71116Y16070D01*
X70943Y16243D01*
X70732Y16366D01*
X70495Y16429D01*
D02*
G37*
G36*
X24995Y15394D02*
X24755D01*
X24533Y15302D01*
X24363Y15132D01*
X24271Y14910D01*
Y14670D01*
X24363Y14448D01*
X24533Y14278D01*
X24755Y14186D01*
X24995D01*
X25217Y14278D01*
X25387Y14448D01*
X25479Y14670D01*
Y14910D01*
X25387Y15132D01*
X25217Y15302D01*
X24995Y15394D01*
D02*
G37*
G36*
X45127Y13801D02*
Y13327D01*
X45601D01*
X45512Y13542D01*
X45342Y13712D01*
X45127Y13801D01*
D02*
G37*
G36*
X44873D02*
X44658Y13712D01*
X44488Y13542D01*
X44399Y13327D01*
X44873D01*
Y13801D01*
D02*
G37*
G36*
X43620Y14229D02*
X43380D01*
X43158Y14137D01*
X42988Y13967D01*
X42896Y13745D01*
Y13505D01*
X42988Y13283D01*
X43158Y13113D01*
X43380Y13021D01*
X43620D01*
X43842Y13113D01*
X44012Y13283D01*
X44104Y13505D01*
Y13745D01*
X44012Y13967D01*
X43842Y14137D01*
X43620Y14229D01*
D02*
G37*
G36*
X27445Y13854D02*
X27205D01*
X26983Y13762D01*
X26813Y13592D01*
X26721Y13370D01*
Y13130D01*
X26813Y12908D01*
X26983Y12738D01*
X27205Y12646D01*
X27445D01*
X27667Y12738D01*
X27837Y12908D01*
X27929Y13130D01*
Y13370D01*
X27837Y13592D01*
X27667Y13762D01*
X27445Y13854D01*
D02*
G37*
G36*
X45601Y13073D02*
X45127D01*
Y12599D01*
X45342Y12688D01*
X45512Y12858D01*
X45601Y13073D01*
D02*
G37*
G36*
X44873D02*
X44399D01*
X44488Y12858D01*
X44658Y12688D01*
X44873Y12599D01*
Y13073D01*
D02*
G37*
G36*
X70495Y14429D02*
X70251D01*
X70014Y14366D01*
X69803Y14243D01*
X69630Y14070D01*
X69507Y13859D01*
X69444Y13622D01*
Y13378D01*
X69507Y13141D01*
X69630Y12930D01*
X69803Y12757D01*
X70014Y12634D01*
X70251Y12571D01*
X70495D01*
X70732Y12634D01*
X70943Y12757D01*
X71116Y12930D01*
X71239Y13141D01*
X71302Y13378D01*
Y13622D01*
X71239Y13859D01*
X71116Y14070D01*
X70943Y14243D01*
X70732Y14366D01*
X70495Y14429D01*
D02*
G37*
G36*
X24627Y12486D02*
Y12012D01*
X25101D01*
X25012Y12227D01*
X24842Y12397D01*
X24627Y12486D01*
D02*
G37*
G36*
X24373D02*
X24158Y12397D01*
X23988Y12227D01*
X23899Y12012D01*
X24373D01*
Y12486D01*
D02*
G37*
G36*
X63227Y12201D02*
Y11727D01*
X63701D01*
X63612Y11942D01*
X63442Y12112D01*
X63227Y12201D01*
D02*
G37*
G36*
X62973D02*
X62758Y12112D01*
X62588Y11942D01*
X62499Y11727D01*
X62973D01*
Y12201D01*
D02*
G37*
G36*
X25101Y11758D02*
X24627D01*
Y11284D01*
X24842Y11373D01*
X25012Y11543D01*
X25101Y11758D01*
D02*
G37*
G36*
X24373D02*
X23899D01*
X23988Y11543D01*
X24158Y11373D01*
X24373Y11284D01*
Y11758D01*
D02*
G37*
G36*
X63701Y11473D02*
X63227D01*
Y10999D01*
X63442Y11088D01*
X63612Y11258D01*
X63701Y11473D01*
D02*
G37*
G36*
X62973D02*
X62499D01*
X62588Y11258D01*
X62758Y11088D01*
X62973Y10999D01*
Y11473D01*
D02*
G37*
G36*
X7749Y11479D02*
X7505D01*
X7268Y11416D01*
X7057Y11293D01*
X6884Y11120D01*
X6761Y10909D01*
X6698Y10672D01*
Y10428D01*
X6761Y10191D01*
X6884Y9980D01*
X7057Y9807D01*
X7268Y9684D01*
X7505Y9621D01*
X7749D01*
X7986Y9684D01*
X8197Y9807D01*
X8370Y9980D01*
X8493Y10191D01*
X8556Y10428D01*
Y10672D01*
X8493Y10909D01*
X8370Y11120D01*
X8197Y11293D01*
X7986Y11416D01*
X7749Y11479D01*
D02*
G37*
G36*
X47720Y10804D02*
X47480D01*
X47258Y10712D01*
X47088Y10542D01*
X46996Y10320D01*
Y10080D01*
X47088Y9858D01*
X47258Y9688D01*
X47480Y9596D01*
X47720D01*
X47942Y9688D01*
X48112Y9858D01*
X48204Y10080D01*
Y10320D01*
X48112Y10542D01*
X47942Y10712D01*
X47720Y10804D01*
D02*
G37*
G36*
X24652Y9776D02*
Y9302D01*
X25126D01*
X25037Y9517D01*
X24867Y9687D01*
X24652Y9776D01*
D02*
G37*
G36*
X24398D02*
X24183Y9687D01*
X24013Y9517D01*
X23924Y9302D01*
X24398D01*
Y9776D01*
D02*
G37*
G36*
X7754Y9478D02*
Y8677D01*
X8555D01*
X8493Y8909D01*
X8370Y9120D01*
X8197Y9293D01*
X7986Y9416D01*
X7754Y9478D01*
D02*
G37*
G36*
X7500D02*
X7268Y9416D01*
X7057Y9293D01*
X6884Y9120D01*
X6761Y8909D01*
X6699Y8677D01*
X7500D01*
Y9478D01*
D02*
G37*
G36*
X51720Y9854D02*
X51480D01*
X51258Y9762D01*
X51088Y9592D01*
X50996Y9370D01*
Y9130D01*
X51088Y8908D01*
X51258Y8738D01*
X51480Y8646D01*
X51720D01*
X51942Y8738D01*
X52112Y8908D01*
X52204Y9130D01*
Y9370D01*
X52112Y9592D01*
X51942Y9762D01*
X51720Y9854D01*
D02*
G37*
G36*
X25126Y9048D02*
X24652D01*
Y8574D01*
X24867Y8663D01*
X25037Y8833D01*
X25126Y9048D01*
D02*
G37*
G36*
X24398D02*
X23924D01*
X24013Y8833D01*
X24183Y8663D01*
X24398Y8574D01*
Y9048D01*
D02*
G37*
G36*
X7500Y8423D02*
X6699D01*
X6761Y8191D01*
X6884Y7980D01*
X7057Y7807D01*
X7268Y7684D01*
X7500Y7622D01*
Y8423D01*
D02*
G37*
G36*
X8555D02*
X7754D01*
Y7622D01*
X7986Y7684D01*
X8197Y7807D01*
X8370Y7980D01*
X8493Y8191D01*
X8555Y8423D01*
D02*
G37*
G36*
X64545Y8254D02*
X64305D01*
X64083Y8162D01*
X63913Y7992D01*
X63821Y7770D01*
Y7530D01*
X63913Y7308D01*
X64083Y7138D01*
X64305Y7046D01*
X64545D01*
X64767Y7138D01*
X64937Y7308D01*
X65029Y7530D01*
Y7770D01*
X64937Y7992D01*
X64767Y8162D01*
X64545Y8254D01*
D02*
G37*
G36*
X30781Y8594D02*
X30549D01*
X30326Y8534D01*
X30125Y8418D01*
X29962Y8255D01*
X29846Y8054D01*
X29786Y7831D01*
Y7599D01*
X29846Y7376D01*
X29962Y7175D01*
X30125Y7012D01*
X30326Y6896D01*
X30549Y6836D01*
X30781D01*
X31004Y6896D01*
X31205Y7012D01*
X31368Y7175D01*
X31484Y7376D01*
X31544Y7599D01*
Y7831D01*
X31484Y8054D01*
X31368Y8255D01*
X31205Y8418D01*
X31004Y8534D01*
X30781Y8594D01*
D02*
G37*
G36*
X40352Y5751D02*
Y5277D01*
X40826D01*
X40737Y5492D01*
X40567Y5662D01*
X40352Y5751D01*
D02*
G37*
G36*
X40098D02*
X39883Y5662D01*
X39713Y5492D01*
X39624Y5277D01*
X40098D01*
Y5751D01*
D02*
G37*
G36*
X40826Y5023D02*
X40352D01*
Y4549D01*
X40567Y4638D01*
X40737Y4808D01*
X40826Y5023D01*
D02*
G37*
G36*
X40098D02*
X39624D01*
X39713Y4808D01*
X39883Y4638D01*
X40098Y4549D01*
Y5023D01*
D02*
G37*
G36*
X41795Y5754D02*
X41555D01*
X41333Y5662D01*
X41163Y5492D01*
X41071Y5270D01*
Y5030D01*
X41163Y4808D01*
X41333Y4638D01*
X41555Y4546D01*
X41795D01*
X42017Y4638D01*
X42187Y4808D01*
X42279Y5030D01*
Y5270D01*
X42187Y5492D01*
X42017Y5662D01*
X41795Y5754D01*
D02*
G37*
G36*
X38345D02*
X38105D01*
X37883Y5662D01*
X37713Y5492D01*
X37621Y5270D01*
Y5030D01*
X37713Y4808D01*
X37883Y4638D01*
X38105Y4546D01*
X38345D01*
X38567Y4638D01*
X38737Y4808D01*
X38829Y5030D01*
Y5270D01*
X38737Y5492D01*
X38567Y5662D01*
X38345Y5754D01*
D02*
G37*
G36*
X28241Y6054D02*
X28009D01*
X27786Y5994D01*
X27585Y5878D01*
X27422Y5715D01*
X27306Y5514D01*
X27246Y5291D01*
Y5059D01*
X27306Y4836D01*
X27422Y4635D01*
X27585Y4472D01*
X27786Y4356D01*
X28009Y4296D01*
X28241D01*
X28464Y4356D01*
X28665Y4472D01*
X28828Y4635D01*
X28944Y4836D01*
X29004Y5059D01*
Y5291D01*
X28944Y5514D01*
X28828Y5715D01*
X28665Y5878D01*
X28464Y5994D01*
X28241Y6054D01*
D02*
G37*
G36*
X20727Y3076D02*
Y2602D01*
X21201D01*
X21112Y2817D01*
X20942Y2987D01*
X20727Y3076D01*
D02*
G37*
G36*
X20473D02*
X20258Y2987D01*
X20088Y2817D01*
X19999Y2602D01*
X20473D01*
Y3076D01*
D02*
G37*
G36*
X21201Y2348D02*
X20727D01*
Y1874D01*
X20942Y1963D01*
X21112Y2133D01*
X21201Y2348D01*
D02*
G37*
G36*
X20473D02*
X19999D01*
X20088Y2133D01*
X20258Y1963D01*
X20473Y1874D01*
Y2348D01*
D02*
G37*
G36*
X22735Y3079D02*
X22495D01*
X22273Y2987D01*
X22103Y2817D01*
X22011Y2595D01*
Y2355D01*
X22103Y2133D01*
X22273Y1963D01*
X22495Y1871D01*
X22735D01*
X22957Y1963D01*
X23127Y2133D01*
X23219Y2355D01*
Y2595D01*
X23127Y2817D01*
X22957Y2987D01*
X22735Y3079D01*
D02*
G37*
G36*
X31544Y3514D02*
X29786D01*
Y1756D01*
X31544D01*
Y3514D01*
D02*
G37*
%LPD*%
D42*
X7627Y20550D02*
D03*
Y18550D02*
D03*
Y10550D02*
D03*
Y8550D02*
D03*
X70373Y13500D02*
D03*
Y15500D02*
D03*
D43*
X3000Y3050D02*
D03*
X3050Y26050D02*
D03*
X74050Y3050D02*
D03*
Y26050D02*
D03*
D44*
X28160Y23210D02*
D03*
D45*
X30700Y25750D02*
D03*
X33240Y23210D02*
D03*
X28125Y5175D02*
D03*
X30665Y7715D02*
D03*
D46*
Y2635D02*
D03*
D47*
X24875Y14790D02*
D03*
X34125Y15800D02*
D03*
X43500Y13625D02*
D03*
X51600Y9250D02*
D03*
X47600Y10200D02*
D03*
X51600Y17250D02*
D03*
X64425Y7650D02*
D03*
X63100Y11600D02*
D03*
X63075Y16800D02*
D03*
X40760Y26975D02*
D03*
X20600Y2475D02*
D03*
X24500Y11885D02*
D03*
X21875Y26475D02*
D03*
X23150Y22475D02*
D03*
X22615Y2475D02*
D03*
X24525Y9175D02*
D03*
X27325Y13250D02*
D03*
X48875Y19475D02*
D03*
X45000Y13200D02*
D03*
X41675Y5150D02*
D03*
X36900Y17365D02*
D03*
X37525Y23075D02*
D03*
X40225Y5150D02*
D03*
X42030Y22575D02*
D03*
X31375Y15800D02*
D03*
X38760Y26975D02*
D03*
X19875Y26475D02*
D03*
X38225Y5150D02*
D03*
X18850Y19515D02*
D03*
M02*
