G04*
G04 #@! TF.GenerationSoftware,Altium Limited,Altium Designer,23.8.1 (32)*
G04*
G04 Layer_Color=32768*
%FSLAX43Y43*%
%MOMM*%
G71*
G04*
G04 #@! TF.SameCoordinates,4157314E-2F8B-4695-BFB2-F8FC6B21436D*
G04*
G04*
G04 #@! TF.FilePolarity,Positive*
G04*
G01*
G75*
%ADD11C,0.100*%
%ADD12C,0.200*%
%ADD48C,0.050*%
D11*
X9077Y16250D02*
Y22550D01*
X1077Y16250D02*
X9077D01*
X1077D02*
Y22550D01*
X9077D01*
Y6250D02*
Y12550D01*
X1077Y6250D02*
X9077D01*
X1077D02*
Y12550D01*
X9077D01*
X68923Y11500D02*
Y17800D01*
X76923D01*
Y11500D02*
Y17800D01*
X68923Y11500D02*
X76923D01*
X66150Y6675D02*
X67150D01*
X66650Y6175D02*
Y7175D01*
X42577Y12677D02*
Y16573D01*
X37673Y12677D02*
X42577D01*
X37673D02*
Y16573D01*
X42577D01*
X41307D02*
X42577Y15303D01*
X23702Y12677D02*
Y16573D01*
X18798Y12677D02*
X23702D01*
X18798D02*
Y16573D01*
X23702D01*
X22432D02*
X23702Y15303D01*
X53375Y10200D02*
X54375D01*
X53875Y9700D02*
Y10700D01*
X53375Y18200D02*
X54375D01*
X53875Y17700D02*
Y18700D01*
X30200Y23175D02*
X31200D01*
X30700Y22675D02*
Y23675D01*
Y4675D02*
Y5675D01*
X30200Y5175D02*
X31200D01*
D12*
X43125Y11489D02*
X43875D01*
Y12961D01*
X43125D02*
X43875D01*
X43125Y11489D02*
Y12961D01*
X31989Y15425D02*
Y16175D01*
Y15425D02*
X33461D01*
Y16175D01*
X31989D02*
X33461D01*
X24500Y12689D02*
X25250D01*
Y14161D01*
X24500D02*
X25250D01*
X24500Y12689D02*
Y14161D01*
X36950Y19971D02*
X38100D01*
Y22229D01*
X36950D02*
X38100D01*
X36950Y19971D02*
Y22229D01*
X27700Y13200D02*
Y15850D01*
Y13200D02*
X31000D01*
Y15850D01*
X27700D02*
X31000D01*
D48*
X65050Y4775D02*
Y8575D01*
X68250Y4775D02*
Y8575D01*
X65050Y4775D02*
X68250D01*
X65050Y8575D02*
X68250D01*
X61150Y18650D02*
X62250D01*
X61150Y16350D02*
X62250D01*
Y18650D01*
X61150Y16350D02*
Y18650D01*
X61700Y17025D02*
Y17975D01*
X61225Y17500D02*
X62175D01*
X59150Y18650D02*
X60250D01*
X59150Y16350D02*
X60250D01*
Y18650D01*
X59150Y16350D02*
Y18650D01*
X59700Y17025D02*
Y17975D01*
X59225Y17500D02*
X60175D01*
X61175Y9750D02*
X62275D01*
X61175Y12050D02*
X62275D01*
X61175Y9750D02*
Y12050D01*
X62275Y9750D02*
Y12050D01*
X61725Y10425D02*
Y11375D01*
X61250Y10900D02*
X62200D01*
X52325Y8640D02*
Y11760D01*
X55425Y8640D02*
Y11760D01*
X52325D02*
X55425D01*
X52325Y8640D02*
X55425D01*
X52325Y16640D02*
Y19760D01*
X55425Y16640D02*
Y19760D01*
X52325D02*
X55425D01*
X52325Y16640D02*
X55425D01*
X27300Y26770D02*
X34100D01*
X27300Y19580D02*
X34100D01*
X27300D02*
Y26770D01*
X34100Y19580D02*
Y26770D01*
X27105Y1775D02*
Y8575D01*
X34295Y1775D02*
Y8575D01*
X27105Y1775D02*
X34295D01*
X27105Y8575D02*
X34295D01*
X59175Y10900D02*
X60125D01*
X59650Y10425D02*
Y11375D01*
X59100Y9750D02*
Y12050D01*
X60200Y9750D02*
Y12050D01*
X59100Y9750D02*
X60200D01*
X59100Y12050D02*
X60200D01*
X48400Y9500D02*
X49350D01*
X48875Y9025D02*
Y9975D01*
X48325Y8350D02*
Y10650D01*
X49425Y8350D02*
Y10650D01*
X48325Y8350D02*
X49425D01*
X48325Y10650D02*
X49425D01*
X44525Y11150D02*
X45475D01*
X45000Y10675D02*
Y11625D01*
X44450Y10000D02*
Y12300D01*
X45550Y10000D02*
Y12300D01*
X44450Y10000D02*
X45550D01*
X44450Y12300D02*
X45550D01*
X34875Y9500D02*
Y10450D01*
X34400Y9975D02*
X35350D01*
X32925Y8925D02*
X36825D01*
X32925Y11025D02*
X36825D01*
Y8925D02*
Y11025D01*
X32925Y8925D02*
Y11025D01*
X39750Y7125D02*
X40700D01*
X40225Y6650D02*
Y7600D01*
X40775Y5975D02*
Y8275D01*
X39675Y5975D02*
Y8275D01*
X40775D01*
X39675Y5975D02*
X40775D01*
X41200Y7175D02*
X42150D01*
X41675Y6700D02*
Y7650D01*
X42225Y6025D02*
Y8325D01*
X41125Y6025D02*
Y8325D01*
X42225D01*
X41125Y6025D02*
X42225D01*
X53400Y22700D02*
X54350D01*
X53875Y22225D02*
Y23175D01*
X53325Y21550D02*
Y23850D01*
X54425Y21550D02*
Y23850D01*
X53325Y21550D02*
X54425D01*
X53325Y23850D02*
X54425D01*
X41555Y20525D02*
X42505D01*
X42030Y20050D02*
Y21000D01*
X42580Y19375D02*
Y21675D01*
X41480Y19375D02*
Y21675D01*
X42580D01*
X41480Y19375D02*
X42580D01*
X16850Y14575D02*
X17800D01*
X17325Y14100D02*
Y15050D01*
X16775Y13425D02*
Y15725D01*
X17875Y13425D02*
Y15725D01*
X16775Y13425D02*
X17875D01*
X16775Y15725D02*
X17875D01*
X22680Y20525D02*
X23630D01*
X23155Y20050D02*
Y21000D01*
X23705Y19375D02*
Y21675D01*
X22605Y19375D02*
Y21675D01*
X23705D01*
X22605Y19375D02*
X23705D01*
X48400Y17500D02*
X49350D01*
X48875Y17025D02*
Y17975D01*
X48325Y16350D02*
Y18650D01*
X49425Y16350D02*
Y18650D01*
X48325Y16350D02*
X49425D01*
X48325Y18650D02*
X49425D01*
X19875Y20525D02*
X20825D01*
X20350Y20050D02*
Y21000D01*
X19800Y19375D02*
Y21675D01*
X20900Y19375D02*
Y21675D01*
X19800Y19375D02*
X20900D01*
X19800Y21675D02*
X20900D01*
X38285Y24825D02*
X39235D01*
X38760Y24350D02*
Y25300D01*
X38210Y23675D02*
Y25975D01*
X39310Y23675D02*
Y25975D01*
X38210Y23675D02*
X39310D01*
X38210Y25975D02*
X39310D01*
X20065Y5675D02*
X21165D01*
X20065Y3375D02*
X21165D01*
Y5675D01*
X20065Y3375D02*
Y5675D01*
X20615Y4050D02*
Y5000D01*
X20140Y4525D02*
X21090D01*
X54575Y5075D02*
Y6025D01*
X54100Y5550D02*
X55050D01*
X53425Y5000D02*
X55725D01*
X53425Y6100D02*
X55725D01*
Y5000D02*
Y6100D01*
X53425Y5000D02*
Y6100D01*
X40285Y24825D02*
X41235D01*
X40760Y24350D02*
Y25300D01*
X41310Y23675D02*
Y25975D01*
X40210Y23675D02*
Y25975D01*
X41310D01*
X40210Y23675D02*
X41310D01*
X19410Y24525D02*
X20360D01*
X19885Y24050D02*
Y25000D01*
X18835Y22575D02*
Y26475D01*
X20935Y22575D02*
Y26475D01*
X18835Y22575D02*
X20935D01*
X18835Y26475D02*
X20935D01*
X21410Y24525D02*
X22360D01*
X21885Y24050D02*
Y25000D01*
X22435Y23375D02*
Y25675D01*
X21335Y23375D02*
Y25675D01*
X22435D01*
X21335Y23375D02*
X22435D01*
X22600Y8700D02*
Y9650D01*
X22125Y9175D02*
X23075D01*
X21450Y8625D02*
X23750D01*
X21450Y9725D02*
X23750D01*
Y8625D02*
Y9725D01*
X21450Y8625D02*
Y9725D01*
X32200Y13325D02*
Y14425D01*
X34500Y13325D02*
Y14425D01*
X32200D02*
X34500D01*
X32200Y13325D02*
X34500D01*
X32875Y13875D02*
X33825D01*
X33350Y13400D02*
Y14350D01*
X22140Y4525D02*
X23090D01*
X22615Y4050D02*
Y5000D01*
X23365Y3025D02*
Y6025D01*
X21865Y3025D02*
Y6025D01*
X23365D01*
X21865Y3025D02*
X23365D01*
M02*
