G04*
G04 #@! TF.GenerationSoftware,Altium Limited,Altium Designer,23.8.1 (32)*
G04*
G04 Layer_Physical_Order=4*
G04 Layer_Color=16711680*
%FSLAX43Y43*%
%MOMM*%
G71*
G04*
G04 #@! TF.SameCoordinates,4157314E-2F8B-4695-BFB2-F8FC6B21436D*
G04*
G04*
G04 #@! TF.FilePolarity,Positive*
G04*
G01*
G75*
%ADD41R,1.350X1.350*%
%ADD42C,1.350*%
%ADD43C,2.000*%
%ADD44R,1.250X1.250*%
%ADD45C,1.250*%
%ADD46R,1.250X1.250*%
%ADD47C,0.700*%
D41*
X7627Y20550D02*
D03*
Y10550D02*
D03*
X70373Y13500D02*
D03*
D42*
X7627Y18550D02*
D03*
Y8550D02*
D03*
X70373Y15500D02*
D03*
D43*
X3000Y3050D02*
D03*
X3050Y26050D02*
D03*
X74050Y3050D02*
D03*
Y26050D02*
D03*
D44*
X28160Y23210D02*
D03*
D45*
X30700Y25750D02*
D03*
X33240Y23210D02*
D03*
X28125Y5175D02*
D03*
X30665Y7715D02*
D03*
D46*
Y2635D02*
D03*
D47*
X24875Y14790D02*
D03*
X34125Y15800D02*
D03*
X43500Y13625D02*
D03*
X51600Y9250D02*
D03*
X47600Y10200D02*
D03*
X51600Y17250D02*
D03*
X64425Y7650D02*
D03*
X63100Y11600D02*
D03*
X63075Y16800D02*
D03*
X40760Y26975D02*
D03*
X20600Y2475D02*
D03*
X24500Y11885D02*
D03*
X21875Y26475D02*
D03*
X23150Y22475D02*
D03*
X22615Y2475D02*
D03*
X24525Y9175D02*
D03*
X27325Y13250D02*
D03*
X48875Y19475D02*
D03*
X45000Y13200D02*
D03*
X41675Y5150D02*
D03*
X36900Y17365D02*
D03*
X37525Y23075D02*
D03*
X40225Y5150D02*
D03*
X42030Y22575D02*
D03*
X31375Y15800D02*
D03*
X38760Y26975D02*
D03*
X19875Y26475D02*
D03*
X38225Y5150D02*
D03*
X18850Y19515D02*
D03*
M02*
